<mxfile host="app.diagrams.net" modified="2022-03-15T21:51:02.565Z" agent="5.0 (Macintosh; Intel Mac OS X 10_15_7) AppleWebKit/537.36 (KHTML, like Gecko) Chrome/99.0.4844.51 Safari/537.36" etag="j3px_-YFfj2JKg7epEeK" version="17.1.2" type="github">
  <diagram id="9TDbdFuDciQQ4_RM8ILd" name="Page-1">
    <mxGraphModel dx="1901" dy="1021" grid="1" gridSize="10" guides="1" tooltips="1" connect="1" arrows="1" fold="1" page="1" pageScale="1" pageWidth="827" pageHeight="1169" math="0" shadow="0">
      <root>
        <mxCell id="0" />
        <mxCell id="1" parent="0" />
        <mxCell id="28t_TmLzIudg9PH67Oan-2" value="" style="shape=table;html=1;whiteSpace=wrap;startSize=0;container=1;collapsible=0;childLayout=tableLayout;" parent="1" vertex="1">
          <mxGeometry x="20" y="420" width="180" height="270" as="geometry" />
        </mxCell>
        <mxCell id="28t_TmLzIudg9PH67Oan-49" style="shape=tableRow;horizontal=0;startSize=0;swimlaneHead=0;swimlaneBody=0;top=0;left=0;bottom=0;right=0;collapsible=0;dropTarget=0;fillColor=none;points=[[0,0.5],[1,0.5]];portConstraint=eastwest;" parent="28t_TmLzIudg9PH67Oan-2" vertex="1">
          <mxGeometry width="180" height="30" as="geometry" />
        </mxCell>
        <mxCell id="28t_TmLzIudg9PH67Oan-50" value="opcode" style="shape=partialRectangle;html=1;whiteSpace=wrap;connectable=0;fillColor=none;top=0;left=0;bottom=0;right=0;overflow=hidden;fontFamily=Source Code Pro;fontSource=https%3A%2F%2Ffonts.googleapis.com%2Fcss%3Ffamily%3DSource%2BCode%2BPro;" parent="28t_TmLzIudg9PH67Oan-49" vertex="1">
          <mxGeometry width="60" height="30" as="geometry">
            <mxRectangle width="60" height="30" as="alternateBounds" />
          </mxGeometry>
        </mxCell>
        <mxCell id="28t_TmLzIudg9PH67Oan-51" value="index" style="shape=partialRectangle;html=1;whiteSpace=wrap;connectable=0;fillColor=none;top=0;left=0;bottom=0;right=0;overflow=hidden;fontFamily=Source Code Pro;fontSource=https%3A%2F%2Ffonts.googleapis.com%2Fcss%3Ffamily%3DSource%2BCode%2BPro;fontStyle=1" parent="28t_TmLzIudg9PH67Oan-49" vertex="1">
          <mxGeometry x="60" width="60" height="30" as="geometry">
            <mxRectangle width="60" height="30" as="alternateBounds" />
          </mxGeometry>
        </mxCell>
        <mxCell id="28t_TmLzIudg9PH67Oan-52" value="is_code" style="shape=partialRectangle;html=1;whiteSpace=wrap;connectable=0;fillColor=none;top=0;left=0;bottom=0;right=0;overflow=hidden;fontFamily=Source Code Pro;fontSource=https%3A%2F%2Ffonts.googleapis.com%2Fcss%3Ffamily%3DSource%2BCode%2BPro;fontStyle=1" parent="28t_TmLzIudg9PH67Oan-49" vertex="1">
          <mxGeometry x="120" width="60" height="30" as="geometry">
            <mxRectangle width="60" height="30" as="alternateBounds" />
          </mxGeometry>
        </mxCell>
        <mxCell id="28t_TmLzIudg9PH67Oan-3" value="" style="shape=tableRow;horizontal=0;startSize=0;swimlaneHead=0;swimlaneBody=0;top=0;left=0;bottom=0;right=0;collapsible=0;dropTarget=0;fillColor=none;points=[[0,0.5],[1,0.5]];portConstraint=eastwest;" parent="28t_TmLzIudg9PH67Oan-2" vertex="1">
          <mxGeometry y="30" width="180" height="30" as="geometry" />
        </mxCell>
        <mxCell id="28t_TmLzIudg9PH67Oan-4" value="PUSH1" style="shape=partialRectangle;html=1;whiteSpace=wrap;connectable=0;fillColor=none;top=0;left=0;bottom=0;right=0;overflow=hidden;fontFamily=Source Code Pro;fontSource=https%3A%2F%2Ffonts.googleapis.com%2Fcss%3Ffamily%3DSource%2BCode%2BPro;" parent="28t_TmLzIudg9PH67Oan-3" vertex="1">
          <mxGeometry width="60" height="30" as="geometry">
            <mxRectangle width="60" height="30" as="alternateBounds" />
          </mxGeometry>
        </mxCell>
        <mxCell id="28t_TmLzIudg9PH67Oan-5" value="0" style="shape=partialRectangle;html=1;whiteSpace=wrap;connectable=0;fillColor=none;top=0;left=0;bottom=0;right=0;overflow=hidden;fontFamily=Source Code Pro;fontSource=https%3A%2F%2Ffonts.googleapis.com%2Fcss%3Ffamily%3DSource%2BCode%2BPro;" parent="28t_TmLzIudg9PH67Oan-3" vertex="1">
          <mxGeometry x="60" width="60" height="30" as="geometry">
            <mxRectangle width="60" height="30" as="alternateBounds" />
          </mxGeometry>
        </mxCell>
        <mxCell id="28t_TmLzIudg9PH67Oan-6" value="1" style="shape=partialRectangle;html=1;whiteSpace=wrap;connectable=0;fillColor=none;top=0;left=0;bottom=0;right=0;overflow=hidden;fontFamily=Source Code Pro;fontSource=https%3A%2F%2Ffonts.googleapis.com%2Fcss%3Ffamily%3DSource%2BCode%2BPro;" parent="28t_TmLzIudg9PH67Oan-3" vertex="1">
          <mxGeometry x="120" width="60" height="30" as="geometry">
            <mxRectangle width="60" height="30" as="alternateBounds" />
          </mxGeometry>
        </mxCell>
        <mxCell id="28t_TmLzIudg9PH67Oan-7" value="" style="shape=tableRow;horizontal=0;startSize=0;swimlaneHead=0;swimlaneBody=0;top=0;left=0;bottom=0;right=0;collapsible=0;dropTarget=0;fillColor=none;points=[[0,0.5],[1,0.5]];portConstraint=eastwest;" parent="28t_TmLzIudg9PH67Oan-2" vertex="1">
          <mxGeometry y="60" width="180" height="30" as="geometry" />
        </mxCell>
        <mxCell id="28t_TmLzIudg9PH67Oan-8" value="2" style="shape=partialRectangle;html=1;whiteSpace=wrap;connectable=0;fillColor=none;top=0;left=0;bottom=0;right=0;overflow=hidden;fontFamily=Source Code Pro;fontSource=https%3A%2F%2Ffonts.googleapis.com%2Fcss%3Ffamily%3DSource%2BCode%2BPro;" parent="28t_TmLzIudg9PH67Oan-7" vertex="1">
          <mxGeometry width="60" height="30" as="geometry">
            <mxRectangle width="60" height="30" as="alternateBounds" />
          </mxGeometry>
        </mxCell>
        <mxCell id="28t_TmLzIudg9PH67Oan-9" value="1" style="shape=partialRectangle;html=1;whiteSpace=wrap;connectable=0;fillColor=none;top=0;left=0;bottom=0;right=0;overflow=hidden;fontFamily=Source Code Pro;fontSource=https%3A%2F%2Ffonts.googleapis.com%2Fcss%3Ffamily%3DSource%2BCode%2BPro;" parent="28t_TmLzIudg9PH67Oan-7" vertex="1">
          <mxGeometry x="60" width="60" height="30" as="geometry">
            <mxRectangle width="60" height="30" as="alternateBounds" />
          </mxGeometry>
        </mxCell>
        <mxCell id="28t_TmLzIudg9PH67Oan-10" value="0" style="shape=partialRectangle;html=1;whiteSpace=wrap;connectable=0;fillColor=none;top=0;left=0;bottom=0;right=0;overflow=hidden;fontFamily=Source Code Pro;fontSource=https%3A%2F%2Ffonts.googleapis.com%2Fcss%3Ffamily%3DSource%2BCode%2BPro;" parent="28t_TmLzIudg9PH67Oan-7" vertex="1">
          <mxGeometry x="120" width="60" height="30" as="geometry">
            <mxRectangle width="60" height="30" as="alternateBounds" />
          </mxGeometry>
        </mxCell>
        <mxCell id="28t_TmLzIudg9PH67Oan-11" value="" style="shape=tableRow;horizontal=0;startSize=0;swimlaneHead=0;swimlaneBody=0;top=0;left=0;bottom=0;right=0;collapsible=0;dropTarget=0;fillColor=none;points=[[0,0.5],[1,0.5]];portConstraint=eastwest;" parent="28t_TmLzIudg9PH67Oan-2" vertex="1">
          <mxGeometry y="90" width="180" height="30" as="geometry" />
        </mxCell>
        <mxCell id="28t_TmLzIudg9PH67Oan-12" value="PUSH1" style="shape=partialRectangle;html=1;whiteSpace=wrap;connectable=0;fillColor=none;top=0;left=0;bottom=0;right=0;overflow=hidden;fontFamily=Source Code Pro;fontSource=https%3A%2F%2Ffonts.googleapis.com%2Fcss%3Ffamily%3DSource%2BCode%2BPro;" parent="28t_TmLzIudg9PH67Oan-11" vertex="1">
          <mxGeometry width="60" height="30" as="geometry">
            <mxRectangle width="60" height="30" as="alternateBounds" />
          </mxGeometry>
        </mxCell>
        <mxCell id="28t_TmLzIudg9PH67Oan-13" value="2" style="shape=partialRectangle;html=1;whiteSpace=wrap;connectable=0;fillColor=none;top=0;left=0;bottom=0;right=0;overflow=hidden;fontFamily=Source Code Pro;fontSource=https%3A%2F%2Ffonts.googleapis.com%2Fcss%3Ffamily%3DSource%2BCode%2BPro;" parent="28t_TmLzIudg9PH67Oan-11" vertex="1">
          <mxGeometry x="60" width="60" height="30" as="geometry">
            <mxRectangle width="60" height="30" as="alternateBounds" />
          </mxGeometry>
        </mxCell>
        <mxCell id="28t_TmLzIudg9PH67Oan-14" value="1" style="shape=partialRectangle;html=1;whiteSpace=wrap;connectable=0;fillColor=none;top=0;left=0;bottom=0;right=0;overflow=hidden;pointerEvents=1;fontFamily=Source Code Pro;fontSource=https%3A%2F%2Ffonts.googleapis.com%2Fcss%3Ffamily%3DSource%2BCode%2BPro;" parent="28t_TmLzIudg9PH67Oan-11" vertex="1">
          <mxGeometry x="120" width="60" height="30" as="geometry">
            <mxRectangle width="60" height="30" as="alternateBounds" />
          </mxGeometry>
        </mxCell>
        <mxCell id="28t_TmLzIudg9PH67Oan-22" style="shape=tableRow;horizontal=0;startSize=0;swimlaneHead=0;swimlaneBody=0;top=0;left=0;bottom=0;right=0;collapsible=0;dropTarget=0;fillColor=none;points=[[0,0.5],[1,0.5]];portConstraint=eastwest;" parent="28t_TmLzIudg9PH67Oan-2" vertex="1">
          <mxGeometry y="120" width="180" height="30" as="geometry" />
        </mxCell>
        <mxCell id="28t_TmLzIudg9PH67Oan-23" value="4" style="shape=partialRectangle;html=1;whiteSpace=wrap;connectable=0;fillColor=none;top=0;left=0;bottom=0;right=0;overflow=hidden;fontFamily=Source Code Pro;fontSource=https%3A%2F%2Ffonts.googleapis.com%2Fcss%3Ffamily%3DSource%2BCode%2BPro;" parent="28t_TmLzIudg9PH67Oan-22" vertex="1">
          <mxGeometry width="60" height="30" as="geometry">
            <mxRectangle width="60" height="30" as="alternateBounds" />
          </mxGeometry>
        </mxCell>
        <mxCell id="28t_TmLzIudg9PH67Oan-24" value="3" style="shape=partialRectangle;html=1;whiteSpace=wrap;connectable=0;fillColor=none;top=0;left=0;bottom=0;right=0;overflow=hidden;fontFamily=Source Code Pro;fontSource=https%3A%2F%2Ffonts.googleapis.com%2Fcss%3Ffamily%3DSource%2BCode%2BPro;" parent="28t_TmLzIudg9PH67Oan-22" vertex="1">
          <mxGeometry x="60" width="60" height="30" as="geometry">
            <mxRectangle width="60" height="30" as="alternateBounds" />
          </mxGeometry>
        </mxCell>
        <mxCell id="28t_TmLzIudg9PH67Oan-25" value="0" style="shape=partialRectangle;html=1;whiteSpace=wrap;connectable=0;fillColor=none;top=0;left=0;bottom=0;right=0;overflow=hidden;pointerEvents=1;fontFamily=Source Code Pro;fontSource=https%3A%2F%2Ffonts.googleapis.com%2Fcss%3Ffamily%3DSource%2BCode%2BPro;" parent="28t_TmLzIudg9PH67Oan-22" vertex="1">
          <mxGeometry x="120" width="60" height="30" as="geometry">
            <mxRectangle width="60" height="30" as="alternateBounds" />
          </mxGeometry>
        </mxCell>
        <mxCell id="28t_TmLzIudg9PH67Oan-18" style="shape=tableRow;horizontal=0;startSize=0;swimlaneHead=0;swimlaneBody=0;top=0;left=0;bottom=0;right=0;collapsible=0;dropTarget=0;fillColor=none;points=[[0,0.5],[1,0.5]];portConstraint=eastwest;" parent="28t_TmLzIudg9PH67Oan-2" vertex="1">
          <mxGeometry y="150" width="180" height="30" as="geometry" />
        </mxCell>
        <mxCell id="28t_TmLzIudg9PH67Oan-19" value="ADD" style="shape=partialRectangle;html=1;whiteSpace=wrap;connectable=0;fillColor=none;top=0;left=0;bottom=0;right=0;overflow=hidden;fontFamily=Source Code Pro;fontSource=https%3A%2F%2Ffonts.googleapis.com%2Fcss%3Ffamily%3DSource%2BCode%2BPro;" parent="28t_TmLzIudg9PH67Oan-18" vertex="1">
          <mxGeometry width="60" height="30" as="geometry">
            <mxRectangle width="60" height="30" as="alternateBounds" />
          </mxGeometry>
        </mxCell>
        <mxCell id="28t_TmLzIudg9PH67Oan-20" value="4" style="shape=partialRectangle;html=1;whiteSpace=wrap;connectable=0;fillColor=none;top=0;left=0;bottom=0;right=0;overflow=hidden;fontFamily=Source Code Pro;fontSource=https%3A%2F%2Ffonts.googleapis.com%2Fcss%3Ffamily%3DSource%2BCode%2BPro;" parent="28t_TmLzIudg9PH67Oan-18" vertex="1">
          <mxGeometry x="60" width="60" height="30" as="geometry">
            <mxRectangle width="60" height="30" as="alternateBounds" />
          </mxGeometry>
        </mxCell>
        <mxCell id="28t_TmLzIudg9PH67Oan-21" value="1" style="shape=partialRectangle;html=1;whiteSpace=wrap;connectable=0;fillColor=none;top=0;left=0;bottom=0;right=0;overflow=hidden;pointerEvents=1;fontFamily=Source Code Pro;fontSource=https%3A%2F%2Ffonts.googleapis.com%2Fcss%3Ffamily%3DSource%2BCode%2BPro;" parent="28t_TmLzIudg9PH67Oan-18" vertex="1">
          <mxGeometry x="120" width="60" height="30" as="geometry">
            <mxRectangle width="60" height="30" as="alternateBounds" />
          </mxGeometry>
        </mxCell>
        <mxCell id="28t_TmLzIudg9PH67Oan-26" style="shape=tableRow;horizontal=0;startSize=0;swimlaneHead=0;swimlaneBody=0;top=0;left=0;bottom=0;right=0;collapsible=0;dropTarget=0;fillColor=none;points=[[0,0.5],[1,0.5]];portConstraint=eastwest;" parent="28t_TmLzIudg9PH67Oan-2" vertex="1">
          <mxGeometry y="180" width="180" height="30" as="geometry" />
        </mxCell>
        <mxCell id="28t_TmLzIudg9PH67Oan-27" value="PUSH1" style="shape=partialRectangle;html=1;whiteSpace=wrap;connectable=0;fillColor=none;top=0;left=0;bottom=0;right=0;overflow=hidden;fontFamily=Source Code Pro;fontSource=https%3A%2F%2Ffonts.googleapis.com%2Fcss%3Ffamily%3DSource%2BCode%2BPro;" parent="28t_TmLzIudg9PH67Oan-26" vertex="1">
          <mxGeometry width="60" height="30" as="geometry">
            <mxRectangle width="60" height="30" as="alternateBounds" />
          </mxGeometry>
        </mxCell>
        <mxCell id="28t_TmLzIudg9PH67Oan-28" value="5" style="shape=partialRectangle;html=1;whiteSpace=wrap;connectable=0;fillColor=none;top=0;left=0;bottom=0;right=0;overflow=hidden;fontFamily=Source Code Pro;fontSource=https%3A%2F%2Ffonts.googleapis.com%2Fcss%3Ffamily%3DSource%2BCode%2BPro;" parent="28t_TmLzIudg9PH67Oan-26" vertex="1">
          <mxGeometry x="60" width="60" height="30" as="geometry">
            <mxRectangle width="60" height="30" as="alternateBounds" />
          </mxGeometry>
        </mxCell>
        <mxCell id="28t_TmLzIudg9PH67Oan-29" value="1" style="shape=partialRectangle;html=1;whiteSpace=wrap;connectable=0;fillColor=none;top=0;left=0;bottom=0;right=0;overflow=hidden;pointerEvents=1;fontFamily=Source Code Pro;fontSource=https%3A%2F%2Ffonts.googleapis.com%2Fcss%3Ffamily%3DSource%2BCode%2BPro;" parent="28t_TmLzIudg9PH67Oan-26" vertex="1">
          <mxGeometry x="120" width="60" height="30" as="geometry">
            <mxRectangle width="60" height="30" as="alternateBounds" />
          </mxGeometry>
        </mxCell>
        <mxCell id="28t_TmLzIudg9PH67Oan-30" style="shape=tableRow;horizontal=0;startSize=0;swimlaneHead=0;swimlaneBody=0;top=0;left=0;bottom=0;right=0;collapsible=0;dropTarget=0;fillColor=none;points=[[0,0.5],[1,0.5]];portConstraint=eastwest;" parent="28t_TmLzIudg9PH67Oan-2" vertex="1">
          <mxGeometry y="210" width="180" height="30" as="geometry" />
        </mxCell>
        <mxCell id="28t_TmLzIudg9PH67Oan-31" value="3" style="shape=partialRectangle;html=1;whiteSpace=wrap;connectable=0;fillColor=none;top=0;left=0;bottom=0;right=0;overflow=hidden;fontFamily=Source Code Pro;fontSource=https%3A%2F%2Ffonts.googleapis.com%2Fcss%3Ffamily%3DSource%2BCode%2BPro;" parent="28t_TmLzIudg9PH67Oan-30" vertex="1">
          <mxGeometry width="60" height="30" as="geometry">
            <mxRectangle width="60" height="30" as="alternateBounds" />
          </mxGeometry>
        </mxCell>
        <mxCell id="28t_TmLzIudg9PH67Oan-32" value="6" style="shape=partialRectangle;html=1;whiteSpace=wrap;connectable=0;fillColor=none;top=0;left=0;bottom=0;right=0;overflow=hidden;fontFamily=Source Code Pro;fontSource=https%3A%2F%2Ffonts.googleapis.com%2Fcss%3Ffamily%3DSource%2BCode%2BPro;" parent="28t_TmLzIudg9PH67Oan-30" vertex="1">
          <mxGeometry x="60" width="60" height="30" as="geometry">
            <mxRectangle width="60" height="30" as="alternateBounds" />
          </mxGeometry>
        </mxCell>
        <mxCell id="28t_TmLzIudg9PH67Oan-33" value="0" style="shape=partialRectangle;html=1;whiteSpace=wrap;connectable=0;fillColor=none;top=0;left=0;bottom=0;right=0;overflow=hidden;pointerEvents=1;fontFamily=Source Code Pro;fontSource=https%3A%2F%2Ffonts.googleapis.com%2Fcss%3Ffamily%3DSource%2BCode%2BPro;" parent="28t_TmLzIudg9PH67Oan-30" vertex="1">
          <mxGeometry x="120" width="60" height="30" as="geometry">
            <mxRectangle width="60" height="30" as="alternateBounds" />
          </mxGeometry>
        </mxCell>
        <mxCell id="28t_TmLzIudg9PH67Oan-34" style="shape=tableRow;horizontal=0;startSize=0;swimlaneHead=0;swimlaneBody=0;top=0;left=0;bottom=0;right=0;collapsible=0;dropTarget=0;fillColor=none;points=[[0,0.5],[1,0.5]];portConstraint=eastwest;" parent="28t_TmLzIudg9PH67Oan-2" vertex="1">
          <mxGeometry y="240" width="180" height="30" as="geometry" />
        </mxCell>
        <mxCell id="28t_TmLzIudg9PH67Oan-35" value="SSTORE" style="shape=partialRectangle;html=1;whiteSpace=wrap;connectable=0;fillColor=none;top=0;left=0;bottom=0;right=0;overflow=hidden;fontFamily=Source Code Pro;fontSource=https%3A%2F%2Ffonts.googleapis.com%2Fcss%3Ffamily%3DSource%2BCode%2BPro;fontStyle=4" parent="28t_TmLzIudg9PH67Oan-34" vertex="1">
          <mxGeometry width="60" height="30" as="geometry">
            <mxRectangle width="60" height="30" as="alternateBounds" />
          </mxGeometry>
        </mxCell>
        <mxCell id="28t_TmLzIudg9PH67Oan-36" value="7" style="shape=partialRectangle;html=1;whiteSpace=wrap;connectable=0;fillColor=none;top=0;left=0;bottom=0;right=0;overflow=hidden;fontFamily=Source Code Pro;fontSource=https%3A%2F%2Ffonts.googleapis.com%2Fcss%3Ffamily%3DSource%2BCode%2BPro;fontStyle=4" parent="28t_TmLzIudg9PH67Oan-34" vertex="1">
          <mxGeometry x="60" width="60" height="30" as="geometry">
            <mxRectangle width="60" height="30" as="alternateBounds" />
          </mxGeometry>
        </mxCell>
        <mxCell id="28t_TmLzIudg9PH67Oan-37" value="1" style="shape=partialRectangle;html=1;whiteSpace=wrap;connectable=0;fillColor=none;top=0;left=0;bottom=0;right=0;overflow=hidden;pointerEvents=1;fontFamily=Source Code Pro;fontSource=https%3A%2F%2Ffonts.googleapis.com%2Fcss%3Ffamily%3DSource%2BCode%2BPro;fontStyle=4" parent="28t_TmLzIudg9PH67Oan-34" vertex="1">
          <mxGeometry x="120" width="60" height="30" as="geometry">
            <mxRectangle width="60" height="30" as="alternateBounds" />
          </mxGeometry>
        </mxCell>
        <mxCell id="28t_TmLzIudg9PH67Oan-54" value="&lt;font style=&quot;font-size: 15px&quot;&gt;Bytecode circuit&lt;/font&gt;" style="text;html=1;strokeColor=none;fillColor=none;align=left;verticalAlign=middle;whiteSpace=wrap;rounded=0;fontFamily=Source Code Pro;fontSource=https%3A%2F%2Ffonts.googleapis.com%2Fcss%3Ffamily%3DSource%2BCode%2BPro;fontStyle=1" parent="1" vertex="1">
          <mxGeometry x="20" y="390" width="160" height="40" as="geometry" />
        </mxCell>
        <mxCell id="28t_TmLzIudg9PH67Oan-55" value="" style="shape=table;html=1;whiteSpace=wrap;startSize=0;container=1;collapsible=0;childLayout=tableLayout;fontFamily=Source Code Pro;fontSource=https%3A%2F%2Ffonts.googleapis.com%2Fcss%3Ffamily%3DSource%2BCode%2BPro;" parent="1" vertex="1">
          <mxGeometry x="460" y="50" width="290" height="200" as="geometry" />
        </mxCell>
        <mxCell id="28t_TmLzIudg9PH67Oan-56" value="" style="shape=tableRow;horizontal=0;startSize=0;swimlaneHead=0;swimlaneBody=0;top=0;left=0;bottom=0;right=0;collapsible=0;dropTarget=0;fillColor=none;points=[[0,0.5],[1,0.5]];portConstraint=eastwest;fontFamily=Source Code Pro;fontSource=https%3A%2F%2Ffonts.googleapis.com%2Fcss%3Ffamily%3DSource%2BCode%2BPro;" parent="28t_TmLzIudg9PH67Oan-55" vertex="1">
          <mxGeometry width="290" height="20" as="geometry" />
        </mxCell>
        <mxCell id="28t_TmLzIudg9PH67Oan-57" value="r/w" style="shape=partialRectangle;html=1;whiteSpace=wrap;connectable=0;fillColor=none;top=0;left=0;bottom=0;right=0;overflow=hidden;fontFamily=Source Code Pro;fontSource=https%3A%2F%2Ffonts.googleapis.com%2Fcss%3Ffamily%3DSource%2BCode%2BPro;fontStyle=1" parent="28t_TmLzIudg9PH67Oan-56" vertex="1">
          <mxGeometry width="40" height="20" as="geometry">
            <mxRectangle width="40" height="20" as="alternateBounds" />
          </mxGeometry>
        </mxCell>
        <mxCell id="28t_TmLzIudg9PH67Oan-58" value="tag" style="shape=partialRectangle;html=1;whiteSpace=wrap;connectable=0;fillColor=none;top=0;left=0;bottom=0;right=0;overflow=hidden;fontFamily=Source Code Pro;fontSource=https%3A%2F%2Ffonts.googleapis.com%2Fcss%3Ffamily%3DSource%2BCode%2BPro;fontStyle=1" parent="28t_TmLzIudg9PH67Oan-56" vertex="1">
          <mxGeometry x="40" width="60" height="20" as="geometry">
            <mxRectangle width="60" height="20" as="alternateBounds" />
          </mxGeometry>
        </mxCell>
        <mxCell id="28t_TmLzIudg9PH67Oan-59" value="index" style="shape=partialRectangle;html=1;whiteSpace=wrap;connectable=0;fillColor=none;top=0;left=0;bottom=0;right=0;overflow=hidden;fontFamily=Source Code Pro;fontSource=https%3A%2F%2Ffonts.googleapis.com%2Fcss%3Ffamily%3DSource%2BCode%2BPro;fontStyle=1" parent="28t_TmLzIudg9PH67Oan-56" vertex="1">
          <mxGeometry x="100" width="60" height="20" as="geometry">
            <mxRectangle width="60" height="20" as="alternateBounds" />
          </mxGeometry>
        </mxCell>
        <mxCell id="28t_TmLzIudg9PH67Oan-73" value="val" style="shape=partialRectangle;html=1;whiteSpace=wrap;connectable=0;fillColor=none;top=0;left=0;bottom=0;right=0;overflow=hidden;fontFamily=Source Code Pro;fontSource=https%3A%2F%2Ffonts.googleapis.com%2Fcss%3Ffamily%3DSource%2BCode%2BPro;fontStyle=1" parent="28t_TmLzIudg9PH67Oan-56" vertex="1">
          <mxGeometry x="160" width="40" height="20" as="geometry">
            <mxRectangle width="40" height="20" as="alternateBounds" />
          </mxGeometry>
        </mxCell>
        <mxCell id="28t_TmLzIudg9PH67Oan-76" value="*rw_counter" style="shape=partialRectangle;html=1;whiteSpace=wrap;connectable=0;fillColor=none;top=0;left=0;bottom=0;right=0;overflow=hidden;fontFamily=Source Code Pro;fontSource=https%3A%2F%2Ffonts.googleapis.com%2Fcss%3Ffamily%3DSource%2BCode%2BPro;fontStyle=1" parent="28t_TmLzIudg9PH67Oan-56" vertex="1">
          <mxGeometry x="200" width="90" height="20" as="geometry">
            <mxRectangle width="90" height="20" as="alternateBounds" />
          </mxGeometry>
        </mxCell>
        <mxCell id="28t_TmLzIudg9PH67Oan-60" value="" style="shape=tableRow;horizontal=0;startSize=0;swimlaneHead=0;swimlaneBody=0;top=0;left=0;bottom=0;right=0;collapsible=0;dropTarget=0;fillColor=none;points=[[0,0.5],[1,0.5]];portConstraint=eastwest;fontFamily=Source Code Pro;fontSource=https%3A%2F%2Ffonts.googleapis.com%2Fcss%3Ffamily%3DSource%2BCode%2BPro;" parent="28t_TmLzIudg9PH67Oan-55" vertex="1">
          <mxGeometry y="20" width="290" height="20" as="geometry" />
        </mxCell>
        <mxCell id="28t_TmLzIudg9PH67Oan-61" value="w" style="shape=partialRectangle;html=1;whiteSpace=wrap;connectable=0;fillColor=none;top=0;left=0;bottom=0;right=0;overflow=hidden;fontFamily=Source Code Pro;fontSource=https%3A%2F%2Ffonts.googleapis.com%2Fcss%3Ffamily%3DSource%2BCode%2BPro;" parent="28t_TmLzIudg9PH67Oan-60" vertex="1">
          <mxGeometry width="40" height="20" as="geometry">
            <mxRectangle width="40" height="20" as="alternateBounds" />
          </mxGeometry>
        </mxCell>
        <mxCell id="28t_TmLzIudg9PH67Oan-62" value="stack" style="shape=partialRectangle;html=1;whiteSpace=wrap;connectable=0;fillColor=none;top=0;left=0;bottom=0;right=0;overflow=hidden;fontFamily=Source Code Pro;fontSource=https%3A%2F%2Ffonts.googleapis.com%2Fcss%3Ffamily%3DSource%2BCode%2BPro;" parent="28t_TmLzIudg9PH67Oan-60" vertex="1">
          <mxGeometry x="40" width="60" height="20" as="geometry">
            <mxRectangle width="60" height="20" as="alternateBounds" />
          </mxGeometry>
        </mxCell>
        <mxCell id="28t_TmLzIudg9PH67Oan-63" value="1023" style="shape=partialRectangle;html=1;whiteSpace=wrap;connectable=0;fillColor=none;top=0;left=0;bottom=0;right=0;overflow=hidden;fontFamily=Source Code Pro;fontSource=https%3A%2F%2Ffonts.googleapis.com%2Fcss%3Ffamily%3DSource%2BCode%2BPro;" parent="28t_TmLzIudg9PH67Oan-60" vertex="1">
          <mxGeometry x="100" width="60" height="20" as="geometry">
            <mxRectangle width="60" height="20" as="alternateBounds" />
          </mxGeometry>
        </mxCell>
        <mxCell id="28t_TmLzIudg9PH67Oan-74" value="2" style="shape=partialRectangle;html=1;whiteSpace=wrap;connectable=0;fillColor=none;top=0;left=0;bottom=0;right=0;overflow=hidden;fontFamily=Source Code Pro;fontSource=https%3A%2F%2Ffonts.googleapis.com%2Fcss%3Ffamily%3DSource%2BCode%2BPro;" parent="28t_TmLzIudg9PH67Oan-60" vertex="1">
          <mxGeometry x="160" width="40" height="20" as="geometry">
            <mxRectangle width="40" height="20" as="alternateBounds" />
          </mxGeometry>
        </mxCell>
        <mxCell id="28t_TmLzIudg9PH67Oan-77" value="1" style="shape=partialRectangle;html=1;whiteSpace=wrap;connectable=0;fillColor=none;top=0;left=0;bottom=0;right=0;overflow=hidden;fontFamily=Source Code Pro;fontSource=https%3A%2F%2Ffonts.googleapis.com%2Fcss%3Ffamily%3DSource%2BCode%2BPro;" parent="28t_TmLzIudg9PH67Oan-60" vertex="1">
          <mxGeometry x="200" width="90" height="20" as="geometry">
            <mxRectangle width="90" height="20" as="alternateBounds" />
          </mxGeometry>
        </mxCell>
        <mxCell id="28t_TmLzIudg9PH67Oan-91" style="shape=tableRow;horizontal=0;startSize=0;swimlaneHead=0;swimlaneBody=0;top=0;left=0;bottom=0;right=0;collapsible=0;dropTarget=0;fillColor=none;points=[[0,0.5],[1,0.5]];portConstraint=eastwest;fontFamily=Source Code Pro;fontSource=https%3A%2F%2Ffonts.googleapis.com%2Fcss%3Ffamily%3DSource%2BCode%2BPro;" parent="28t_TmLzIudg9PH67Oan-55" vertex="1">
          <mxGeometry y="40" width="290" height="20" as="geometry" />
        </mxCell>
        <mxCell id="28t_TmLzIudg9PH67Oan-92" value="w" style="shape=partialRectangle;html=1;whiteSpace=wrap;connectable=0;fillColor=none;top=0;left=0;bottom=0;right=0;overflow=hidden;fontFamily=Source Code Pro;fontSource=https%3A%2F%2Ffonts.googleapis.com%2Fcss%3Ffamily%3DSource%2BCode%2BPro;" parent="28t_TmLzIudg9PH67Oan-91" vertex="1">
          <mxGeometry width="40" height="20" as="geometry">
            <mxRectangle width="40" height="20" as="alternateBounds" />
          </mxGeometry>
        </mxCell>
        <mxCell id="28t_TmLzIudg9PH67Oan-93" value="stack" style="shape=partialRectangle;html=1;whiteSpace=wrap;connectable=0;fillColor=none;top=0;left=0;bottom=0;right=0;overflow=hidden;fontFamily=Source Code Pro;fontSource=https%3A%2F%2Ffonts.googleapis.com%2Fcss%3Ffamily%3DSource%2BCode%2BPro;" parent="28t_TmLzIudg9PH67Oan-91" vertex="1">
          <mxGeometry x="40" width="60" height="20" as="geometry">
            <mxRectangle width="60" height="20" as="alternateBounds" />
          </mxGeometry>
        </mxCell>
        <mxCell id="28t_TmLzIudg9PH67Oan-94" value="1022" style="shape=partialRectangle;html=1;whiteSpace=wrap;connectable=0;fillColor=none;top=0;left=0;bottom=0;right=0;overflow=hidden;fontFamily=Source Code Pro;fontSource=https%3A%2F%2Ffonts.googleapis.com%2Fcss%3Ffamily%3DSource%2BCode%2BPro;" parent="28t_TmLzIudg9PH67Oan-91" vertex="1">
          <mxGeometry x="100" width="60" height="20" as="geometry">
            <mxRectangle width="60" height="20" as="alternateBounds" />
          </mxGeometry>
        </mxCell>
        <mxCell id="28t_TmLzIudg9PH67Oan-95" value="4" style="shape=partialRectangle;html=1;whiteSpace=wrap;connectable=0;fillColor=none;top=0;left=0;bottom=0;right=0;overflow=hidden;fontFamily=Source Code Pro;fontSource=https%3A%2F%2Ffonts.googleapis.com%2Fcss%3Ffamily%3DSource%2BCode%2BPro;" parent="28t_TmLzIudg9PH67Oan-91" vertex="1">
          <mxGeometry x="160" width="40" height="20" as="geometry">
            <mxRectangle width="40" height="20" as="alternateBounds" />
          </mxGeometry>
        </mxCell>
        <mxCell id="28t_TmLzIudg9PH67Oan-96" value="2" style="shape=partialRectangle;html=1;whiteSpace=wrap;connectable=0;fillColor=none;top=0;left=0;bottom=0;right=0;overflow=hidden;fontFamily=Source Code Pro;fontSource=https%3A%2F%2Ffonts.googleapis.com%2Fcss%3Ffamily%3DSource%2BCode%2BPro;" parent="28t_TmLzIudg9PH67Oan-91" vertex="1">
          <mxGeometry x="200" width="90" height="20" as="geometry">
            <mxRectangle width="90" height="20" as="alternateBounds" />
          </mxGeometry>
        </mxCell>
        <mxCell id="28t_TmLzIudg9PH67Oan-145" style="shape=tableRow;horizontal=0;startSize=0;swimlaneHead=0;swimlaneBody=0;top=0;left=0;bottom=0;right=0;collapsible=0;dropTarget=0;fillColor=none;points=[[0,0.5],[1,0.5]];portConstraint=eastwest;fontFamily=Source Code Pro;fontSource=https%3A%2F%2Ffonts.googleapis.com%2Fcss%3Ffamily%3DSource%2BCode%2BPro;" parent="28t_TmLzIudg9PH67Oan-55" vertex="1">
          <mxGeometry y="60" width="290" height="20" as="geometry" />
        </mxCell>
        <mxCell id="28t_TmLzIudg9PH67Oan-146" value="r" style="shape=partialRectangle;html=1;whiteSpace=wrap;connectable=0;fillColor=none;top=0;left=0;bottom=0;right=0;overflow=hidden;fontFamily=Source Code Pro;fontSource=https%3A%2F%2Ffonts.googleapis.com%2Fcss%3Ffamily%3DSource%2BCode%2BPro;" parent="28t_TmLzIudg9PH67Oan-145" vertex="1">
          <mxGeometry width="40" height="20" as="geometry">
            <mxRectangle width="40" height="20" as="alternateBounds" />
          </mxGeometry>
        </mxCell>
        <mxCell id="28t_TmLzIudg9PH67Oan-147" value="stack" style="shape=partialRectangle;html=1;whiteSpace=wrap;connectable=0;fillColor=none;top=0;left=0;bottom=0;right=0;overflow=hidden;fontFamily=Source Code Pro;fontSource=https%3A%2F%2Ffonts.googleapis.com%2Fcss%3Ffamily%3DSource%2BCode%2BPro;" parent="28t_TmLzIudg9PH67Oan-145" vertex="1">
          <mxGeometry x="40" width="60" height="20" as="geometry">
            <mxRectangle width="60" height="20" as="alternateBounds" />
          </mxGeometry>
        </mxCell>
        <mxCell id="28t_TmLzIudg9PH67Oan-148" value="1022" style="shape=partialRectangle;html=1;whiteSpace=wrap;connectable=0;fillColor=none;top=0;left=0;bottom=0;right=0;overflow=hidden;fontFamily=Source Code Pro;fontSource=https%3A%2F%2Ffonts.googleapis.com%2Fcss%3Ffamily%3DSource%2BCode%2BPro;" parent="28t_TmLzIudg9PH67Oan-145" vertex="1">
          <mxGeometry x="100" width="60" height="20" as="geometry">
            <mxRectangle width="60" height="20" as="alternateBounds" />
          </mxGeometry>
        </mxCell>
        <mxCell id="28t_TmLzIudg9PH67Oan-149" value="4" style="shape=partialRectangle;html=1;whiteSpace=wrap;connectable=0;fillColor=none;top=0;left=0;bottom=0;right=0;overflow=hidden;fontFamily=Source Code Pro;fontSource=https%3A%2F%2Ffonts.googleapis.com%2Fcss%3Ffamily%3DSource%2BCode%2BPro;" parent="28t_TmLzIudg9PH67Oan-145" vertex="1">
          <mxGeometry x="160" width="40" height="20" as="geometry">
            <mxRectangle width="40" height="20" as="alternateBounds" />
          </mxGeometry>
        </mxCell>
        <mxCell id="28t_TmLzIudg9PH67Oan-150" value="3" style="shape=partialRectangle;html=1;whiteSpace=wrap;connectable=0;fillColor=none;top=0;left=0;bottom=0;right=0;overflow=hidden;fontFamily=Source Code Pro;fontSource=https%3A%2F%2Ffonts.googleapis.com%2Fcss%3Ffamily%3DSource%2BCode%2BPro;" parent="28t_TmLzIudg9PH67Oan-145" vertex="1">
          <mxGeometry x="200" width="90" height="20" as="geometry">
            <mxRectangle width="90" height="20" as="alternateBounds" />
          </mxGeometry>
        </mxCell>
        <mxCell id="28t_TmLzIudg9PH67Oan-139" style="shape=tableRow;horizontal=0;startSize=0;swimlaneHead=0;swimlaneBody=0;top=0;left=0;bottom=0;right=0;collapsible=0;dropTarget=0;fillColor=none;points=[[0,0.5],[1,0.5]];portConstraint=eastwest;fontFamily=Source Code Pro;fontSource=https%3A%2F%2Ffonts.googleapis.com%2Fcss%3Ffamily%3DSource%2BCode%2BPro;" parent="28t_TmLzIudg9PH67Oan-55" vertex="1">
          <mxGeometry y="80" width="290" height="20" as="geometry" />
        </mxCell>
        <mxCell id="28t_TmLzIudg9PH67Oan-140" value="r" style="shape=partialRectangle;html=1;whiteSpace=wrap;connectable=0;fillColor=none;top=0;left=0;bottom=0;right=0;overflow=hidden;fontFamily=Source Code Pro;fontSource=https%3A%2F%2Ffonts.googleapis.com%2Fcss%3Ffamily%3DSource%2BCode%2BPro;" parent="28t_TmLzIudg9PH67Oan-139" vertex="1">
          <mxGeometry width="40" height="20" as="geometry">
            <mxRectangle width="40" height="20" as="alternateBounds" />
          </mxGeometry>
        </mxCell>
        <mxCell id="28t_TmLzIudg9PH67Oan-141" value="stack" style="shape=partialRectangle;html=1;whiteSpace=wrap;connectable=0;fillColor=none;top=0;left=0;bottom=0;right=0;overflow=hidden;fontFamily=Source Code Pro;fontSource=https%3A%2F%2Ffonts.googleapis.com%2Fcss%3Ffamily%3DSource%2BCode%2BPro;" parent="28t_TmLzIudg9PH67Oan-139" vertex="1">
          <mxGeometry x="40" width="60" height="20" as="geometry">
            <mxRectangle width="60" height="20" as="alternateBounds" />
          </mxGeometry>
        </mxCell>
        <mxCell id="28t_TmLzIudg9PH67Oan-142" value="1023" style="shape=partialRectangle;html=1;whiteSpace=wrap;connectable=0;fillColor=none;top=0;left=0;bottom=0;right=0;overflow=hidden;fontFamily=Source Code Pro;fontSource=https%3A%2F%2Ffonts.googleapis.com%2Fcss%3Ffamily%3DSource%2BCode%2BPro;" parent="28t_TmLzIudg9PH67Oan-139" vertex="1">
          <mxGeometry x="100" width="60" height="20" as="geometry">
            <mxRectangle width="60" height="20" as="alternateBounds" />
          </mxGeometry>
        </mxCell>
        <mxCell id="28t_TmLzIudg9PH67Oan-143" value="2" style="shape=partialRectangle;html=1;whiteSpace=wrap;connectable=0;fillColor=none;top=0;left=0;bottom=0;right=0;overflow=hidden;fontFamily=Source Code Pro;fontSource=https%3A%2F%2Ffonts.googleapis.com%2Fcss%3Ffamily%3DSource%2BCode%2BPro;" parent="28t_TmLzIudg9PH67Oan-139" vertex="1">
          <mxGeometry x="160" width="40" height="20" as="geometry">
            <mxRectangle width="40" height="20" as="alternateBounds" />
          </mxGeometry>
        </mxCell>
        <mxCell id="28t_TmLzIudg9PH67Oan-144" value="4" style="shape=partialRectangle;html=1;whiteSpace=wrap;connectable=0;fillColor=none;top=0;left=0;bottom=0;right=0;overflow=hidden;fontFamily=Source Code Pro;fontSource=https%3A%2F%2Ffonts.googleapis.com%2Fcss%3Ffamily%3DSource%2BCode%2BPro;" parent="28t_TmLzIudg9PH67Oan-139" vertex="1">
          <mxGeometry x="200" width="90" height="20" as="geometry">
            <mxRectangle width="90" height="20" as="alternateBounds" />
          </mxGeometry>
        </mxCell>
        <mxCell id="28t_TmLzIudg9PH67Oan-133" style="shape=tableRow;horizontal=0;startSize=0;swimlaneHead=0;swimlaneBody=0;top=0;left=0;bottom=0;right=0;collapsible=0;dropTarget=0;fillColor=none;points=[[0,0.5],[1,0.5]];portConstraint=eastwest;fontFamily=Source Code Pro;fontSource=https%3A%2F%2Ffonts.googleapis.com%2Fcss%3Ffamily%3DSource%2BCode%2BPro;" parent="28t_TmLzIudg9PH67Oan-55" vertex="1">
          <mxGeometry y="100" width="290" height="20" as="geometry" />
        </mxCell>
        <mxCell id="28t_TmLzIudg9PH67Oan-134" value="w" style="shape=partialRectangle;html=1;whiteSpace=wrap;connectable=0;fillColor=none;top=0;left=0;bottom=0;right=0;overflow=hidden;fontFamily=Source Code Pro;fontSource=https%3A%2F%2Ffonts.googleapis.com%2Fcss%3Ffamily%3DSource%2BCode%2BPro;" parent="28t_TmLzIudg9PH67Oan-133" vertex="1">
          <mxGeometry width="40" height="20" as="geometry">
            <mxRectangle width="40" height="20" as="alternateBounds" />
          </mxGeometry>
        </mxCell>
        <mxCell id="28t_TmLzIudg9PH67Oan-135" value="stack" style="shape=partialRectangle;html=1;whiteSpace=wrap;connectable=0;fillColor=none;top=0;left=0;bottom=0;right=0;overflow=hidden;fontFamily=Source Code Pro;fontSource=https%3A%2F%2Ffonts.googleapis.com%2Fcss%3Ffamily%3DSource%2BCode%2BPro;" parent="28t_TmLzIudg9PH67Oan-133" vertex="1">
          <mxGeometry x="40" width="60" height="20" as="geometry">
            <mxRectangle width="60" height="20" as="alternateBounds" />
          </mxGeometry>
        </mxCell>
        <mxCell id="28t_TmLzIudg9PH67Oan-136" value="1023" style="shape=partialRectangle;html=1;whiteSpace=wrap;connectable=0;fillColor=none;top=0;left=0;bottom=0;right=0;overflow=hidden;fontFamily=Source Code Pro;fontSource=https%3A%2F%2Ffonts.googleapis.com%2Fcss%3Ffamily%3DSource%2BCode%2BPro;" parent="28t_TmLzIudg9PH67Oan-133" vertex="1">
          <mxGeometry x="100" width="60" height="20" as="geometry">
            <mxRectangle width="60" height="20" as="alternateBounds" />
          </mxGeometry>
        </mxCell>
        <mxCell id="28t_TmLzIudg9PH67Oan-137" value="6" style="shape=partialRectangle;html=1;whiteSpace=wrap;connectable=0;fillColor=none;top=0;left=0;bottom=0;right=0;overflow=hidden;fontFamily=Source Code Pro;fontSource=https%3A%2F%2Ffonts.googleapis.com%2Fcss%3Ffamily%3DSource%2BCode%2BPro;" parent="28t_TmLzIudg9PH67Oan-133" vertex="1">
          <mxGeometry x="160" width="40" height="20" as="geometry">
            <mxRectangle width="40" height="20" as="alternateBounds" />
          </mxGeometry>
        </mxCell>
        <mxCell id="28t_TmLzIudg9PH67Oan-138" value="5" style="shape=partialRectangle;html=1;whiteSpace=wrap;connectable=0;fillColor=none;top=0;left=0;bottom=0;right=0;overflow=hidden;fontFamily=Source Code Pro;fontSource=https%3A%2F%2Ffonts.googleapis.com%2Fcss%3Ffamily%3DSource%2BCode%2BPro;" parent="28t_TmLzIudg9PH67Oan-133" vertex="1">
          <mxGeometry x="200" width="90" height="20" as="geometry">
            <mxRectangle width="90" height="20" as="alternateBounds" />
          </mxGeometry>
        </mxCell>
        <mxCell id="28t_TmLzIudg9PH67Oan-127" style="shape=tableRow;horizontal=0;startSize=0;swimlaneHead=0;swimlaneBody=0;top=0;left=0;bottom=0;right=0;collapsible=0;dropTarget=0;fillColor=none;points=[[0,0.5],[1,0.5]];portConstraint=eastwest;fontFamily=Source Code Pro;fontSource=https%3A%2F%2Ffonts.googleapis.com%2Fcss%3Ffamily%3DSource%2BCode%2BPro;" parent="28t_TmLzIudg9PH67Oan-55" vertex="1">
          <mxGeometry y="120" width="290" height="20" as="geometry" />
        </mxCell>
        <mxCell id="28t_TmLzIudg9PH67Oan-128" value="w" style="shape=partialRectangle;html=1;whiteSpace=wrap;connectable=0;fillColor=none;top=0;left=0;bottom=0;right=0;overflow=hidden;fontFamily=Source Code Pro;fontSource=https%3A%2F%2Ffonts.googleapis.com%2Fcss%3Ffamily%3DSource%2BCode%2BPro;" parent="28t_TmLzIudg9PH67Oan-127" vertex="1">
          <mxGeometry width="40" height="20" as="geometry">
            <mxRectangle width="40" height="20" as="alternateBounds" />
          </mxGeometry>
        </mxCell>
        <mxCell id="28t_TmLzIudg9PH67Oan-129" value="stack" style="shape=partialRectangle;html=1;whiteSpace=wrap;connectable=0;fillColor=none;top=0;left=0;bottom=0;right=0;overflow=hidden;fontFamily=Source Code Pro;fontSource=https%3A%2F%2Ffonts.googleapis.com%2Fcss%3Ffamily%3DSource%2BCode%2BPro;" parent="28t_TmLzIudg9PH67Oan-127" vertex="1">
          <mxGeometry x="40" width="60" height="20" as="geometry">
            <mxRectangle width="60" height="20" as="alternateBounds" />
          </mxGeometry>
        </mxCell>
        <mxCell id="28t_TmLzIudg9PH67Oan-130" value="1022" style="shape=partialRectangle;html=1;whiteSpace=wrap;connectable=0;fillColor=none;top=0;left=0;bottom=0;right=0;overflow=hidden;fontFamily=Source Code Pro;fontSource=https%3A%2F%2Ffonts.googleapis.com%2Fcss%3Ffamily%3DSource%2BCode%2BPro;" parent="28t_TmLzIudg9PH67Oan-127" vertex="1">
          <mxGeometry x="100" width="60" height="20" as="geometry">
            <mxRectangle width="60" height="20" as="alternateBounds" />
          </mxGeometry>
        </mxCell>
        <mxCell id="28t_TmLzIudg9PH67Oan-131" value="3" style="shape=partialRectangle;html=1;whiteSpace=wrap;connectable=0;fillColor=none;top=0;left=0;bottom=0;right=0;overflow=hidden;fontFamily=Source Code Pro;fontSource=https%3A%2F%2Ffonts.googleapis.com%2Fcss%3Ffamily%3DSource%2BCode%2BPro;" parent="28t_TmLzIudg9PH67Oan-127" vertex="1">
          <mxGeometry x="160" width="40" height="20" as="geometry">
            <mxRectangle width="40" height="20" as="alternateBounds" />
          </mxGeometry>
        </mxCell>
        <mxCell id="28t_TmLzIudg9PH67Oan-132" value="6" style="shape=partialRectangle;html=1;whiteSpace=wrap;connectable=0;fillColor=none;top=0;left=0;bottom=0;right=0;overflow=hidden;fontFamily=Source Code Pro;fontSource=https%3A%2F%2Ffonts.googleapis.com%2Fcss%3Ffamily%3DSource%2BCode%2BPro;" parent="28t_TmLzIudg9PH67Oan-127" vertex="1">
          <mxGeometry x="200" width="90" height="20" as="geometry">
            <mxRectangle width="90" height="20" as="alternateBounds" />
          </mxGeometry>
        </mxCell>
        <mxCell id="28t_TmLzIudg9PH67Oan-121" style="shape=tableRow;horizontal=0;startSize=0;swimlaneHead=0;swimlaneBody=0;top=0;left=0;bottom=0;right=0;collapsible=0;dropTarget=0;fillColor=none;points=[[0,0.5],[1,0.5]];portConstraint=eastwest;fontFamily=Source Code Pro;fontSource=https%3A%2F%2Ffonts.googleapis.com%2Fcss%3Ffamily%3DSource%2BCode%2BPro;" parent="28t_TmLzIudg9PH67Oan-55" vertex="1">
          <mxGeometry y="140" width="290" height="20" as="geometry" />
        </mxCell>
        <mxCell id="28t_TmLzIudg9PH67Oan-122" value="r" style="shape=partialRectangle;html=1;whiteSpace=wrap;connectable=0;fillColor=none;top=0;left=0;bottom=0;right=0;overflow=hidden;fontFamily=Source Code Pro;fontSource=https%3A%2F%2Ffonts.googleapis.com%2Fcss%3Ffamily%3DSource%2BCode%2BPro;" parent="28t_TmLzIudg9PH67Oan-121" vertex="1">
          <mxGeometry width="40" height="20" as="geometry">
            <mxRectangle width="40" height="20" as="alternateBounds" />
          </mxGeometry>
        </mxCell>
        <mxCell id="28t_TmLzIudg9PH67Oan-123" value="stack" style="shape=partialRectangle;html=1;whiteSpace=wrap;connectable=0;fillColor=none;top=0;left=0;bottom=0;right=0;overflow=hidden;fontFamily=Source Code Pro;fontSource=https%3A%2F%2Ffonts.googleapis.com%2Fcss%3Ffamily%3DSource%2BCode%2BPro;" parent="28t_TmLzIudg9PH67Oan-121" vertex="1">
          <mxGeometry x="40" width="60" height="20" as="geometry">
            <mxRectangle width="60" height="20" as="alternateBounds" />
          </mxGeometry>
        </mxCell>
        <mxCell id="28t_TmLzIudg9PH67Oan-124" value="1022" style="shape=partialRectangle;html=1;whiteSpace=wrap;connectable=0;fillColor=none;top=0;left=0;bottom=0;right=0;overflow=hidden;fontFamily=Source Code Pro;fontSource=https%3A%2F%2Ffonts.googleapis.com%2Fcss%3Ffamily%3DSource%2BCode%2BPro;" parent="28t_TmLzIudg9PH67Oan-121" vertex="1">
          <mxGeometry x="100" width="60" height="20" as="geometry">
            <mxRectangle width="60" height="20" as="alternateBounds" />
          </mxGeometry>
        </mxCell>
        <mxCell id="28t_TmLzIudg9PH67Oan-125" value="3" style="shape=partialRectangle;html=1;whiteSpace=wrap;connectable=0;fillColor=none;top=0;left=0;bottom=0;right=0;overflow=hidden;fontFamily=Source Code Pro;fontSource=https%3A%2F%2Ffonts.googleapis.com%2Fcss%3Ffamily%3DSource%2BCode%2BPro;" parent="28t_TmLzIudg9PH67Oan-121" vertex="1">
          <mxGeometry x="160" width="40" height="20" as="geometry">
            <mxRectangle width="40" height="20" as="alternateBounds" />
          </mxGeometry>
        </mxCell>
        <mxCell id="28t_TmLzIudg9PH67Oan-126" value="7" style="shape=partialRectangle;html=1;whiteSpace=wrap;connectable=0;fillColor=none;top=0;left=0;bottom=0;right=0;overflow=hidden;fontFamily=Source Code Pro;fontSource=https%3A%2F%2Ffonts.googleapis.com%2Fcss%3Ffamily%3DSource%2BCode%2BPro;" parent="28t_TmLzIudg9PH67Oan-121" vertex="1">
          <mxGeometry x="200" width="90" height="20" as="geometry">
            <mxRectangle width="90" height="20" as="alternateBounds" />
          </mxGeometry>
        </mxCell>
        <mxCell id="28t_TmLzIudg9PH67Oan-115" style="shape=tableRow;horizontal=0;startSize=0;swimlaneHead=0;swimlaneBody=0;top=0;left=0;bottom=0;right=0;collapsible=0;dropTarget=0;fillColor=none;points=[[0,0.5],[1,0.5]];portConstraint=eastwest;fontFamily=Source Code Pro;fontSource=https%3A%2F%2Ffonts.googleapis.com%2Fcss%3Ffamily%3DSource%2BCode%2BPro;" parent="28t_TmLzIudg9PH67Oan-55" vertex="1">
          <mxGeometry y="160" width="290" height="20" as="geometry" />
        </mxCell>
        <mxCell id="28t_TmLzIudg9PH67Oan-116" value="r" style="shape=partialRectangle;html=1;whiteSpace=wrap;connectable=0;fillColor=none;top=0;left=0;bottom=0;right=0;overflow=hidden;fontFamily=Source Code Pro;fontSource=https%3A%2F%2Ffonts.googleapis.com%2Fcss%3Ffamily%3DSource%2BCode%2BPro;" parent="28t_TmLzIudg9PH67Oan-115" vertex="1">
          <mxGeometry width="40" height="20" as="geometry">
            <mxRectangle width="40" height="20" as="alternateBounds" />
          </mxGeometry>
        </mxCell>
        <mxCell id="28t_TmLzIudg9PH67Oan-117" value="stack" style="shape=partialRectangle;html=1;whiteSpace=wrap;connectable=0;fillColor=none;top=0;left=0;bottom=0;right=0;overflow=hidden;fontFamily=Source Code Pro;fontSource=https%3A%2F%2Ffonts.googleapis.com%2Fcss%3Ffamily%3DSource%2BCode%2BPro;" parent="28t_TmLzIudg9PH67Oan-115" vertex="1">
          <mxGeometry x="40" width="60" height="20" as="geometry">
            <mxRectangle width="60" height="20" as="alternateBounds" />
          </mxGeometry>
        </mxCell>
        <mxCell id="28t_TmLzIudg9PH67Oan-118" value="1023" style="shape=partialRectangle;html=1;whiteSpace=wrap;connectable=0;fillColor=none;top=0;left=0;bottom=0;right=0;overflow=hidden;fontFamily=Source Code Pro;fontSource=https%3A%2F%2Ffonts.googleapis.com%2Fcss%3Ffamily%3DSource%2BCode%2BPro;" parent="28t_TmLzIudg9PH67Oan-115" vertex="1">
          <mxGeometry x="100" width="60" height="20" as="geometry">
            <mxRectangle width="60" height="20" as="alternateBounds" />
          </mxGeometry>
        </mxCell>
        <mxCell id="28t_TmLzIudg9PH67Oan-119" value="6" style="shape=partialRectangle;html=1;whiteSpace=wrap;connectable=0;fillColor=none;top=0;left=0;bottom=0;right=0;overflow=hidden;fontFamily=Source Code Pro;fontSource=https%3A%2F%2Ffonts.googleapis.com%2Fcss%3Ffamily%3DSource%2BCode%2BPro;" parent="28t_TmLzIudg9PH67Oan-115" vertex="1">
          <mxGeometry x="160" width="40" height="20" as="geometry">
            <mxRectangle width="40" height="20" as="alternateBounds" />
          </mxGeometry>
        </mxCell>
        <mxCell id="28t_TmLzIudg9PH67Oan-120" value="8" style="shape=partialRectangle;html=1;whiteSpace=wrap;connectable=0;fillColor=none;top=0;left=0;bottom=0;right=0;overflow=hidden;fontFamily=Source Code Pro;fontSource=https%3A%2F%2Ffonts.googleapis.com%2Fcss%3Ffamily%3DSource%2BCode%2BPro;" parent="28t_TmLzIudg9PH67Oan-115" vertex="1">
          <mxGeometry x="200" width="90" height="20" as="geometry">
            <mxRectangle width="90" height="20" as="alternateBounds" />
          </mxGeometry>
        </mxCell>
        <mxCell id="28t_TmLzIudg9PH67Oan-109" style="shape=tableRow;horizontal=0;startSize=0;swimlaneHead=0;swimlaneBody=0;top=0;left=0;bottom=0;right=0;collapsible=0;dropTarget=0;fillColor=none;points=[[0,0.5],[1,0.5]];portConstraint=eastwest;fontFamily=Source Code Pro;fontSource=https%3A%2F%2Ffonts.googleapis.com%2Fcss%3Ffamily%3DSource%2BCode%2BPro;" parent="28t_TmLzIudg9PH67Oan-55" vertex="1">
          <mxGeometry y="180" width="290" height="20" as="geometry" />
        </mxCell>
        <mxCell id="28t_TmLzIudg9PH67Oan-110" value="w" style="shape=partialRectangle;html=1;whiteSpace=wrap;connectable=0;fillColor=none;top=0;left=0;bottom=0;right=0;overflow=hidden;fontFamily=Source Code Pro;fontSource=https%3A%2F%2Ffonts.googleapis.com%2Fcss%3Ffamily%3DSource%2BCode%2BPro;" parent="28t_TmLzIudg9PH67Oan-109" vertex="1">
          <mxGeometry width="40" height="20" as="geometry">
            <mxRectangle width="40" height="20" as="alternateBounds" />
          </mxGeometry>
        </mxCell>
        <mxCell id="28t_TmLzIudg9PH67Oan-111" value="storage" style="shape=partialRectangle;html=1;whiteSpace=wrap;connectable=0;fillColor=none;top=0;left=0;bottom=0;right=0;overflow=hidden;fontFamily=Source Code Pro;fontSource=https%3A%2F%2Ffonts.googleapis.com%2Fcss%3Ffamily%3DSource%2BCode%2BPro;" parent="28t_TmLzIudg9PH67Oan-109" vertex="1">
          <mxGeometry x="40" width="60" height="20" as="geometry">
            <mxRectangle width="60" height="20" as="alternateBounds" />
          </mxGeometry>
        </mxCell>
        <mxCell id="28t_TmLzIudg9PH67Oan-112" value="3" style="shape=partialRectangle;html=1;whiteSpace=wrap;connectable=0;fillColor=none;top=0;left=0;bottom=0;right=0;overflow=hidden;fontFamily=Source Code Pro;fontSource=https%3A%2F%2Ffonts.googleapis.com%2Fcss%3Ffamily%3DSource%2BCode%2BPro;" parent="28t_TmLzIudg9PH67Oan-109" vertex="1">
          <mxGeometry x="100" width="60" height="20" as="geometry">
            <mxRectangle width="60" height="20" as="alternateBounds" />
          </mxGeometry>
        </mxCell>
        <mxCell id="28t_TmLzIudg9PH67Oan-113" value="6" style="shape=partialRectangle;html=1;whiteSpace=wrap;connectable=0;fillColor=none;top=0;left=0;bottom=0;right=0;overflow=hidden;fontFamily=Source Code Pro;fontSource=https%3A%2F%2Ffonts.googleapis.com%2Fcss%3Ffamily%3DSource%2BCode%2BPro;" parent="28t_TmLzIudg9PH67Oan-109" vertex="1">
          <mxGeometry x="160" width="40" height="20" as="geometry">
            <mxRectangle width="40" height="20" as="alternateBounds" />
          </mxGeometry>
        </mxCell>
        <mxCell id="28t_TmLzIudg9PH67Oan-114" value="9" style="shape=partialRectangle;html=1;whiteSpace=wrap;connectable=0;fillColor=none;top=0;left=0;bottom=0;right=0;overflow=hidden;fontFamily=Source Code Pro;fontSource=https%3A%2F%2Ffonts.googleapis.com%2Fcss%3Ffamily%3DSource%2BCode%2BPro;" parent="28t_TmLzIudg9PH67Oan-109" vertex="1">
          <mxGeometry x="200" width="90" height="20" as="geometry">
            <mxRectangle width="90" height="20" as="alternateBounds" />
          </mxGeometry>
        </mxCell>
        <mxCell id="28t_TmLzIudg9PH67Oan-68" value="generated rw_table" style="text;html=1;strokeColor=none;fillColor=none;align=left;verticalAlign=middle;whiteSpace=wrap;rounded=0;fontFamily=Source Code Pro;fontSource=https%3A%2F%2Ffonts.googleapis.com%2Fcss%3Ffamily%3DSource%2BCode%2BPro;" parent="1" vertex="1">
          <mxGeometry x="460" y="30" width="180" height="30" as="geometry" />
        </mxCell>
        <mxCell id="28t_TmLzIudg9PH67Oan-163" value="" style="shape=table;html=1;whiteSpace=wrap;startSize=0;container=1;collapsible=0;childLayout=tableLayout;fontFamily=Source Code Pro;fontSource=https%3A%2F%2Ffonts.googleapis.com%2Fcss%3Ffamily%3DSource%2BCode%2BPro;" parent="1" vertex="1">
          <mxGeometry x="460" y="340" width="290" height="200" as="geometry" />
        </mxCell>
        <mxCell id="28t_TmLzIudg9PH67Oan-164" value="" style="shape=tableRow;horizontal=0;startSize=0;swimlaneHead=0;swimlaneBody=0;top=0;left=0;bottom=0;right=0;collapsible=0;dropTarget=0;fillColor=none;points=[[0,0.5],[1,0.5]];portConstraint=eastwest;fontFamily=Source Code Pro;fontSource=https%3A%2F%2Ffonts.googleapis.com%2Fcss%3Ffamily%3DSource%2BCode%2BPro;" parent="28t_TmLzIudg9PH67Oan-163" vertex="1">
          <mxGeometry width="290" height="20" as="geometry" />
        </mxCell>
        <mxCell id="28t_TmLzIudg9PH67Oan-165" value="r/w" style="shape=partialRectangle;html=1;whiteSpace=wrap;connectable=0;fillColor=none;top=0;left=0;bottom=0;right=0;overflow=hidden;fontFamily=Source Code Pro;fontSource=https%3A%2F%2Ffonts.googleapis.com%2Fcss%3Ffamily%3DSource%2BCode%2BPro;fontStyle=1" parent="28t_TmLzIudg9PH67Oan-164" vertex="1">
          <mxGeometry width="40" height="20" as="geometry">
            <mxRectangle width="40" height="20" as="alternateBounds" />
          </mxGeometry>
        </mxCell>
        <mxCell id="28t_TmLzIudg9PH67Oan-166" value="*tag" style="shape=partialRectangle;html=1;whiteSpace=wrap;connectable=0;fillColor=none;top=0;left=0;bottom=0;right=0;overflow=hidden;fontFamily=Source Code Pro;fontSource=https%3A%2F%2Ffonts.googleapis.com%2Fcss%3Ffamily%3DSource%2BCode%2BPro;fontStyle=1" parent="28t_TmLzIudg9PH67Oan-164" vertex="1">
          <mxGeometry x="40" width="60" height="20" as="geometry">
            <mxRectangle width="60" height="20" as="alternateBounds" />
          </mxGeometry>
        </mxCell>
        <mxCell id="28t_TmLzIudg9PH67Oan-167" value="*index" style="shape=partialRectangle;html=1;whiteSpace=wrap;connectable=0;fillColor=none;top=0;left=0;bottom=0;right=0;overflow=hidden;fontFamily=Source Code Pro;fontSource=https%3A%2F%2Ffonts.googleapis.com%2Fcss%3Ffamily%3DSource%2BCode%2BPro;fontStyle=1" parent="28t_TmLzIudg9PH67Oan-164" vertex="1">
          <mxGeometry x="100" width="60" height="20" as="geometry">
            <mxRectangle width="60" height="20" as="alternateBounds" />
          </mxGeometry>
        </mxCell>
        <mxCell id="28t_TmLzIudg9PH67Oan-168" value="val" style="shape=partialRectangle;html=1;whiteSpace=wrap;connectable=0;fillColor=none;top=0;left=0;bottom=0;right=0;overflow=hidden;fontFamily=Source Code Pro;fontSource=https%3A%2F%2Ffonts.googleapis.com%2Fcss%3Ffamily%3DSource%2BCode%2BPro;fontStyle=1" parent="28t_TmLzIudg9PH67Oan-164" vertex="1">
          <mxGeometry x="160" width="40" height="20" as="geometry">
            <mxRectangle width="40" height="20" as="alternateBounds" />
          </mxGeometry>
        </mxCell>
        <mxCell id="28t_TmLzIudg9PH67Oan-169" value="*rw_counter" style="shape=partialRectangle;html=1;whiteSpace=wrap;connectable=0;fillColor=none;top=0;left=0;bottom=0;right=0;overflow=hidden;fontFamily=Source Code Pro;fontSource=https%3A%2F%2Ffonts.googleapis.com%2Fcss%3Ffamily%3DSource%2BCode%2BPro;fontStyle=1" parent="28t_TmLzIudg9PH67Oan-164" vertex="1">
          <mxGeometry x="200" width="90" height="20" as="geometry">
            <mxRectangle width="90" height="20" as="alternateBounds" />
          </mxGeometry>
        </mxCell>
        <mxCell id="28t_TmLzIudg9PH67Oan-170" value="" style="shape=tableRow;horizontal=0;startSize=0;swimlaneHead=0;swimlaneBody=0;top=0;left=0;bottom=0;right=0;collapsible=0;dropTarget=0;fillColor=none;points=[[0,0.5],[1,0.5]];portConstraint=eastwest;fontFamily=Source Code Pro;fontSource=https%3A%2F%2Ffonts.googleapis.com%2Fcss%3Ffamily%3DSource%2BCode%2BPro;" parent="28t_TmLzIudg9PH67Oan-163" vertex="1">
          <mxGeometry y="20" width="290" height="20" as="geometry" />
        </mxCell>
        <mxCell id="28t_TmLzIudg9PH67Oan-171" value="w" style="shape=partialRectangle;html=1;whiteSpace=wrap;connectable=0;fillColor=none;top=0;left=0;bottom=0;right=0;overflow=hidden;fontFamily=Source Code Pro;fontSource=https%3A%2F%2Ffonts.googleapis.com%2Fcss%3Ffamily%3DSource%2BCode%2BPro;" parent="28t_TmLzIudg9PH67Oan-170" vertex="1">
          <mxGeometry width="40" height="20" as="geometry">
            <mxRectangle width="40" height="20" as="alternateBounds" />
          </mxGeometry>
        </mxCell>
        <mxCell id="28t_TmLzIudg9PH67Oan-172" value="storage" style="shape=partialRectangle;html=1;whiteSpace=wrap;connectable=0;fillColor=none;top=0;left=0;bottom=0;right=0;overflow=hidden;fontFamily=Source Code Pro;fontSource=https%3A%2F%2Ffonts.googleapis.com%2Fcss%3Ffamily%3DSource%2BCode%2BPro;" parent="28t_TmLzIudg9PH67Oan-170" vertex="1">
          <mxGeometry x="40" width="60" height="20" as="geometry">
            <mxRectangle width="60" height="20" as="alternateBounds" />
          </mxGeometry>
        </mxCell>
        <mxCell id="28t_TmLzIudg9PH67Oan-173" value="3" style="shape=partialRectangle;html=1;whiteSpace=wrap;connectable=0;fillColor=none;top=0;left=0;bottom=0;right=0;overflow=hidden;fontFamily=Source Code Pro;fontSource=https%3A%2F%2Ffonts.googleapis.com%2Fcss%3Ffamily%3DSource%2BCode%2BPro;" parent="28t_TmLzIudg9PH67Oan-170" vertex="1">
          <mxGeometry x="100" width="60" height="20" as="geometry">
            <mxRectangle width="60" height="20" as="alternateBounds" />
          </mxGeometry>
        </mxCell>
        <mxCell id="28t_TmLzIudg9PH67Oan-174" value="6" style="shape=partialRectangle;html=1;whiteSpace=wrap;connectable=0;fillColor=none;top=0;left=0;bottom=0;right=0;overflow=hidden;fontFamily=Source Code Pro;fontSource=https%3A%2F%2Ffonts.googleapis.com%2Fcss%3Ffamily%3DSource%2BCode%2BPro;" parent="28t_TmLzIudg9PH67Oan-170" vertex="1">
          <mxGeometry x="160" width="40" height="20" as="geometry">
            <mxRectangle width="40" height="20" as="alternateBounds" />
          </mxGeometry>
        </mxCell>
        <mxCell id="28t_TmLzIudg9PH67Oan-175" value="9" style="shape=partialRectangle;html=1;whiteSpace=wrap;connectable=0;fillColor=none;top=0;left=0;bottom=0;right=0;overflow=hidden;fontFamily=Source Code Pro;fontSource=https%3A%2F%2Ffonts.googleapis.com%2Fcss%3Ffamily%3DSource%2BCode%2BPro;" parent="28t_TmLzIudg9PH67Oan-170" vertex="1">
          <mxGeometry x="200" width="90" height="20" as="geometry">
            <mxRectangle width="90" height="20" as="alternateBounds" />
          </mxGeometry>
        </mxCell>
        <mxCell id="28t_TmLzIudg9PH67Oan-176" style="shape=tableRow;horizontal=0;startSize=0;swimlaneHead=0;swimlaneBody=0;top=0;left=0;bottom=0;right=0;collapsible=0;dropTarget=0;fillColor=none;points=[[0,0.5],[1,0.5]];portConstraint=eastwest;fontFamily=Source Code Pro;fontSource=https%3A%2F%2Ffonts.googleapis.com%2Fcss%3Ffamily%3DSource%2BCode%2BPro;" parent="28t_TmLzIudg9PH67Oan-163" vertex="1">
          <mxGeometry y="40" width="290" height="20" as="geometry" />
        </mxCell>
        <mxCell id="28t_TmLzIudg9PH67Oan-177" value="w" style="shape=partialRectangle;html=1;whiteSpace=wrap;connectable=0;fillColor=none;top=0;left=0;bottom=0;right=0;overflow=hidden;fontFamily=Source Code Pro;fontSource=https%3A%2F%2Ffonts.googleapis.com%2Fcss%3Ffamily%3DSource%2BCode%2BPro;" parent="28t_TmLzIudg9PH67Oan-176" vertex="1">
          <mxGeometry width="40" height="20" as="geometry">
            <mxRectangle width="40" height="20" as="alternateBounds" />
          </mxGeometry>
        </mxCell>
        <mxCell id="28t_TmLzIudg9PH67Oan-178" value="stack" style="shape=partialRectangle;html=1;whiteSpace=wrap;connectable=0;fillColor=none;top=0;left=0;bottom=0;right=0;overflow=hidden;fontFamily=Source Code Pro;fontSource=https%3A%2F%2Ffonts.googleapis.com%2Fcss%3Ffamily%3DSource%2BCode%2BPro;" parent="28t_TmLzIudg9PH67Oan-176" vertex="1">
          <mxGeometry x="40" width="60" height="20" as="geometry">
            <mxRectangle width="60" height="20" as="alternateBounds" />
          </mxGeometry>
        </mxCell>
        <mxCell id="28t_TmLzIudg9PH67Oan-179" value="1022" style="shape=partialRectangle;html=1;whiteSpace=wrap;connectable=0;fillColor=none;top=0;left=0;bottom=0;right=0;overflow=hidden;fontFamily=Source Code Pro;fontSource=https%3A%2F%2Ffonts.googleapis.com%2Fcss%3Ffamily%3DSource%2BCode%2BPro;" parent="28t_TmLzIudg9PH67Oan-176" vertex="1">
          <mxGeometry x="100" width="60" height="20" as="geometry">
            <mxRectangle width="60" height="20" as="alternateBounds" />
          </mxGeometry>
        </mxCell>
        <mxCell id="28t_TmLzIudg9PH67Oan-180" value="4" style="shape=partialRectangle;html=1;whiteSpace=wrap;connectable=0;fillColor=none;top=0;left=0;bottom=0;right=0;overflow=hidden;fontFamily=Source Code Pro;fontSource=https%3A%2F%2Ffonts.googleapis.com%2Fcss%3Ffamily%3DSource%2BCode%2BPro;fontColor=#FF33FF;" parent="28t_TmLzIudg9PH67Oan-176" vertex="1">
          <mxGeometry x="160" width="40" height="20" as="geometry">
            <mxRectangle width="40" height="20" as="alternateBounds" />
          </mxGeometry>
        </mxCell>
        <mxCell id="28t_TmLzIudg9PH67Oan-181" value="2" style="shape=partialRectangle;html=1;whiteSpace=wrap;connectable=0;fillColor=none;top=0;left=0;bottom=0;right=0;overflow=hidden;fontFamily=Source Code Pro;fontSource=https%3A%2F%2Ffonts.googleapis.com%2Fcss%3Ffamily%3DSource%2BCode%2BPro;" parent="28t_TmLzIudg9PH67Oan-176" vertex="1">
          <mxGeometry x="200" width="90" height="20" as="geometry">
            <mxRectangle width="90" height="20" as="alternateBounds" />
          </mxGeometry>
        </mxCell>
        <mxCell id="28t_TmLzIudg9PH67Oan-182" style="shape=tableRow;horizontal=0;startSize=0;swimlaneHead=0;swimlaneBody=0;top=0;left=0;bottom=0;right=0;collapsible=0;dropTarget=0;fillColor=none;points=[[0,0.5],[1,0.5]];portConstraint=eastwest;fontFamily=Source Code Pro;fontSource=https%3A%2F%2Ffonts.googleapis.com%2Fcss%3Ffamily%3DSource%2BCode%2BPro;strokeWidth=1;" parent="28t_TmLzIudg9PH67Oan-163" vertex="1">
          <mxGeometry y="60" width="290" height="20" as="geometry" />
        </mxCell>
        <mxCell id="28t_TmLzIudg9PH67Oan-183" value="r" style="shape=partialRectangle;html=1;whiteSpace=wrap;connectable=0;fillColor=none;top=0;left=0;bottom=0;right=0;overflow=hidden;fontFamily=Source Code Pro;fontSource=https%3A%2F%2Ffonts.googleapis.com%2Fcss%3Ffamily%3DSource%2BCode%2BPro;fontStyle=4" parent="28t_TmLzIudg9PH67Oan-182" vertex="1">
          <mxGeometry width="40" height="20" as="geometry">
            <mxRectangle width="40" height="20" as="alternateBounds" />
          </mxGeometry>
        </mxCell>
        <mxCell id="28t_TmLzIudg9PH67Oan-184" value="stack" style="shape=partialRectangle;html=1;whiteSpace=wrap;connectable=0;fillColor=none;top=0;left=0;bottom=0;right=0;overflow=hidden;fontFamily=Source Code Pro;fontSource=https%3A%2F%2Ffonts.googleapis.com%2Fcss%3Ffamily%3DSource%2BCode%2BPro;fontStyle=4" parent="28t_TmLzIudg9PH67Oan-182" vertex="1">
          <mxGeometry x="40" width="60" height="20" as="geometry">
            <mxRectangle width="60" height="20" as="alternateBounds" />
          </mxGeometry>
        </mxCell>
        <mxCell id="28t_TmLzIudg9PH67Oan-185" value="1022" style="shape=partialRectangle;html=1;whiteSpace=wrap;connectable=0;fillColor=none;top=0;left=0;bottom=0;right=0;overflow=hidden;fontFamily=Source Code Pro;fontSource=https%3A%2F%2Ffonts.googleapis.com%2Fcss%3Ffamily%3DSource%2BCode%2BPro;fontStyle=4" parent="28t_TmLzIudg9PH67Oan-182" vertex="1">
          <mxGeometry x="100" width="60" height="20" as="geometry">
            <mxRectangle width="60" height="20" as="alternateBounds" />
          </mxGeometry>
        </mxCell>
        <mxCell id="28t_TmLzIudg9PH67Oan-186" value="4" style="shape=partialRectangle;html=1;whiteSpace=wrap;connectable=0;fillColor=none;top=0;left=0;bottom=0;right=0;overflow=hidden;fontFamily=Source Code Pro;fontSource=https%3A%2F%2Ffonts.googleapis.com%2Fcss%3Ffamily%3DSource%2BCode%2BPro;fontColor=#FF33FF;fontStyle=4" parent="28t_TmLzIudg9PH67Oan-182" vertex="1">
          <mxGeometry x="160" width="40" height="20" as="geometry">
            <mxRectangle width="40" height="20" as="alternateBounds" />
          </mxGeometry>
        </mxCell>
        <mxCell id="28t_TmLzIudg9PH67Oan-187" value="3" style="shape=partialRectangle;html=1;whiteSpace=wrap;connectable=0;fillColor=none;top=0;left=0;bottom=0;right=0;overflow=hidden;fontFamily=Source Code Pro;fontSource=https%3A%2F%2Ffonts.googleapis.com%2Fcss%3Ffamily%3DSource%2BCode%2BPro;fontStyle=4" parent="28t_TmLzIudg9PH67Oan-182" vertex="1">
          <mxGeometry x="200" width="90" height="20" as="geometry">
            <mxRectangle width="90" height="20" as="alternateBounds" />
          </mxGeometry>
        </mxCell>
        <mxCell id="28t_TmLzIudg9PH67Oan-188" style="shape=tableRow;horizontal=0;startSize=0;swimlaneHead=0;swimlaneBody=0;top=0;left=0;bottom=0;right=0;collapsible=0;dropTarget=0;fillColor=none;points=[[0,0.5],[1,0.5]];portConstraint=eastwest;fontFamily=Source Code Pro;fontSource=https%3A%2F%2Ffonts.googleapis.com%2Fcss%3Ffamily%3DSource%2BCode%2BPro;" parent="28t_TmLzIudg9PH67Oan-163" vertex="1">
          <mxGeometry y="80" width="290" height="20" as="geometry" />
        </mxCell>
        <mxCell id="28t_TmLzIudg9PH67Oan-189" value="w" style="shape=partialRectangle;html=1;whiteSpace=wrap;connectable=0;fillColor=none;top=0;left=0;bottom=0;right=0;overflow=hidden;fontFamily=Source Code Pro;fontSource=https%3A%2F%2Ffonts.googleapis.com%2Fcss%3Ffamily%3DSource%2BCode%2BPro;" parent="28t_TmLzIudg9PH67Oan-188" vertex="1">
          <mxGeometry width="40" height="20" as="geometry">
            <mxRectangle width="40" height="20" as="alternateBounds" />
          </mxGeometry>
        </mxCell>
        <mxCell id="28t_TmLzIudg9PH67Oan-190" value="stack" style="shape=partialRectangle;html=1;whiteSpace=wrap;connectable=0;fillColor=none;top=0;left=0;bottom=0;right=0;overflow=hidden;fontFamily=Source Code Pro;fontSource=https%3A%2F%2Ffonts.googleapis.com%2Fcss%3Ffamily%3DSource%2BCode%2BPro;" parent="28t_TmLzIudg9PH67Oan-188" vertex="1">
          <mxGeometry x="40" width="60" height="20" as="geometry">
            <mxRectangle width="60" height="20" as="alternateBounds" />
          </mxGeometry>
        </mxCell>
        <mxCell id="28t_TmLzIudg9PH67Oan-191" value="1022" style="shape=partialRectangle;html=1;whiteSpace=wrap;connectable=0;fillColor=none;top=0;left=0;bottom=0;right=0;overflow=hidden;fontFamily=Source Code Pro;fontSource=https%3A%2F%2Ffonts.googleapis.com%2Fcss%3Ffamily%3DSource%2BCode%2BPro;" parent="28t_TmLzIudg9PH67Oan-188" vertex="1">
          <mxGeometry x="100" width="60" height="20" as="geometry">
            <mxRectangle width="60" height="20" as="alternateBounds" />
          </mxGeometry>
        </mxCell>
        <mxCell id="28t_TmLzIudg9PH67Oan-192" value="3" style="shape=partialRectangle;html=1;whiteSpace=wrap;connectable=0;fillColor=none;top=0;left=0;bottom=0;right=0;overflow=hidden;fontFamily=Source Code Pro;fontSource=https%3A%2F%2Ffonts.googleapis.com%2Fcss%3Ffamily%3DSource%2BCode%2BPro;fontColor=#3333FF;" parent="28t_TmLzIudg9PH67Oan-188" vertex="1">
          <mxGeometry x="160" width="40" height="20" as="geometry">
            <mxRectangle width="40" height="20" as="alternateBounds" />
          </mxGeometry>
        </mxCell>
        <mxCell id="28t_TmLzIudg9PH67Oan-193" value="6" style="shape=partialRectangle;html=1;whiteSpace=wrap;connectable=0;fillColor=none;top=0;left=0;bottom=0;right=0;overflow=hidden;fontFamily=Source Code Pro;fontSource=https%3A%2F%2Ffonts.googleapis.com%2Fcss%3Ffamily%3DSource%2BCode%2BPro;" parent="28t_TmLzIudg9PH67Oan-188" vertex="1">
          <mxGeometry x="200" width="90" height="20" as="geometry">
            <mxRectangle width="90" height="20" as="alternateBounds" />
          </mxGeometry>
        </mxCell>
        <mxCell id="28t_TmLzIudg9PH67Oan-194" style="shape=tableRow;horizontal=0;startSize=0;swimlaneHead=0;swimlaneBody=0;top=0;left=0;bottom=0;right=0;collapsible=0;dropTarget=0;fillColor=none;points=[[0,0.5],[1,0.5]];portConstraint=eastwest;fontFamily=Source Code Pro;fontSource=https%3A%2F%2Ffonts.googleapis.com%2Fcss%3Ffamily%3DSource%2BCode%2BPro;" parent="28t_TmLzIudg9PH67Oan-163" vertex="1">
          <mxGeometry y="100" width="290" height="20" as="geometry" />
        </mxCell>
        <mxCell id="28t_TmLzIudg9PH67Oan-195" value="r" style="shape=partialRectangle;html=1;whiteSpace=wrap;connectable=0;fillColor=none;top=0;left=0;bottom=0;right=0;overflow=hidden;fontFamily=Source Code Pro;fontSource=https%3A%2F%2Ffonts.googleapis.com%2Fcss%3Ffamily%3DSource%2BCode%2BPro;" parent="28t_TmLzIudg9PH67Oan-194" vertex="1">
          <mxGeometry width="40" height="20" as="geometry">
            <mxRectangle width="40" height="20" as="alternateBounds" />
          </mxGeometry>
        </mxCell>
        <mxCell id="28t_TmLzIudg9PH67Oan-196" value="stack" style="shape=partialRectangle;html=1;whiteSpace=wrap;connectable=0;fillColor=none;top=0;left=0;bottom=0;right=0;overflow=hidden;fontFamily=Source Code Pro;fontSource=https%3A%2F%2Ffonts.googleapis.com%2Fcss%3Ffamily%3DSource%2BCode%2BPro;" parent="28t_TmLzIudg9PH67Oan-194" vertex="1">
          <mxGeometry x="40" width="60" height="20" as="geometry">
            <mxRectangle width="60" height="20" as="alternateBounds" />
          </mxGeometry>
        </mxCell>
        <mxCell id="28t_TmLzIudg9PH67Oan-197" value="1022" style="shape=partialRectangle;html=1;whiteSpace=wrap;connectable=0;fillColor=none;top=0;left=0;bottom=0;right=0;overflow=hidden;fontFamily=Source Code Pro;fontSource=https%3A%2F%2Ffonts.googleapis.com%2Fcss%3Ffamily%3DSource%2BCode%2BPro;" parent="28t_TmLzIudg9PH67Oan-194" vertex="1">
          <mxGeometry x="100" width="60" height="20" as="geometry">
            <mxRectangle width="60" height="20" as="alternateBounds" />
          </mxGeometry>
        </mxCell>
        <mxCell id="28t_TmLzIudg9PH67Oan-198" value="3" style="shape=partialRectangle;html=1;whiteSpace=wrap;connectable=0;fillColor=none;top=0;left=0;bottom=0;right=0;overflow=hidden;fontFamily=Source Code Pro;fontSource=https%3A%2F%2Ffonts.googleapis.com%2Fcss%3Ffamily%3DSource%2BCode%2BPro;fontColor=#3333FF;" parent="28t_TmLzIudg9PH67Oan-194" vertex="1">
          <mxGeometry x="160" width="40" height="20" as="geometry">
            <mxRectangle width="40" height="20" as="alternateBounds" />
          </mxGeometry>
        </mxCell>
        <mxCell id="28t_TmLzIudg9PH67Oan-199" value="7" style="shape=partialRectangle;html=1;whiteSpace=wrap;connectable=0;fillColor=none;top=0;left=0;bottom=0;right=0;overflow=hidden;fontFamily=Source Code Pro;fontSource=https%3A%2F%2Ffonts.googleapis.com%2Fcss%3Ffamily%3DSource%2BCode%2BPro;" parent="28t_TmLzIudg9PH67Oan-194" vertex="1">
          <mxGeometry x="200" width="90" height="20" as="geometry">
            <mxRectangle width="90" height="20" as="alternateBounds" />
          </mxGeometry>
        </mxCell>
        <mxCell id="28t_TmLzIudg9PH67Oan-200" style="shape=tableRow;horizontal=0;startSize=0;swimlaneHead=0;swimlaneBody=0;top=0;left=0;bottom=0;right=0;collapsible=0;dropTarget=0;fillColor=none;points=[[0,0.5],[1,0.5]];portConstraint=eastwest;fontFamily=Source Code Pro;fontSource=https%3A%2F%2Ffonts.googleapis.com%2Fcss%3Ffamily%3DSource%2BCode%2BPro;" parent="28t_TmLzIudg9PH67Oan-163" vertex="1">
          <mxGeometry y="120" width="290" height="20" as="geometry" />
        </mxCell>
        <mxCell id="28t_TmLzIudg9PH67Oan-201" value="w" style="shape=partialRectangle;html=1;whiteSpace=wrap;connectable=0;fillColor=none;top=0;left=0;bottom=0;right=0;overflow=hidden;fontFamily=Source Code Pro;fontSource=https%3A%2F%2Ffonts.googleapis.com%2Fcss%3Ffamily%3DSource%2BCode%2BPro;" parent="28t_TmLzIudg9PH67Oan-200" vertex="1">
          <mxGeometry width="40" height="20" as="geometry">
            <mxRectangle width="40" height="20" as="alternateBounds" />
          </mxGeometry>
        </mxCell>
        <mxCell id="28t_TmLzIudg9PH67Oan-202" value="stack" style="shape=partialRectangle;html=1;whiteSpace=wrap;connectable=0;fillColor=none;top=0;left=0;bottom=0;right=0;overflow=hidden;fontFamily=Source Code Pro;fontSource=https%3A%2F%2Ffonts.googleapis.com%2Fcss%3Ffamily%3DSource%2BCode%2BPro;" parent="28t_TmLzIudg9PH67Oan-200" vertex="1">
          <mxGeometry x="40" width="60" height="20" as="geometry">
            <mxRectangle width="60" height="20" as="alternateBounds" />
          </mxGeometry>
        </mxCell>
        <mxCell id="28t_TmLzIudg9PH67Oan-203" value="1023" style="shape=partialRectangle;html=1;whiteSpace=wrap;connectable=0;fillColor=none;top=0;left=0;bottom=0;right=0;overflow=hidden;fontFamily=Source Code Pro;fontSource=https%3A%2F%2Ffonts.googleapis.com%2Fcss%3Ffamily%3DSource%2BCode%2BPro;" parent="28t_TmLzIudg9PH67Oan-200" vertex="1">
          <mxGeometry x="100" width="60" height="20" as="geometry">
            <mxRectangle width="60" height="20" as="alternateBounds" />
          </mxGeometry>
        </mxCell>
        <mxCell id="28t_TmLzIudg9PH67Oan-204" value="2" style="shape=partialRectangle;html=1;whiteSpace=wrap;connectable=0;fillColor=none;top=0;left=0;bottom=0;right=0;overflow=hidden;fontFamily=Source Code Pro;fontSource=https%3A%2F%2Ffonts.googleapis.com%2Fcss%3Ffamily%3DSource%2BCode%2BPro;fontColor=#33FF33;" parent="28t_TmLzIudg9PH67Oan-200" vertex="1">
          <mxGeometry x="160" width="40" height="20" as="geometry">
            <mxRectangle width="40" height="20" as="alternateBounds" />
          </mxGeometry>
        </mxCell>
        <mxCell id="28t_TmLzIudg9PH67Oan-205" value="1" style="shape=partialRectangle;html=1;whiteSpace=wrap;connectable=0;fillColor=none;top=0;left=0;bottom=0;right=0;overflow=hidden;fontFamily=Source Code Pro;fontSource=https%3A%2F%2Ffonts.googleapis.com%2Fcss%3Ffamily%3DSource%2BCode%2BPro;" parent="28t_TmLzIudg9PH67Oan-200" vertex="1">
          <mxGeometry x="200" width="90" height="20" as="geometry">
            <mxRectangle width="90" height="20" as="alternateBounds" />
          </mxGeometry>
        </mxCell>
        <mxCell id="28t_TmLzIudg9PH67Oan-206" style="shape=tableRow;horizontal=0;startSize=0;swimlaneHead=0;swimlaneBody=0;top=0;left=0;bottom=0;right=0;collapsible=0;dropTarget=0;fillColor=none;points=[[0,0.5],[1,0.5]];portConstraint=eastwest;fontFamily=Source Code Pro;fontSource=https%3A%2F%2Ffonts.googleapis.com%2Fcss%3Ffamily%3DSource%2BCode%2BPro;" parent="28t_TmLzIudg9PH67Oan-163" vertex="1">
          <mxGeometry y="140" width="290" height="20" as="geometry" />
        </mxCell>
        <mxCell id="28t_TmLzIudg9PH67Oan-207" value="r" style="shape=partialRectangle;html=1;whiteSpace=wrap;connectable=0;fillColor=none;top=0;left=0;bottom=0;right=0;overflow=hidden;fontFamily=Source Code Pro;fontSource=https%3A%2F%2Ffonts.googleapis.com%2Fcss%3Ffamily%3DSource%2BCode%2BPro;fontStyle=4" parent="28t_TmLzIudg9PH67Oan-206" vertex="1">
          <mxGeometry width="40" height="20" as="geometry">
            <mxRectangle width="40" height="20" as="alternateBounds" />
          </mxGeometry>
        </mxCell>
        <mxCell id="28t_TmLzIudg9PH67Oan-208" value="stack" style="shape=partialRectangle;html=1;whiteSpace=wrap;connectable=0;fillColor=none;top=0;left=0;bottom=0;right=0;overflow=hidden;fontFamily=Source Code Pro;fontSource=https%3A%2F%2Ffonts.googleapis.com%2Fcss%3Ffamily%3DSource%2BCode%2BPro;fontStyle=4" parent="28t_TmLzIudg9PH67Oan-206" vertex="1">
          <mxGeometry x="40" width="60" height="20" as="geometry">
            <mxRectangle width="60" height="20" as="alternateBounds" />
          </mxGeometry>
        </mxCell>
        <mxCell id="28t_TmLzIudg9PH67Oan-209" value="1023" style="shape=partialRectangle;html=1;whiteSpace=wrap;connectable=0;fillColor=none;top=0;left=0;bottom=0;right=0;overflow=hidden;fontFamily=Source Code Pro;fontSource=https%3A%2F%2Ffonts.googleapis.com%2Fcss%3Ffamily%3DSource%2BCode%2BPro;fontStyle=4" parent="28t_TmLzIudg9PH67Oan-206" vertex="1">
          <mxGeometry x="100" width="60" height="20" as="geometry">
            <mxRectangle width="60" height="20" as="alternateBounds" />
          </mxGeometry>
        </mxCell>
        <mxCell id="28t_TmLzIudg9PH67Oan-210" value="2" style="shape=partialRectangle;html=1;whiteSpace=wrap;connectable=0;fillColor=none;top=0;left=0;bottom=0;right=0;overflow=hidden;fontFamily=Source Code Pro;fontSource=https%3A%2F%2Ffonts.googleapis.com%2Fcss%3Ffamily%3DSource%2BCode%2BPro;fontColor=#33FF33;fontStyle=4" parent="28t_TmLzIudg9PH67Oan-206" vertex="1">
          <mxGeometry x="160" width="40" height="20" as="geometry">
            <mxRectangle width="40" height="20" as="alternateBounds" />
          </mxGeometry>
        </mxCell>
        <mxCell id="28t_TmLzIudg9PH67Oan-211" value="4" style="shape=partialRectangle;html=1;whiteSpace=wrap;connectable=0;fillColor=none;top=0;left=0;bottom=0;right=0;overflow=hidden;fontFamily=Source Code Pro;fontSource=https%3A%2F%2Ffonts.googleapis.com%2Fcss%3Ffamily%3DSource%2BCode%2BPro;fontStyle=4" parent="28t_TmLzIudg9PH67Oan-206" vertex="1">
          <mxGeometry x="200" width="90" height="20" as="geometry">
            <mxRectangle width="90" height="20" as="alternateBounds" />
          </mxGeometry>
        </mxCell>
        <mxCell id="28t_TmLzIudg9PH67Oan-212" style="shape=tableRow;horizontal=0;startSize=0;swimlaneHead=0;swimlaneBody=0;top=0;left=0;bottom=0;right=0;collapsible=0;dropTarget=0;fillColor=none;points=[[0,0.5],[1,0.5]];portConstraint=eastwest;fontFamily=Source Code Pro;fontSource=https%3A%2F%2Ffonts.googleapis.com%2Fcss%3Ffamily%3DSource%2BCode%2BPro;" parent="28t_TmLzIudg9PH67Oan-163" vertex="1">
          <mxGeometry y="160" width="290" height="20" as="geometry" />
        </mxCell>
        <mxCell id="28t_TmLzIudg9PH67Oan-213" value="&lt;u&gt;w&lt;/u&gt;" style="shape=partialRectangle;html=1;whiteSpace=wrap;connectable=0;fillColor=none;top=0;left=0;bottom=0;right=0;overflow=hidden;fontFamily=Source Code Pro;fontSource=https%3A%2F%2Ffonts.googleapis.com%2Fcss%3Ffamily%3DSource%2BCode%2BPro;" parent="28t_TmLzIudg9PH67Oan-212" vertex="1">
          <mxGeometry width="40" height="20" as="geometry">
            <mxRectangle width="40" height="20" as="alternateBounds" />
          </mxGeometry>
        </mxCell>
        <mxCell id="28t_TmLzIudg9PH67Oan-214" value="&lt;u&gt;stack&lt;/u&gt;" style="shape=partialRectangle;html=1;whiteSpace=wrap;connectable=0;fillColor=none;top=0;left=0;bottom=0;right=0;overflow=hidden;fontFamily=Source Code Pro;fontSource=https%3A%2F%2Ffonts.googleapis.com%2Fcss%3Ffamily%3DSource%2BCode%2BPro;" parent="28t_TmLzIudg9PH67Oan-212" vertex="1">
          <mxGeometry x="40" width="60" height="20" as="geometry">
            <mxRectangle width="60" height="20" as="alternateBounds" />
          </mxGeometry>
        </mxCell>
        <mxCell id="28t_TmLzIudg9PH67Oan-215" value="1023" style="shape=partialRectangle;html=1;whiteSpace=wrap;connectable=0;fillColor=none;top=0;left=0;bottom=0;right=0;overflow=hidden;fontFamily=Source Code Pro;fontSource=https%3A%2F%2Ffonts.googleapis.com%2Fcss%3Ffamily%3DSource%2BCode%2BPro;fontStyle=4" parent="28t_TmLzIudg9PH67Oan-212" vertex="1">
          <mxGeometry x="100" width="60" height="20" as="geometry">
            <mxRectangle width="60" height="20" as="alternateBounds" />
          </mxGeometry>
        </mxCell>
        <mxCell id="28t_TmLzIudg9PH67Oan-216" value="6" style="shape=partialRectangle;html=1;whiteSpace=wrap;connectable=0;fillColor=none;top=0;left=0;bottom=0;right=0;overflow=hidden;fontFamily=Source Code Pro;fontSource=https%3A%2F%2Ffonts.googleapis.com%2Fcss%3Ffamily%3DSource%2BCode%2BPro;fontStyle=4" parent="28t_TmLzIudg9PH67Oan-212" vertex="1">
          <mxGeometry x="160" width="40" height="20" as="geometry">
            <mxRectangle width="40" height="20" as="alternateBounds" />
          </mxGeometry>
        </mxCell>
        <mxCell id="28t_TmLzIudg9PH67Oan-217" value="5" style="shape=partialRectangle;html=1;whiteSpace=wrap;connectable=0;fillColor=none;top=0;left=0;bottom=0;right=0;overflow=hidden;fontFamily=Source Code Pro;fontSource=https%3A%2F%2Ffonts.googleapis.com%2Fcss%3Ffamily%3DSource%2BCode%2BPro;fontStyle=4" parent="28t_TmLzIudg9PH67Oan-212" vertex="1">
          <mxGeometry x="200" width="90" height="20" as="geometry">
            <mxRectangle width="90" height="20" as="alternateBounds" />
          </mxGeometry>
        </mxCell>
        <mxCell id="28t_TmLzIudg9PH67Oan-218" style="shape=tableRow;horizontal=0;startSize=0;swimlaneHead=0;swimlaneBody=0;top=0;left=0;bottom=0;right=0;collapsible=0;dropTarget=0;fillColor=none;points=[[0,0.5],[1,0.5]];portConstraint=eastwest;fontFamily=Source Code Pro;fontSource=https%3A%2F%2Ffonts.googleapis.com%2Fcss%3Ffamily%3DSource%2BCode%2BPro;" parent="28t_TmLzIudg9PH67Oan-163" vertex="1">
          <mxGeometry y="180" width="290" height="20" as="geometry" />
        </mxCell>
        <mxCell id="28t_TmLzIudg9PH67Oan-219" value="w" style="shape=partialRectangle;html=1;whiteSpace=wrap;connectable=0;fillColor=none;top=0;left=0;bottom=0;right=0;overflow=hidden;fontFamily=Source Code Pro;fontSource=https%3A%2F%2Ffonts.googleapis.com%2Fcss%3Ffamily%3DSource%2BCode%2BPro;" parent="28t_TmLzIudg9PH67Oan-218" vertex="1">
          <mxGeometry width="40" height="20" as="geometry">
            <mxRectangle width="40" height="20" as="alternateBounds" />
          </mxGeometry>
        </mxCell>
        <mxCell id="28t_TmLzIudg9PH67Oan-220" value="stack" style="shape=partialRectangle;html=1;whiteSpace=wrap;connectable=0;fillColor=none;top=0;left=0;bottom=0;right=0;overflow=hidden;fontFamily=Source Code Pro;fontSource=https%3A%2F%2Ffonts.googleapis.com%2Fcss%3Ffamily%3DSource%2BCode%2BPro;" parent="28t_TmLzIudg9PH67Oan-218" vertex="1">
          <mxGeometry x="40" width="60" height="20" as="geometry">
            <mxRectangle width="60" height="20" as="alternateBounds" />
          </mxGeometry>
        </mxCell>
        <mxCell id="28t_TmLzIudg9PH67Oan-221" value="1023" style="shape=partialRectangle;html=1;whiteSpace=wrap;connectable=0;fillColor=none;top=0;left=0;bottom=0;right=0;overflow=hidden;fontFamily=Source Code Pro;fontSource=https%3A%2F%2Ffonts.googleapis.com%2Fcss%3Ffamily%3DSource%2BCode%2BPro;" parent="28t_TmLzIudg9PH67Oan-218" vertex="1">
          <mxGeometry x="100" width="60" height="20" as="geometry">
            <mxRectangle width="60" height="20" as="alternateBounds" />
          </mxGeometry>
        </mxCell>
        <mxCell id="28t_TmLzIudg9PH67Oan-222" value="6" style="shape=partialRectangle;html=1;whiteSpace=wrap;connectable=0;fillColor=none;top=0;left=0;bottom=0;right=0;overflow=hidden;fontFamily=Source Code Pro;fontSource=https%3A%2F%2Ffonts.googleapis.com%2Fcss%3Ffamily%3DSource%2BCode%2BPro;" parent="28t_TmLzIudg9PH67Oan-218" vertex="1">
          <mxGeometry x="160" width="40" height="20" as="geometry">
            <mxRectangle width="40" height="20" as="alternateBounds" />
          </mxGeometry>
        </mxCell>
        <mxCell id="28t_TmLzIudg9PH67Oan-223" value="8" style="shape=partialRectangle;html=1;whiteSpace=wrap;connectable=0;fillColor=none;top=0;left=0;bottom=0;right=0;overflow=hidden;fontFamily=Source Code Pro;fontSource=https%3A%2F%2Ffonts.googleapis.com%2Fcss%3Ffamily%3DSource%2BCode%2BPro;" parent="28t_TmLzIudg9PH67Oan-218" vertex="1">
          <mxGeometry x="200" width="90" height="20" as="geometry">
            <mxRectangle width="90" height="20" as="alternateBounds" />
          </mxGeometry>
        </mxCell>
        <mxCell id="28t_TmLzIudg9PH67Oan-232" value="" style="curved=1;endArrow=classic;html=1;rounded=0;fontFamily=Source Code Pro;fontSource=https%3A%2F%2Ffonts.googleapis.com%2Fcss%3Ffamily%3DSource%2BCode%2BPro;exitX=1;exitY=0.5;exitDx=0;exitDy=0;entryX=1;entryY=0.5;entryDx=0;entryDy=0;strokeColor=#030303;" parent="28t_TmLzIudg9PH67Oan-163" source="28t_TmLzIudg9PH67Oan-182" target="28t_TmLzIudg9PH67Oan-176" edge="1">
          <mxGeometry width="50" height="50" relative="1" as="geometry">
            <mxPoint x="70" y="70" as="sourcePoint" />
            <mxPoint x="390" y="150" as="targetPoint" />
            <Array as="points">
              <mxPoint x="300" y="60" />
            </Array>
          </mxGeometry>
        </mxCell>
        <mxCell id="28t_TmLzIudg9PH67Oan-233" value="" style="curved=1;endArrow=classic;html=1;rounded=0;fontFamily=Source Code Pro;fontSource=https%3A%2F%2Ffonts.googleapis.com%2Fcss%3Ffamily%3DSource%2BCode%2BPro;exitX=1;exitY=0.5;exitDx=0;exitDy=0;entryX=1;entryY=0.5;entryDx=0;entryDy=0;strokeColor=#030303;" parent="28t_TmLzIudg9PH67Oan-163" source="28t_TmLzIudg9PH67Oan-194" target="28t_TmLzIudg9PH67Oan-188" edge="1">
          <mxGeometry width="50" height="50" relative="1" as="geometry">
            <mxPoint x="360" y="80" as="sourcePoint" />
            <mxPoint x="360" y="60" as="targetPoint" />
            <Array as="points">
              <mxPoint x="310" y="100" />
            </Array>
          </mxGeometry>
        </mxCell>
        <mxCell id="28t_TmLzIudg9PH67Oan-234" value="" style="curved=1;endArrow=classic;html=1;rounded=0;fontFamily=Source Code Pro;fontSource=https%3A%2F%2Ffonts.googleapis.com%2Fcss%3Ffamily%3DSource%2BCode%2BPro;exitX=1;exitY=0.5;exitDx=0;exitDy=0;entryX=1;entryY=0.5;entryDx=0;entryDy=0;fontColor=#66FF66;strokeColor=#030303;" parent="28t_TmLzIudg9PH67Oan-163" source="28t_TmLzIudg9PH67Oan-206" target="28t_TmLzIudg9PH67Oan-200" edge="1">
          <mxGeometry width="50" height="50" relative="1" as="geometry">
            <mxPoint x="360" y="120" as="sourcePoint" />
            <mxPoint x="360" y="100" as="targetPoint" />
            <Array as="points">
              <mxPoint x="300" y="140" />
            </Array>
          </mxGeometry>
        </mxCell>
        <mxCell id="28t_TmLzIudg9PH67Oan-224" value="State circuit&amp;nbsp;" style="text;html=1;strokeColor=none;fillColor=none;align=left;verticalAlign=middle;whiteSpace=wrap;rounded=0;fontFamily=Source Code Pro;fontSource=https%3A%2F%2Ffonts.googleapis.com%2Fcss%3Ffamily%3DSource%2BCode%2BPro;fontSize=15;fontStyle=1" parent="1" vertex="1">
          <mxGeometry x="460" y="310" width="350" height="40" as="geometry" />
        </mxCell>
        <mxCell id="28t_TmLzIudg9PH67Oan-230" value="if r/w==r assert&lt;br&gt;&amp;nbsp;prev_row.value==this_row.value" style="text;html=1;strokeColor=none;fillColor=none;align=left;verticalAlign=middle;whiteSpace=wrap;rounded=0;fontFamily=Source Code Pro;fontSource=https%3A%2F%2Ffonts.googleapis.com%2Fcss%3Ffamily%3DSource%2BCode%2BPro;rotation=-90;" parent="1" vertex="1">
          <mxGeometry x="600" y="360" width="350" height="30" as="geometry" />
        </mxCell>
        <mxCell id="28t_TmLzIudg9PH67Oan-582" value="" style="group" parent="1" vertex="1" connectable="0">
          <mxGeometry x="230" y="210" width="160" height="80" as="geometry" />
        </mxCell>
        <mxCell id="28t_TmLzIudg9PH67Oan-578" value="" style="shape=image;verticalLabelPosition=bottom;labelBackgroundColor=default;verticalAlign=top;aspect=fixed;imageAspect=0;image=data:image/png,iVBORw0KGgoAAAANSUhEUgAAAUQAAACiCAYAAAA5gLTtAAABR2lDQ1BJQ0MgUHJvZmlsZQAAKJFjYGASSSwoyGFhYGDIzSspCnJ3UoiIjFJgf8bAzMDPwM0gysCdmFxc4BgQ4ANUwgCjUcG3awyMIPqyLsis13ZWV3aHfPFeJa2yMfrPkgWY6lEAV0pqcTKQ/gPEackFRSUMDIwpQLZyeUkBiN0BZIsUAR0FZM8BsdMh7A0gdhKEfQSsJiTIGci+AWQLJGckAs1gfAFk6yQhiacjsaH2ggCPj7tCaE5JUaKChwsB55IOSlIrSkC0c35BZVFmekaJgiMwlFIVPPOS9XQUjAyMjBgYQGEOUf35BjgsGcU4EGLFBgwMVr1AwQKEWKwIA8OWDAYGvmSEmNokBgZBbgaGw1EFiUWJcAcwfmMpTjM2grC5tzMwsE77//9zOAMDuyYDw9/r////3v7//99lDAzMtxgYDnwDAJ6JX6+ZbAqNAAAAlmVYSWZNTQAqAAAACAAFARIAAwAAAAEAAQAAARoABQAAAAEAAABKARsABQAAAAEAAABSASgAAwAAAAEAAgAAh2kABAAAAAEAAABaAAAAAAAAAJAAAAABAAAAkAAAAAEAA5KGAAcAAAASAAAAhKACAAQAAAABAAABRKADAAQAAAABAAAAogAAAABBU0NJSQAAAFNjcmVlbnNob3R2zH25AAAACXBIWXMAABYlAAAWJQFJUiTwAAAC22lUWHRYTUw6Y29tLmFkb2JlLnhtcAAAAAAAPHg6eG1wbWV0YSB4bWxuczp4PSJhZG9iZTpuczptZXRhLyIgeDp4bXB0az0iWE1QIENvcmUgNi4wLjAiPgogICA8cmRmOlJERiB4bWxuczpyZGY9Imh0dHA6Ly93d3cudzMub3JnLzE5OTkvMDIvMjItcmRmLXN5bnRheC1ucyMiPgogICAgICA8cmRmOkRlc2NyaXB0aW9uIHJkZjphYm91dD0iIgogICAgICAgICAgICB4bWxuczpleGlmPSJodHRwOi8vbnMuYWRvYmUuY29tL2V4aWYvMS4wLyIKICAgICAgICAgICAgeG1sbnM6dGlmZj0iaHR0cDovL25zLmFkb2JlLmNvbS90aWZmLzEuMC8iPgogICAgICAgICA8ZXhpZjpVc2VyQ29tbWVudD5TY3JlZW5zaG90PC9leGlmOlVzZXJDb21tZW50PgogICAgICAgICA8ZXhpZjpQaXhlbFhEaW1lbnNpb24+MzI0PC9leGlmOlBpeGVsWERpbWVuc2lvbj4KICAgICAgICAgPGV4aWY6UGl4ZWxZRGltZW5zaW9uPjE2MjwvZXhpZjpQaXhlbFlEaW1lbnNpb24+CiAgICAgICAgIDx0aWZmOlJlc29sdXRpb25Vbml0PjI8L3RpZmY6UmVzb2x1dGlvblVuaXQ+CiAgICAgICAgIDx0aWZmOlhSZXNvbHV0aW9uPjE0NC8xPC90aWZmOlhSZXNvbHV0aW9uPgogICAgICAgICA8dGlmZjpZUmVzb2x1dGlvbj4xNDQvMTwvdGlmZjpZUmVzb2x1dGlvbj4KICAgICAgICAgPHRpZmY6T3JpZW50YXRpb24+MTwvdGlmZjpPcmllbnRhdGlvbj4KICAgICAgPC9yZGY6RGVzY3JpcHRpb24+CiAgIDwvcmRmOlJERj4KPC94OnhtcG1ldGE+Clsqt0gAAAa1SURBVHgB7d0xbuNIFARQe7CRAt5GgWJdm76AfR+lXphAdUCvE5kLNKfeJJ+SAaH7daEwMwLcr+/v75/X6/XliD+Px2P7mMvlcsTHvcz+eV+b/Pj4eOH3/HHze95O/n5n919+r+u6fv7+Y30CAQIEziuwLMu2+H/OuwUrJ0CAwDEC+VfeKMT7/X7MJ/9Pn/L29rZ98qzrnHV9s64rMZl9fWdZ56yOs65rf655/ScPJgECBNoFFGJ7AuyfAIEhoBAHhQcCBNoFFGJ7AuyfAIEhoBAHhQcCBNoFFGJ7AuyfAIEhoBAHhQcCBNoFFGJ7AuyfAIEhoBAHhQcCBNoFFGJ7AuyfAIEhoBAHhQcCBNoFFGJ7AuyfAIEhoBAHhQcCBNoFFGJ7AuyfAIEhoBAHhQcCBNoFFGJ7AuyfAIEhMH5B7HjHAwECBMoEcn+TO1XKDt52CRD4LnC73bY3/Q3xu413CBAoE8hNoaMQZ72rJOdylrsZZnPklgT9bnJ8zu8sbtmdL1UiYRIgUC+gEOsjAIAAgQgoxEiYBAjUCyjE+ggAIEAgAgoxEiYBAvUCCrE+AgAIEIiAQoyESYBAvYBCrI8AAAIEIqAQI2ESIFAvoBDrIwCAAIEIKMRImAQI1AsoxPoIACBAIAIKMRImAQL1AgqxPgIACBCIgEKMhEmAQL2AQqyPAAACBCIwfkFs3jAJECDQJuBOlbYTt18CBH4UcKfKjzR+QIBAm4A7VQ4+8Vnvjph1XeGffX1nWeesjrOua3+uee1LlUiYBAjUCyjE+ggAIEAgAgoxEiYBAvUCCrE+AgAIEIiAQoyESYBAvYBCrI8AAAIEIqAQI2ESIFAvoBDrIwCAAIEIKMRImAQI1AsoxPoIACBAIAIKMRImAQL1AgqxPgIACBCIgEKMhEmAQL2AQqyPAAACBCKgECNhEiBQL6AQ6yMAgACBCLhTJRImAQK1Au5UqT16GydAYC/gTpW9iNcECNQKuFPl4KOf9e6IWdcV/tnXd5Z1zuo467r255rXvlSJhEmAQL2AQqyPAAACBCKgECNhEiBQL6AQ6yMAgACBCCjESJgECNQLKMT6CAAgQCACCjESJgEC9QIKsT4CAAgQiIBCjIRJgEC9gEKsjwAAAgQioBAjYRIgUC+gEOsjAIAAgQgoxEiYBAjUCyjE+ggAIEAgAgoxEiYBAvUCCrE+AgAIEIiAQoyESYBAvcDruq6f9QoACBCoFliWZdu/W/eqY2DzBAh8CVyv1w1iFOL9fp9a5ix3M8zmyO2YWHN8zvEsbtmd/0OMhEmAQL2AQqyPAAACBCKgECNhEiBQL6AQ6yMAgACBCCjESJgECNQLKMT6CAAgQCACCjESJgEC9QIKsT4CAAgQiIBCjIRJgEC9gEKsjwAAAgQioBAjYRIgUC+gEOsjAIAAgQgoxEiYBAjUCyjE+ggAIEAgAgoxEiYBAvUCCrE+AgAIEIjA+AWxecMkQIBAm8Dj8di27E6VtpO3XwIEvgncbrftPX9D/EbjDQIE2gQul8u25VGIs90Fsj+Qs9zNMJsjt32SnnvN8e92y+58qRIJkwCBegGFWB8BAAQIREAhRsIkQKBeQCHWRwAAAQIRUIiRMAkQqBdQiPURAECAQAQUYiRMAgTqBRRifQQAECAQAYUYCZMAgXoBhVgfAQAECERAIUbCJECgXkAh1kcAAAECEVCIkTAJEKgXUIj1EQBAgEAEFGIkTAIE6gUUYn0EABAgEIHxC2LzhkmAAIE2AXeqtJ24/RIg8KOAO1V+pPEDAgTaBNypcvCJz3rnxqzrCv/s6zvLOmd1nHVd+3PNa1+qRMIkQKBeQCHWRwAAAQIRUIiRMAkQqBdQiPURAECAQAQUYiRMAgTqBRRifQQAECAQAYUYCZMAgXoBhVgfAQAECERAIUbCJECgXkAh1kcAAAECEVCIkTAJEKgXUIj1EQBAgEAEFGIkTAIE6gUUYn0EABAgEAGFGAmTAIF6AYVYHwEABAhEwJ0qkTAJEKgVcKdK7dHbOAECewF3quxFvCZAoFbAnSoHH/2sd0fMuq7wz76+s6xzVsdZ17U/17z2pUokTAIE6gUUYn0EABAgEAGFGAmTAIF6AYVYHwEABAhEQCFGwiRAoF5AIdZHAAABAhFQiJEwCRCoF1CI9REAQIBABBRiJEwCBOoFFGJ9BAAQIBABhRgJkwCBegGFWB8BAAQIREAhRsIkQKBeQCHWRwAAAQIRUIiRMAkQqBdQiPURAECAQAQUYiRMAgTqBV7Xdf2sVwBAgEC1wLIs2/7/BQCDKftRRXgWAAAAAElFTkSuQmCC;" parent="28t_TmLzIudg9PH67Oan-582" vertex="1">
          <mxGeometry width="160" height="80" as="geometry" />
        </mxCell>
        <mxCell id="28t_TmLzIudg9PH67Oan-580" value="" style="rounded=0;whiteSpace=wrap;html=1;fontFamily=Source Code Pro;fontSource=https%3A%2F%2Ffonts.googleapis.com%2Fcss%3Ffamily%3DSource%2BCode%2BPro;fontColor=#66FF66;strokeColor=#030303;fillColor=none;strokeWidth=1;" parent="28t_TmLzIudg9PH67Oan-582" vertex="1">
          <mxGeometry width="160" height="80" as="geometry" />
        </mxCell>
        <mxCell id="28t_TmLzIudg9PH67Oan-607" value="&lt;font style=&quot;font-size: 19px&quot;&gt;BEGINTX&lt;/font&gt;" style="text;html=1;strokeColor=none;fillColor=none;align=center;verticalAlign=middle;whiteSpace=wrap;rounded=0;fontFamily=Source Code Pro;fontSource=https%3A%2F%2Ffonts.googleapis.com%2Fcss%3Ffamily%3DSource%2BCode%2BPro;fontColor=#000000;fontSize=25;" parent="28t_TmLzIudg9PH67Oan-582" vertex="1">
          <mxGeometry x="50" y="25" width="60" height="30" as="geometry" />
        </mxCell>
        <mxCell id="28t_TmLzIudg9PH67Oan-583" value="" style="group" parent="1" vertex="1" connectable="0">
          <mxGeometry x="230" y="290" width="160" height="80" as="geometry" />
        </mxCell>
        <mxCell id="28t_TmLzIudg9PH67Oan-584" value="" style="shape=image;verticalLabelPosition=bottom;labelBackgroundColor=default;verticalAlign=top;aspect=fixed;imageAspect=0;image=data:image/png,iVBORw0KGgoAAAANSUhEUgAAAUQAAACiCAYAAAA5gLTtAAABR2lDQ1BJQ0MgUHJvZmlsZQAAKJFjYGASSSwoyGFhYGDIzSspCnJ3UoiIjFJgf8bAzMDPwM0gysCdmFxc4BgQ4ANUwgCjUcG3awyMIPqyLsis13ZWV3aHfPFeJa2yMfrPkgWY6lEAV0pqcTKQ/gPEackFRSUMDIwpQLZyeUkBiN0BZIsUAR0FZM8BsdMh7A0gdhKEfQSsJiTIGci+AWQLJGckAs1gfAFk6yQhiacjsaH2ggCPj7tCaE5JUaKChwsB55IOSlIrSkC0c35BZVFmekaJgiMwlFIVPPOS9XQUjAyMjBgYQGEOUf35BjgsGcU4EGLFBgwMVr1AwQKEWKwIA8OWDAYGvmSEmNokBgZBbgaGw1EFiUWJcAcwfmMpTjM2grC5tzMwsE77//9zOAMDuyYDw9/r////3v7//99lDAzMtxgYDnwDAJ6JX6+ZbAqNAAAAlmVYSWZNTQAqAAAACAAFARIAAwAAAAEAAQAAARoABQAAAAEAAABKARsABQAAAAEAAABSASgAAwAAAAEAAgAAh2kABAAAAAEAAABaAAAAAAAAAJAAAAABAAAAkAAAAAEAA5KGAAcAAAASAAAAhKACAAQAAAABAAABRKADAAQAAAABAAAAogAAAABBU0NJSQAAAFNjcmVlbnNob3R2zH25AAAACXBIWXMAABYlAAAWJQFJUiTwAAAC22lUWHRYTUw6Y29tLmFkb2JlLnhtcAAAAAAAPHg6eG1wbWV0YSB4bWxuczp4PSJhZG9iZTpuczptZXRhLyIgeDp4bXB0az0iWE1QIENvcmUgNi4wLjAiPgogICA8cmRmOlJERiB4bWxuczpyZGY9Imh0dHA6Ly93d3cudzMub3JnLzE5OTkvMDIvMjItcmRmLXN5bnRheC1ucyMiPgogICAgICA8cmRmOkRlc2NyaXB0aW9uIHJkZjphYm91dD0iIgogICAgICAgICAgICB4bWxuczpleGlmPSJodHRwOi8vbnMuYWRvYmUuY29tL2V4aWYvMS4wLyIKICAgICAgICAgICAgeG1sbnM6dGlmZj0iaHR0cDovL25zLmFkb2JlLmNvbS90aWZmLzEuMC8iPgogICAgICAgICA8ZXhpZjpVc2VyQ29tbWVudD5TY3JlZW5zaG90PC9leGlmOlVzZXJDb21tZW50PgogICAgICAgICA8ZXhpZjpQaXhlbFhEaW1lbnNpb24+MzI0PC9leGlmOlBpeGVsWERpbWVuc2lvbj4KICAgICAgICAgPGV4aWY6UGl4ZWxZRGltZW5zaW9uPjE2MjwvZXhpZjpQaXhlbFlEaW1lbnNpb24+CiAgICAgICAgIDx0aWZmOlJlc29sdXRpb25Vbml0PjI8L3RpZmY6UmVzb2x1dGlvblVuaXQ+CiAgICAgICAgIDx0aWZmOlhSZXNvbHV0aW9uPjE0NC8xPC90aWZmOlhSZXNvbHV0aW9uPgogICAgICAgICA8dGlmZjpZUmVzb2x1dGlvbj4xNDQvMTwvdGlmZjpZUmVzb2x1dGlvbj4KICAgICAgICAgPHRpZmY6T3JpZW50YXRpb24+MTwvdGlmZjpPcmllbnRhdGlvbj4KICAgICAgPC9yZGY6RGVzY3JpcHRpb24+CiAgIDwvcmRmOlJERj4KPC94OnhtcG1ldGE+Clsqt0gAAAa1SURBVHgB7d0xbuNIFARQe7CRAt5GgWJdm76AfR+lXphAdUCvE5kLNKfeJJ+SAaH7daEwMwLcr+/v75/X6/XliD+Px2P7mMvlcsTHvcz+eV+b/Pj4eOH3/HHze95O/n5n919+r+u6fv7+Y30CAQIEziuwLMu2+H/OuwUrJ0CAwDEC+VfeKMT7/X7MJ/9Pn/L29rZ98qzrnHV9s64rMZl9fWdZ56yOs65rf655/ScPJgECBNoFFGJ7AuyfAIEhoBAHhQcCBNoFFGJ7AuyfAIEhoBAHhQcCBNoFFGJ7AuyfAIEhoBAHhQcCBNoFFGJ7AuyfAIEhoBAHhQcCBNoFFGJ7AuyfAIEhoBAHhQcCBNoFFGJ7AuyfAIEhoBAHhQcCBNoFFGJ7AuyfAIEhoBAHhQcCBNoFFGJ7AuyfAIEhMH5B7HjHAwECBMoEcn+TO1XKDt52CRD4LnC73bY3/Q3xu413CBAoE8hNoaMQZ72rJOdylrsZZnPklgT9bnJ8zu8sbtmdL1UiYRIgUC+gEOsjAIAAgQgoxEiYBAjUCyjE+ggAIEAgAgoxEiYBAvUCCrE+AgAIEIiAQoyESYBAvYBCrI8AAAIEIqAQI2ESIFAvoBDrIwCAAIEIKMRImAQI1AsoxPoIACBAIAIKMRImAQL1AgqxPgIACBCIgEKMhEmAQL2AQqyPAAACBCIwfkFs3jAJECDQJuBOlbYTt18CBH4UcKfKjzR+QIBAm4A7VQ4+8Vnvjph1XeGffX1nWeesjrOua3+uee1LlUiYBAjUCyjE+ggAIEAgAgoxEiYBAvUCCrE+AgAIEIiAQoyESYBAvYBCrI8AAAIEIqAQI2ESIFAvoBDrIwCAAIEIKMRImAQI1AsoxPoIACBAIAIKMRImAQL1AgqxPgIACBCIgEKMhEmAQL2AQqyPAAACBCKgECNhEiBQL6AQ6yMAgACBCLhTJRImAQK1Au5UqT16GydAYC/gTpW9iNcECNQKuFPl4KOf9e6IWdcV/tnXd5Z1zuo467r255rXvlSJhEmAQL2AQqyPAAACBCKgECNhEiBQL6AQ6yMAgACBCCjESJgECNQLKMT6CAAgQCACCjESJgEC9QIKsT4CAAgQiIBCjIRJgEC9gEKsjwAAAgQioBAjYRIgUC+gEOsjAIAAgQgoxEiYBAjUCyjE+ggAIEAgAgoxEiYBAvUCCrE+AgAIEIiAQoyESYBAvcDruq6f9QoACBCoFliWZdu/W/eqY2DzBAh8CVyv1w1iFOL9fp9a5ix3M8zmyO2YWHN8zvEsbtmd/0OMhEmAQL2AQqyPAAACBCKgECNhEiBQL6AQ6yMAgACBCCjESJgECNQLKMT6CAAgQCACCjESJgEC9QIKsT4CAAgQiIBCjIRJgEC9gEKsjwAAAgQioBAjYRIgUC+gEOsjAIAAgQgoxEiYBAjUCyjE+ggAIEAgAgoxEiYBAvUCCrE+AgAIEIjA+AWxecMkQIBAm8Dj8di27E6VtpO3XwIEvgncbrftPX9D/EbjDQIE2gQul8u25VGIs90Fsj+Qs9zNMJsjt32SnnvN8e92y+58qRIJkwCBegGFWB8BAAQIREAhRsIkQKBeQCHWRwAAAQIRUIiRMAkQqBdQiPURAECAQAQUYiRMAgTqBRRifQQAECAQAYUYCZMAgXoBhVgfAQAECERAIUbCJECgXkAh1kcAAAECEVCIkTAJEKgXUIj1EQBAgEAEFGIkTAIE6gUUYn0EABAgEIHxC2LzhkmAAIE2AXeqtJ24/RIg8KOAO1V+pPEDAgTaBNypcvCJz3rnxqzrCv/s6zvLOmd1nHVd+3PNa1+qRMIkQKBeQCHWRwAAAQIRUIiRMAkQqBdQiPURAECAQAQUYiRMAgTqBRRifQQAECAQAYUYCZMAgXoBhVgfAQAECERAIUbCJECgXkAh1kcAAAECEVCIkTAJEKgXUIj1EQBAgEAEFGIkTAIE6gUUYn0EABAgEAGFGAmTAIF6AYVYHwEABAhEwJ0qkTAJEKgVcKdK7dHbOAECewF3quxFvCZAoFbAnSoHH/2sd0fMuq7wz76+s6xzVsdZ17U/17z2pUokTAIE6gUUYn0EABAgEAGFGAmTAIF6AYVYHwEABAhEQCFGwiRAoF5AIdZHAAABAhFQiJEwCRCoF1CI9REAQIBABBRiJEwCBOoFFGJ9BAAQIBABhRgJkwCBegGFWB8BAAQIREAhRsIkQKBeQCHWRwAAAQIRUIiRMAkQqBdQiPURAECAQAQUYiRMAgTqBV7Xdf2sVwBAgEC1wLIs2/7/BQCDKftRRXgWAAAAAElFTkSuQmCC;" parent="28t_TmLzIudg9PH67Oan-583" vertex="1">
          <mxGeometry width="160" height="80" as="geometry" />
        </mxCell>
        <mxCell id="28t_TmLzIudg9PH67Oan-585" value="" style="rounded=0;whiteSpace=wrap;html=1;fontFamily=Source Code Pro;fontSource=https%3A%2F%2Ffonts.googleapis.com%2Fcss%3Ffamily%3DSource%2BCode%2BPro;fontColor=#66FF66;strokeColor=#030303;fillColor=none;strokeWidth=1;" parent="28t_TmLzIudg9PH67Oan-583" vertex="1">
          <mxGeometry width="160" height="80" as="geometry" />
        </mxCell>
        <mxCell id="28t_TmLzIudg9PH67Oan-608" value="&lt;font style=&quot;font-size: 19px&quot;&gt;PUSH1&lt;/font&gt;" style="text;html=1;strokeColor=none;fillColor=none;align=center;verticalAlign=middle;whiteSpace=wrap;rounded=0;fontFamily=Source Code Pro;fontSource=https%3A%2F%2Ffonts.googleapis.com%2Fcss%3Ffamily%3DSource%2BCode%2BPro;fontColor=#000000;fontSize=25;" parent="28t_TmLzIudg9PH67Oan-583" vertex="1">
          <mxGeometry x="50" y="20" width="60" height="30" as="geometry" />
        </mxCell>
        <mxCell id="28t_TmLzIudg9PH67Oan-586" value="" style="group" parent="1" vertex="1" connectable="0">
          <mxGeometry x="230" y="370" width="160" height="80" as="geometry" />
        </mxCell>
        <mxCell id="28t_TmLzIudg9PH67Oan-587" value="" style="shape=image;verticalLabelPosition=bottom;labelBackgroundColor=default;verticalAlign=top;aspect=fixed;imageAspect=0;image=data:image/png,iVBORw0KGgoAAAANSUhEUgAAAUQAAACiCAYAAAA5gLTtAAABR2lDQ1BJQ0MgUHJvZmlsZQAAKJFjYGASSSwoyGFhYGDIzSspCnJ3UoiIjFJgf8bAzMDPwM0gysCdmFxc4BgQ4ANUwgCjUcG3awyMIPqyLsis13ZWV3aHfPFeJa2yMfrPkgWY6lEAV0pqcTKQ/gPEackFRSUMDIwpQLZyeUkBiN0BZIsUAR0FZM8BsdMh7A0gdhKEfQSsJiTIGci+AWQLJGckAs1gfAFk6yQhiacjsaH2ggCPj7tCaE5JUaKChwsB55IOSlIrSkC0c35BZVFmekaJgiMwlFIVPPOS9XQUjAyMjBgYQGEOUf35BjgsGcU4EGLFBgwMVr1AwQKEWKwIA8OWDAYGvmSEmNokBgZBbgaGw1EFiUWJcAcwfmMpTjM2grC5tzMwsE77//9zOAMDuyYDw9/r////3v7//99lDAzMtxgYDnwDAJ6JX6+ZbAqNAAAAlmVYSWZNTQAqAAAACAAFARIAAwAAAAEAAQAAARoABQAAAAEAAABKARsABQAAAAEAAABSASgAAwAAAAEAAgAAh2kABAAAAAEAAABaAAAAAAAAAJAAAAABAAAAkAAAAAEAA5KGAAcAAAASAAAAhKACAAQAAAABAAABRKADAAQAAAABAAAAogAAAABBU0NJSQAAAFNjcmVlbnNob3R2zH25AAAACXBIWXMAABYlAAAWJQFJUiTwAAAC22lUWHRYTUw6Y29tLmFkb2JlLnhtcAAAAAAAPHg6eG1wbWV0YSB4bWxuczp4PSJhZG9iZTpuczptZXRhLyIgeDp4bXB0az0iWE1QIENvcmUgNi4wLjAiPgogICA8cmRmOlJERiB4bWxuczpyZGY9Imh0dHA6Ly93d3cudzMub3JnLzE5OTkvMDIvMjItcmRmLXN5bnRheC1ucyMiPgogICAgICA8cmRmOkRlc2NyaXB0aW9uIHJkZjphYm91dD0iIgogICAgICAgICAgICB4bWxuczpleGlmPSJodHRwOi8vbnMuYWRvYmUuY29tL2V4aWYvMS4wLyIKICAgICAgICAgICAgeG1sbnM6dGlmZj0iaHR0cDovL25zLmFkb2JlLmNvbS90aWZmLzEuMC8iPgogICAgICAgICA8ZXhpZjpVc2VyQ29tbWVudD5TY3JlZW5zaG90PC9leGlmOlVzZXJDb21tZW50PgogICAgICAgICA8ZXhpZjpQaXhlbFhEaW1lbnNpb24+MzI0PC9leGlmOlBpeGVsWERpbWVuc2lvbj4KICAgICAgICAgPGV4aWY6UGl4ZWxZRGltZW5zaW9uPjE2MjwvZXhpZjpQaXhlbFlEaW1lbnNpb24+CiAgICAgICAgIDx0aWZmOlJlc29sdXRpb25Vbml0PjI8L3RpZmY6UmVzb2x1dGlvblVuaXQ+CiAgICAgICAgIDx0aWZmOlhSZXNvbHV0aW9uPjE0NC8xPC90aWZmOlhSZXNvbHV0aW9uPgogICAgICAgICA8dGlmZjpZUmVzb2x1dGlvbj4xNDQvMTwvdGlmZjpZUmVzb2x1dGlvbj4KICAgICAgICAgPHRpZmY6T3JpZW50YXRpb24+MTwvdGlmZjpPcmllbnRhdGlvbj4KICAgICAgPC9yZGY6RGVzY3JpcHRpb24+CiAgIDwvcmRmOlJERj4KPC94OnhtcG1ldGE+Clsqt0gAAAa1SURBVHgB7d0xbuNIFARQe7CRAt5GgWJdm76AfR+lXphAdUCvE5kLNKfeJJ+SAaH7daEwMwLcr+/v75/X6/XliD+Px2P7mMvlcsTHvcz+eV+b/Pj4eOH3/HHze95O/n5n919+r+u6fv7+Y30CAQIEziuwLMu2+H/OuwUrJ0CAwDEC+VfeKMT7/X7MJ/9Pn/L29rZ98qzrnHV9s64rMZl9fWdZ56yOs65rf655/ScPJgECBNoFFGJ7AuyfAIEhoBAHhQcCBNoFFGJ7AuyfAIEhoBAHhQcCBNoFFGJ7AuyfAIEhoBAHhQcCBNoFFGJ7AuyfAIEhoBAHhQcCBNoFFGJ7AuyfAIEhoBAHhQcCBNoFFGJ7AuyfAIEhoBAHhQcCBNoFFGJ7AuyfAIEhoBAHhQcCBNoFFGJ7AuyfAIEhMH5B7HjHAwECBMoEcn+TO1XKDt52CRD4LnC73bY3/Q3xu413CBAoE8hNoaMQZ72rJOdylrsZZnPklgT9bnJ8zu8sbtmdL1UiYRIgUC+gEOsjAIAAgQgoxEiYBAjUCyjE+ggAIEAgAgoxEiYBAvUCCrE+AgAIEIiAQoyESYBAvYBCrI8AAAIEIqAQI2ESIFAvoBDrIwCAAIEIKMRImAQI1AsoxPoIACBAIAIKMRImAQL1AgqxPgIACBCIgEKMhEmAQL2AQqyPAAACBCIwfkFs3jAJECDQJuBOlbYTt18CBH4UcKfKjzR+QIBAm4A7VQ4+8Vnvjph1XeGffX1nWeesjrOua3+uee1LlUiYBAjUCyjE+ggAIEAgAgoxEiYBAvUCCrE+AgAIEIiAQoyESYBAvYBCrI8AAAIEIqAQI2ESIFAvoBDrIwCAAIEIKMRImAQI1AsoxPoIACBAIAIKMRImAQL1AgqxPgIACBCIgEKMhEmAQL2AQqyPAAACBCKgECNhEiBQL6AQ6yMAgACBCLhTJRImAQK1Au5UqT16GydAYC/gTpW9iNcECNQKuFPl4KOf9e6IWdcV/tnXd5Z1zuo467r255rXvlSJhEmAQL2AQqyPAAACBCKgECNhEiBQL6AQ6yMAgACBCCjESJgECNQLKMT6CAAgQCACCjESJgEC9QIKsT4CAAgQiIBCjIRJgEC9gEKsjwAAAgQioBAjYRIgUC+gEOsjAIAAgQgoxEiYBAjUCyjE+ggAIEAgAgoxEiYBAvUCCrE+AgAIEIiAQoyESYBAvcDruq6f9QoACBCoFliWZdu/W/eqY2DzBAh8CVyv1w1iFOL9fp9a5ix3M8zmyO2YWHN8zvEsbtmd/0OMhEmAQL2AQqyPAAACBCKgECNhEiBQL6AQ6yMAgACBCCjESJgECNQLKMT6CAAgQCACCjESJgEC9QIKsT4CAAgQiIBCjIRJgEC9gEKsjwAAAgQioBAjYRIgUC+gEOsjAIAAgQgoxEiYBAjUCyjE+ggAIEAgAgoxEiYBAvUCCrE+AgAIEIjA+AWxecMkQIBAm8Dj8di27E6VtpO3XwIEvgncbrftPX9D/EbjDQIE2gQul8u25VGIs90Fsj+Qs9zNMJsjt32SnnvN8e92y+58qRIJkwCBegGFWB8BAAQIREAhRsIkQKBeQCHWRwAAAQIRUIiRMAkQqBdQiPURAECAQAQUYiRMAgTqBRRifQQAECAQAYUYCZMAgXoBhVgfAQAECERAIUbCJECgXkAh1kcAAAECEVCIkTAJEKgXUIj1EQBAgEAEFGIkTAIE6gUUYn0EABAgEIHxC2LzhkmAAIE2AXeqtJ24/RIg8KOAO1V+pPEDAgTaBNypcvCJz3rnxqzrCv/s6zvLOmd1nHVd+3PNa1+qRMIkQKBeQCHWRwAAAQIRUIiRMAkQqBdQiPURAECAQAQUYiRMAgTqBRRifQQAECAQAYUYCZMAgXoBhVgfAQAECERAIUbCJECgXkAh1kcAAAECEVCIkTAJEKgXUIj1EQBAgEAEFGIkTAIE6gUUYn0EABAgEAGFGAmTAIF6AYVYHwEABAhEwJ0qkTAJEKgVcKdK7dHbOAECewF3quxFvCZAoFbAnSoHH/2sd0fMuq7wz76+s6xzVsdZ17U/17z2pUokTAIE6gUUYn0EABAgEAGFGAmTAIF6AYVYHwEABAhEQCFGwiRAoF5AIdZHAAABAhFQiJEwCRCoF1CI9REAQIBABBRiJEwCBOoFFGJ9BAAQIBABhRgJkwCBegGFWB8BAAQIREAhRsIkQKBeQCHWRwAAAQIRUIiRMAkQqBdQiPURAECAQAQUYiRMAgTqBV7Xdf2sVwBAgEC1wLIs2/7/BQCDKftRRXgWAAAAAElFTkSuQmCC;" parent="28t_TmLzIudg9PH67Oan-586" vertex="1">
          <mxGeometry width="160" height="80" as="geometry" />
        </mxCell>
        <mxCell id="28t_TmLzIudg9PH67Oan-588" value="&lt;span style=&quot;color: rgb(0 , 0 , 0) ; font-size: 19px&quot;&gt;PUSH1&lt;/span&gt;" style="rounded=0;whiteSpace=wrap;html=1;fontFamily=Source Code Pro;fontSource=https%3A%2F%2Ffonts.googleapis.com%2Fcss%3Ffamily%3DSource%2BCode%2BPro;fontColor=#66FF66;strokeColor=#030303;fillColor=none;strokeWidth=1;" parent="28t_TmLzIudg9PH67Oan-586" vertex="1">
          <mxGeometry width="160" height="80" as="geometry" />
        </mxCell>
        <mxCell id="28t_TmLzIudg9PH67Oan-589" value="" style="group" parent="1" vertex="1" connectable="0">
          <mxGeometry x="230" y="450" width="160" height="80" as="geometry" />
        </mxCell>
        <mxCell id="28t_TmLzIudg9PH67Oan-590" value="" style="shape=image;verticalLabelPosition=bottom;labelBackgroundColor=default;verticalAlign=top;aspect=fixed;imageAspect=0;image=data:image/png,iVBORw0KGgoAAAANSUhEUgAAAUQAAACiCAYAAAA5gLTtAAABR2lDQ1BJQ0MgUHJvZmlsZQAAKJFjYGASSSwoyGFhYGDIzSspCnJ3UoiIjFJgf8bAzMDPwM0gysCdmFxc4BgQ4ANUwgCjUcG3awyMIPqyLsis13ZWV3aHfPFeJa2yMfrPkgWY6lEAV0pqcTKQ/gPEackFRSUMDIwpQLZyeUkBiN0BZIsUAR0FZM8BsdMh7A0gdhKEfQSsJiTIGci+AWQLJGckAs1gfAFk6yQhiacjsaH2ggCPj7tCaE5JUaKChwsB55IOSlIrSkC0c35BZVFmekaJgiMwlFIVPPOS9XQUjAyMjBgYQGEOUf35BjgsGcU4EGLFBgwMVr1AwQKEWKwIA8OWDAYGvmSEmNokBgZBbgaGw1EFiUWJcAcwfmMpTjM2grC5tzMwsE77//9zOAMDuyYDw9/r////3v7//99lDAzMtxgYDnwDAJ6JX6+ZbAqNAAAAlmVYSWZNTQAqAAAACAAFARIAAwAAAAEAAQAAARoABQAAAAEAAABKARsABQAAAAEAAABSASgAAwAAAAEAAgAAh2kABAAAAAEAAABaAAAAAAAAAJAAAAABAAAAkAAAAAEAA5KGAAcAAAASAAAAhKACAAQAAAABAAABRKADAAQAAAABAAAAogAAAABBU0NJSQAAAFNjcmVlbnNob3R2zH25AAAACXBIWXMAABYlAAAWJQFJUiTwAAAC22lUWHRYTUw6Y29tLmFkb2JlLnhtcAAAAAAAPHg6eG1wbWV0YSB4bWxuczp4PSJhZG9iZTpuczptZXRhLyIgeDp4bXB0az0iWE1QIENvcmUgNi4wLjAiPgogICA8cmRmOlJERiB4bWxuczpyZGY9Imh0dHA6Ly93d3cudzMub3JnLzE5OTkvMDIvMjItcmRmLXN5bnRheC1ucyMiPgogICAgICA8cmRmOkRlc2NyaXB0aW9uIHJkZjphYm91dD0iIgogICAgICAgICAgICB4bWxuczpleGlmPSJodHRwOi8vbnMuYWRvYmUuY29tL2V4aWYvMS4wLyIKICAgICAgICAgICAgeG1sbnM6dGlmZj0iaHR0cDovL25zLmFkb2JlLmNvbS90aWZmLzEuMC8iPgogICAgICAgICA8ZXhpZjpVc2VyQ29tbWVudD5TY3JlZW5zaG90PC9leGlmOlVzZXJDb21tZW50PgogICAgICAgICA8ZXhpZjpQaXhlbFhEaW1lbnNpb24+MzI0PC9leGlmOlBpeGVsWERpbWVuc2lvbj4KICAgICAgICAgPGV4aWY6UGl4ZWxZRGltZW5zaW9uPjE2MjwvZXhpZjpQaXhlbFlEaW1lbnNpb24+CiAgICAgICAgIDx0aWZmOlJlc29sdXRpb25Vbml0PjI8L3RpZmY6UmVzb2x1dGlvblVuaXQ+CiAgICAgICAgIDx0aWZmOlhSZXNvbHV0aW9uPjE0NC8xPC90aWZmOlhSZXNvbHV0aW9uPgogICAgICAgICA8dGlmZjpZUmVzb2x1dGlvbj4xNDQvMTwvdGlmZjpZUmVzb2x1dGlvbj4KICAgICAgICAgPHRpZmY6T3JpZW50YXRpb24+MTwvdGlmZjpPcmllbnRhdGlvbj4KICAgICAgPC9yZGY6RGVzY3JpcHRpb24+CiAgIDwvcmRmOlJERj4KPC94OnhtcG1ldGE+Clsqt0gAAAa1SURBVHgB7d0xbuNIFARQe7CRAt5GgWJdm76AfR+lXphAdUCvE5kLNKfeJJ+SAaH7daEwMwLcr+/v75/X6/XliD+Px2P7mMvlcsTHvcz+eV+b/Pj4eOH3/HHze95O/n5n919+r+u6fv7+Y30CAQIEziuwLMu2+H/OuwUrJ0CAwDEC+VfeKMT7/X7MJ/9Pn/L29rZ98qzrnHV9s64rMZl9fWdZ56yOs65rf655/ScPJgECBNoFFGJ7AuyfAIEhoBAHhQcCBNoFFGJ7AuyfAIEhoBAHhQcCBNoFFGJ7AuyfAIEhoBAHhQcCBNoFFGJ7AuyfAIEhoBAHhQcCBNoFFGJ7AuyfAIEhoBAHhQcCBNoFFGJ7AuyfAIEhoBAHhQcCBNoFFGJ7AuyfAIEhoBAHhQcCBNoFFGJ7AuyfAIEhMH5B7HjHAwECBMoEcn+TO1XKDt52CRD4LnC73bY3/Q3xu413CBAoE8hNoaMQZ72rJOdylrsZZnPklgT9bnJ8zu8sbtmdL1UiYRIgUC+gEOsjAIAAgQgoxEiYBAjUCyjE+ggAIEAgAgoxEiYBAvUCCrE+AgAIEIiAQoyESYBAvYBCrI8AAAIEIqAQI2ESIFAvoBDrIwCAAIEIKMRImAQI1AsoxPoIACBAIAIKMRImAQL1AgqxPgIACBCIgEKMhEmAQL2AQqyPAAACBCIwfkFs3jAJECDQJuBOlbYTt18CBH4UcKfKjzR+QIBAm4A7VQ4+8Vnvjph1XeGffX1nWeesjrOua3+uee1LlUiYBAjUCyjE+ggAIEAgAgoxEiYBAvUCCrE+AgAIEIiAQoyESYBAvYBCrI8AAAIEIqAQI2ESIFAvoBDrIwCAAIEIKMRImAQI1AsoxPoIACBAIAIKMRImAQL1AgqxPgIACBCIgEKMhEmAQL2AQqyPAAACBCKgECNhEiBQL6AQ6yMAgACBCLhTJRImAQK1Au5UqT16GydAYC/gTpW9iNcECNQKuFPl4KOf9e6IWdcV/tnXd5Z1zuo467r255rXvlSJhEmAQL2AQqyPAAACBCKgECNhEiBQL6AQ6yMAgACBCCjESJgECNQLKMT6CAAgQCACCjESJgEC9QIKsT4CAAgQiIBCjIRJgEC9gEKsjwAAAgQioBAjYRIgUC+gEOsjAIAAgQgoxEiYBAjUCyjE+ggAIEAgAgoxEiYBAvUCCrE+AgAIEIiAQoyESYBAvcDruq6f9QoACBCoFliWZdu/W/eqY2DzBAh8CVyv1w1iFOL9fp9a5ix3M8zmyO2YWHN8zvEsbtmd/0OMhEmAQL2AQqyPAAACBCKgECNhEiBQL6AQ6yMAgACBCCjESJgECNQLKMT6CAAgQCACCjESJgEC9QIKsT4CAAgQiIBCjIRJgEC9gEKsjwAAAgQioBAjYRIgUC+gEOsjAIAAgQgoxEiYBAjUCyjE+ggAIEAgAgoxEiYBAvUCCrE+AgAIEIjA+AWxecMkQIBAm8Dj8di27E6VtpO3XwIEvgncbrftPX9D/EbjDQIE2gQul8u25VGIs90Fsj+Qs9zNMJsjt32SnnvN8e92y+58qRIJkwCBegGFWB8BAAQIREAhRsIkQKBeQCHWRwAAAQIRUIiRMAkQqBdQiPURAECAQAQUYiRMAgTqBRRifQQAECAQAYUYCZMAgXoBhVgfAQAECERAIUbCJECgXkAh1kcAAAECEVCIkTAJEKgXUIj1EQBAgEAEFGIkTAIE6gUUYn0EABAgEIHxC2LzhkmAAIE2AXeqtJ24/RIg8KOAO1V+pPEDAgTaBNypcvCJz3rnxqzrCv/s6zvLOmd1nHVd+3PNa1+qRMIkQKBeQCHWRwAAAQIRUIiRMAkQqBdQiPURAECAQAQUYiRMAgTqBRRifQQAECAQAYUYCZMAgXoBhVgfAQAECERAIUbCJECgXkAh1kcAAAECEVCIkTAJEKgXUIj1EQBAgEAEFGIkTAIE6gUUYn0EABAgEAGFGAmTAIF6AYVYHwEABAhEwJ0qkTAJEKgVcKdK7dHbOAECewF3quxFvCZAoFbAnSoHH/2sd0fMuq7wz76+s6xzVsdZ17U/17z2pUokTAIE6gUUYn0EABAgEAGFGAmTAIF6AYVYHwEABAhEQCFGwiRAoF5AIdZHAAABAhFQiJEwCRCoF1CI9REAQIBABBRiJEwCBOoFFGJ9BAAQIBABhRgJkwCBegGFWB8BAAQIREAhRsIkQKBeQCHWRwAAAQIRUIiRMAkQqBdQiPURAECAQAQUYiRMAgTqBV7Xdf2sVwBAgEC1wLIs2/7/BQCDKftRRXgWAAAAAElFTkSuQmCC;" parent="28t_TmLzIudg9PH67Oan-589" vertex="1">
          <mxGeometry width="160" height="80" as="geometry" />
        </mxCell>
        <mxCell id="28t_TmLzIudg9PH67Oan-591" value="&lt;font color=&quot;#000000&quot;&gt;&lt;span style=&quot;font-size: 19px&quot;&gt;ADD&lt;/span&gt;&lt;/font&gt;" style="rounded=0;whiteSpace=wrap;html=1;fontFamily=Source Code Pro;fontSource=https%3A%2F%2Ffonts.googleapis.com%2Fcss%3Ffamily%3DSource%2BCode%2BPro;fontColor=#66FF66;strokeColor=#030303;fillColor=none;strokeWidth=1;" parent="28t_TmLzIudg9PH67Oan-589" vertex="1">
          <mxGeometry width="160" height="80" as="geometry" />
        </mxCell>
        <mxCell id="28t_TmLzIudg9PH67Oan-592" value="" style="group" parent="1" vertex="1" connectable="0">
          <mxGeometry x="230" y="530" width="160" height="80" as="geometry" />
        </mxCell>
        <mxCell id="28t_TmLzIudg9PH67Oan-593" value="" style="shape=image;verticalLabelPosition=bottom;labelBackgroundColor=default;verticalAlign=top;aspect=fixed;imageAspect=0;image=data:image/png,iVBORw0KGgoAAAANSUhEUgAAAUQAAACiCAYAAAA5gLTtAAABR2lDQ1BJQ0MgUHJvZmlsZQAAKJFjYGASSSwoyGFhYGDIzSspCnJ3UoiIjFJgf8bAzMDPwM0gysCdmFxc4BgQ4ANUwgCjUcG3awyMIPqyLsis13ZWV3aHfPFeJa2yMfrPkgWY6lEAV0pqcTKQ/gPEackFRSUMDIwpQLZyeUkBiN0BZIsUAR0FZM8BsdMh7A0gdhKEfQSsJiTIGci+AWQLJGckAs1gfAFk6yQhiacjsaH2ggCPj7tCaE5JUaKChwsB55IOSlIrSkC0c35BZVFmekaJgiMwlFIVPPOS9XQUjAyMjBgYQGEOUf35BjgsGcU4EGLFBgwMVr1AwQKEWKwIA8OWDAYGvmSEmNokBgZBbgaGw1EFiUWJcAcwfmMpTjM2grC5tzMwsE77//9zOAMDuyYDw9/r////3v7//99lDAzMtxgYDnwDAJ6JX6+ZbAqNAAAAlmVYSWZNTQAqAAAACAAFARIAAwAAAAEAAQAAARoABQAAAAEAAABKARsABQAAAAEAAABSASgAAwAAAAEAAgAAh2kABAAAAAEAAABaAAAAAAAAAJAAAAABAAAAkAAAAAEAA5KGAAcAAAASAAAAhKACAAQAAAABAAABRKADAAQAAAABAAAAogAAAABBU0NJSQAAAFNjcmVlbnNob3R2zH25AAAACXBIWXMAABYlAAAWJQFJUiTwAAAC22lUWHRYTUw6Y29tLmFkb2JlLnhtcAAAAAAAPHg6eG1wbWV0YSB4bWxuczp4PSJhZG9iZTpuczptZXRhLyIgeDp4bXB0az0iWE1QIENvcmUgNi4wLjAiPgogICA8cmRmOlJERiB4bWxuczpyZGY9Imh0dHA6Ly93d3cudzMub3JnLzE5OTkvMDIvMjItcmRmLXN5bnRheC1ucyMiPgogICAgICA8cmRmOkRlc2NyaXB0aW9uIHJkZjphYm91dD0iIgogICAgICAgICAgICB4bWxuczpleGlmPSJodHRwOi8vbnMuYWRvYmUuY29tL2V4aWYvMS4wLyIKICAgICAgICAgICAgeG1sbnM6dGlmZj0iaHR0cDovL25zLmFkb2JlLmNvbS90aWZmLzEuMC8iPgogICAgICAgICA8ZXhpZjpVc2VyQ29tbWVudD5TY3JlZW5zaG90PC9leGlmOlVzZXJDb21tZW50PgogICAgICAgICA8ZXhpZjpQaXhlbFhEaW1lbnNpb24+MzI0PC9leGlmOlBpeGVsWERpbWVuc2lvbj4KICAgICAgICAgPGV4aWY6UGl4ZWxZRGltZW5zaW9uPjE2MjwvZXhpZjpQaXhlbFlEaW1lbnNpb24+CiAgICAgICAgIDx0aWZmOlJlc29sdXRpb25Vbml0PjI8L3RpZmY6UmVzb2x1dGlvblVuaXQ+CiAgICAgICAgIDx0aWZmOlhSZXNvbHV0aW9uPjE0NC8xPC90aWZmOlhSZXNvbHV0aW9uPgogICAgICAgICA8dGlmZjpZUmVzb2x1dGlvbj4xNDQvMTwvdGlmZjpZUmVzb2x1dGlvbj4KICAgICAgICAgPHRpZmY6T3JpZW50YXRpb24+MTwvdGlmZjpPcmllbnRhdGlvbj4KICAgICAgPC9yZGY6RGVzY3JpcHRpb24+CiAgIDwvcmRmOlJERj4KPC94OnhtcG1ldGE+Clsqt0gAAAa1SURBVHgB7d0xbuNIFARQe7CRAt5GgWJdm76AfR+lXphAdUCvE5kLNKfeJJ+SAaH7daEwMwLcr+/v75/X6/XliD+Px2P7mMvlcsTHvcz+eV+b/Pj4eOH3/HHze95O/n5n919+r+u6fv7+Y30CAQIEziuwLMu2+H/OuwUrJ0CAwDEC+VfeKMT7/X7MJ/9Pn/L29rZ98qzrnHV9s64rMZl9fWdZ56yOs65rf655/ScPJgECBNoFFGJ7AuyfAIEhoBAHhQcCBNoFFGJ7AuyfAIEhoBAHhQcCBNoFFGJ7AuyfAIEhoBAHhQcCBNoFFGJ7AuyfAIEhoBAHhQcCBNoFFGJ7AuyfAIEhoBAHhQcCBNoFFGJ7AuyfAIEhoBAHhQcCBNoFFGJ7AuyfAIEhoBAHhQcCBNoFFGJ7AuyfAIEhMH5B7HjHAwECBMoEcn+TO1XKDt52CRD4LnC73bY3/Q3xu413CBAoE8hNoaMQZ72rJOdylrsZZnPklgT9bnJ8zu8sbtmdL1UiYRIgUC+gEOsjAIAAgQgoxEiYBAjUCyjE+ggAIEAgAgoxEiYBAvUCCrE+AgAIEIiAQoyESYBAvYBCrI8AAAIEIqAQI2ESIFAvoBDrIwCAAIEIKMRImAQI1AsoxPoIACBAIAIKMRImAQL1AgqxPgIACBCIgEKMhEmAQL2AQqyPAAACBCIwfkFs3jAJECDQJuBOlbYTt18CBH4UcKfKjzR+QIBAm4A7VQ4+8Vnvjph1XeGffX1nWeesjrOua3+uee1LlUiYBAjUCyjE+ggAIEAgAgoxEiYBAvUCCrE+AgAIEIiAQoyESYBAvYBCrI8AAAIEIqAQI2ESIFAvoBDrIwCAAIEIKMRImAQI1AsoxPoIACBAIAIKMRImAQL1AgqxPgIACBCIgEKMhEmAQL2AQqyPAAACBCKgECNhEiBQL6AQ6yMAgACBCLhTJRImAQK1Au5UqT16GydAYC/gTpW9iNcECNQKuFPl4KOf9e6IWdcV/tnXd5Z1zuo467r255rXvlSJhEmAQL2AQqyPAAACBCKgECNhEiBQL6AQ6yMAgACBCCjESJgECNQLKMT6CAAgQCACCjESJgEC9QIKsT4CAAgQiIBCjIRJgEC9gEKsjwAAAgQioBAjYRIgUC+gEOsjAIAAgQgoxEiYBAjUCyjE+ggAIEAgAgoxEiYBAvUCCrE+AgAIEIiAQoyESYBAvcDruq6f9QoACBCoFliWZdu/W/eqY2DzBAh8CVyv1w1iFOL9fp9a5ix3M8zmyO2YWHN8zvEsbtmd/0OMhEmAQL2AQqyPAAACBCKgECNhEiBQL6AQ6yMAgACBCCjESJgECNQLKMT6CAAgQCACCjESJgEC9QIKsT4CAAgQiIBCjIRJgEC9gEKsjwAAAgQioBAjYRIgUC+gEOsjAIAAgQgoxEiYBAjUCyjE+ggAIEAgAgoxEiYBAvUCCrE+AgAIEIjA+AWxecMkQIBAm8Dj8di27E6VtpO3XwIEvgncbrftPX9D/EbjDQIE2gQul8u25VGIs90Fsj+Qs9zNMJsjt32SnnvN8e92y+58qRIJkwCBegGFWB8BAAQIREAhRsIkQKBeQCHWRwAAAQIRUIiRMAkQqBdQiPURAECAQAQUYiRMAgTqBRRifQQAECAQAYUYCZMAgXoBhVgfAQAECERAIUbCJECgXkAh1kcAAAECEVCIkTAJEKgXUIj1EQBAgEAEFGIkTAIE6gUUYn0EABAgEIHxC2LzhkmAAIE2AXeqtJ24/RIg8KOAO1V+pPEDAgTaBNypcvCJz3rnxqzrCv/s6zvLOmd1nHVd+3PNa1+qRMIkQKBeQCHWRwAAAQIRUIiRMAkQqBdQiPURAECAQAQUYiRMAgTqBRRifQQAECAQAYUYCZMAgXoBhVgfAQAECERAIUbCJECgXkAh1kcAAAECEVCIkTAJEKgXUIj1EQBAgEAEFGIkTAIE6gUUYn0EABAgEAGFGAmTAIF6AYVYHwEABAhEwJ0qkTAJEKgVcKdK7dHbOAECewF3quxFvCZAoFbAnSoHH/2sd0fMuq7wz76+s6xzVsdZ17U/17z2pUokTAIE6gUUYn0EABAgEAGFGAmTAIF6AYVYHwEABAhEQCFGwiRAoF5AIdZHAAABAhFQiJEwCRCoF1CI9REAQIBABBRiJEwCBOoFFGJ9BAAQIBABhRgJkwCBegGFWB8BAAQIREAhRsIkQKBeQCHWRwAAAQIRUIiRMAkQqBdQiPURAECAQAQUYiRMAgTqBV7Xdf2sVwBAgEC1wLIs2/7/BQCDKftRRXgWAAAAAElFTkSuQmCC;" parent="28t_TmLzIudg9PH67Oan-592" vertex="1">
          <mxGeometry width="160" height="80" as="geometry" />
        </mxCell>
        <mxCell id="28t_TmLzIudg9PH67Oan-594" value="&lt;span style=&quot;color: rgb(0 , 0 , 0) ; font-size: 19px&quot;&gt;PUSH1&lt;/span&gt;" style="rounded=0;whiteSpace=wrap;html=1;fontFamily=Source Code Pro;fontSource=https%3A%2F%2Ffonts.googleapis.com%2Fcss%3Ffamily%3DSource%2BCode%2BPro;fontColor=#66FF66;strokeColor=#030303;fillColor=none;strokeWidth=1;" parent="28t_TmLzIudg9PH67Oan-592" vertex="1">
          <mxGeometry width="160" height="80" as="geometry" />
        </mxCell>
        <mxCell id="28t_TmLzIudg9PH67Oan-695" value="PC=6" style="text;html=1;strokeColor=none;fillColor=none;align=left;verticalAlign=middle;whiteSpace=wrap;rounded=0;fontFamily=Source Code Pro;fontSource=https%3A%2F%2Ffonts.googleapis.com%2Fcss%3Ffamily%3DSource%2BCode%2BPro;fontSize=12;fontColor=#000000;fontStyle=0" parent="28t_TmLzIudg9PH67Oan-592" vertex="1">
          <mxGeometry x="10" y="50" width="60" height="30" as="geometry" />
        </mxCell>
        <mxCell id="28t_TmLzIudg9PH67Oan-595" value="" style="group" parent="1" vertex="1" connectable="0">
          <mxGeometry x="230" y="610" width="160" height="80" as="geometry" />
        </mxCell>
        <mxCell id="28t_TmLzIudg9PH67Oan-596" value="" style="shape=image;verticalLabelPosition=bottom;labelBackgroundColor=default;verticalAlign=top;aspect=fixed;imageAspect=0;image=data:image/png,iVBORw0KGgoAAAANSUhEUgAAAUQAAACiCAYAAAA5gLTtAAABR2lDQ1BJQ0MgUHJvZmlsZQAAKJFjYGASSSwoyGFhYGDIzSspCnJ3UoiIjFJgf8bAzMDPwM0gysCdmFxc4BgQ4ANUwgCjUcG3awyMIPqyLsis13ZWV3aHfPFeJa2yMfrPkgWY6lEAV0pqcTKQ/gPEackFRSUMDIwpQLZyeUkBiN0BZIsUAR0FZM8BsdMh7A0gdhKEfQSsJiTIGci+AWQLJGckAs1gfAFk6yQhiacjsaH2ggCPj7tCaE5JUaKChwsB55IOSlIrSkC0c35BZVFmekaJgiMwlFIVPPOS9XQUjAyMjBgYQGEOUf35BjgsGcU4EGLFBgwMVr1AwQKEWKwIA8OWDAYGvmSEmNokBgZBbgaGw1EFiUWJcAcwfmMpTjM2grC5tzMwsE77//9zOAMDuyYDw9/r////3v7//99lDAzMtxgYDnwDAJ6JX6+ZbAqNAAAAlmVYSWZNTQAqAAAACAAFARIAAwAAAAEAAQAAARoABQAAAAEAAABKARsABQAAAAEAAABSASgAAwAAAAEAAgAAh2kABAAAAAEAAABaAAAAAAAAAJAAAAABAAAAkAAAAAEAA5KGAAcAAAASAAAAhKACAAQAAAABAAABRKADAAQAAAABAAAAogAAAABBU0NJSQAAAFNjcmVlbnNob3R2zH25AAAACXBIWXMAABYlAAAWJQFJUiTwAAAC22lUWHRYTUw6Y29tLmFkb2JlLnhtcAAAAAAAPHg6eG1wbWV0YSB4bWxuczp4PSJhZG9iZTpuczptZXRhLyIgeDp4bXB0az0iWE1QIENvcmUgNi4wLjAiPgogICA8cmRmOlJERiB4bWxuczpyZGY9Imh0dHA6Ly93d3cudzMub3JnLzE5OTkvMDIvMjItcmRmLXN5bnRheC1ucyMiPgogICAgICA8cmRmOkRlc2NyaXB0aW9uIHJkZjphYm91dD0iIgogICAgICAgICAgICB4bWxuczpleGlmPSJodHRwOi8vbnMuYWRvYmUuY29tL2V4aWYvMS4wLyIKICAgICAgICAgICAgeG1sbnM6dGlmZj0iaHR0cDovL25zLmFkb2JlLmNvbS90aWZmLzEuMC8iPgogICAgICAgICA8ZXhpZjpVc2VyQ29tbWVudD5TY3JlZW5zaG90PC9leGlmOlVzZXJDb21tZW50PgogICAgICAgICA8ZXhpZjpQaXhlbFhEaW1lbnNpb24+MzI0PC9leGlmOlBpeGVsWERpbWVuc2lvbj4KICAgICAgICAgPGV4aWY6UGl4ZWxZRGltZW5zaW9uPjE2MjwvZXhpZjpQaXhlbFlEaW1lbnNpb24+CiAgICAgICAgIDx0aWZmOlJlc29sdXRpb25Vbml0PjI8L3RpZmY6UmVzb2x1dGlvblVuaXQ+CiAgICAgICAgIDx0aWZmOlhSZXNvbHV0aW9uPjE0NC8xPC90aWZmOlhSZXNvbHV0aW9uPgogICAgICAgICA8dGlmZjpZUmVzb2x1dGlvbj4xNDQvMTwvdGlmZjpZUmVzb2x1dGlvbj4KICAgICAgICAgPHRpZmY6T3JpZW50YXRpb24+MTwvdGlmZjpPcmllbnRhdGlvbj4KICAgICAgPC9yZGY6RGVzY3JpcHRpb24+CiAgIDwvcmRmOlJERj4KPC94OnhtcG1ldGE+Clsqt0gAAAa1SURBVHgB7d0xbuNIFARQe7CRAt5GgWJdm76AfR+lXphAdUCvE5kLNKfeJJ+SAaH7daEwMwLcr+/v75/X6/XliD+Px2P7mMvlcsTHvcz+eV+b/Pj4eOH3/HHze95O/n5n919+r+u6fv7+Y30CAQIEziuwLMu2+H/OuwUrJ0CAwDEC+VfeKMT7/X7MJ/9Pn/L29rZ98qzrnHV9s64rMZl9fWdZ56yOs65rf655/ScPJgECBNoFFGJ7AuyfAIEhoBAHhQcCBNoFFGJ7AuyfAIEhoBAHhQcCBNoFFGJ7AuyfAIEhoBAHhQcCBNoFFGJ7AuyfAIEhoBAHhQcCBNoFFGJ7AuyfAIEhoBAHhQcCBNoFFGJ7AuyfAIEhoBAHhQcCBNoFFGJ7AuyfAIEhoBAHhQcCBNoFFGJ7AuyfAIEhMH5B7HjHAwECBMoEcn+TO1XKDt52CRD4LnC73bY3/Q3xu413CBAoE8hNoaMQZ72rJOdylrsZZnPklgT9bnJ8zu8sbtmdL1UiYRIgUC+gEOsjAIAAgQgoxEiYBAjUCyjE+ggAIEAgAgoxEiYBAvUCCrE+AgAIEIiAQoyESYBAvYBCrI8AAAIEIqAQI2ESIFAvoBDrIwCAAIEIKMRImAQI1AsoxPoIACBAIAIKMRImAQL1AgqxPgIACBCIgEKMhEmAQL2AQqyPAAACBCIwfkFs3jAJECDQJuBOlbYTt18CBH4UcKfKjzR+QIBAm4A7VQ4+8Vnvjph1XeGffX1nWeesjrOua3+uee1LlUiYBAjUCyjE+ggAIEAgAgoxEiYBAvUCCrE+AgAIEIiAQoyESYBAvYBCrI8AAAIEIqAQI2ESIFAvoBDrIwCAAIEIKMRImAQI1AsoxPoIACBAIAIKMRImAQL1AgqxPgIACBCIgEKMhEmAQL2AQqyPAAACBCKgECNhEiBQL6AQ6yMAgACBCLhTJRImAQK1Au5UqT16GydAYC/gTpW9iNcECNQKuFPl4KOf9e6IWdcV/tnXd5Z1zuo467r255rXvlSJhEmAQL2AQqyPAAACBCKgECNhEiBQL6AQ6yMAgACBCCjESJgECNQLKMT6CAAgQCACCjESJgEC9QIKsT4CAAgQiIBCjIRJgEC9gEKsjwAAAgQioBAjYRIgUC+gEOsjAIAAgQgoxEiYBAjUCyjE+ggAIEAgAgoxEiYBAvUCCrE+AgAIEIiAQoyESYBAvcDruq6f9QoACBCoFliWZdu/W/eqY2DzBAh8CVyv1w1iFOL9fp9a5ix3M8zmyO2YWHN8zvEsbtmd/0OMhEmAQL2AQqyPAAACBCKgECNhEiBQL6AQ6yMAgACBCCjESJgECNQLKMT6CAAgQCACCjESJgEC9QIKsT4CAAgQiIBCjIRJgEC9gEKsjwAAAgQioBAjYRIgUC+gEOsjAIAAgQgoxEiYBAjUCyjE+ggAIEAgAgoxEiYBAvUCCrE+AgAIEIjA+AWxecMkQIBAm8Dj8di27E6VtpO3XwIEvgncbrftPX9D/EbjDQIE2gQul8u25VGIs90Fsj+Qs9zNMJsjt32SnnvN8e92y+58qRIJkwCBegGFWB8BAAQIREAhRsIkQKBeQCHWRwAAAQIRUIiRMAkQqBdQiPURAECAQAQUYiRMAgTqBRRifQQAECAQAYUYCZMAgXoBhVgfAQAECERAIUbCJECgXkAh1kcAAAECEVCIkTAJEKgXUIj1EQBAgEAEFGIkTAIE6gUUYn0EABAgEIHxC2LzhkmAAIE2AXeqtJ24/RIg8KOAO1V+pPEDAgTaBNypcvCJz3rnxqzrCv/s6zvLOmd1nHVd+3PNa1+qRMIkQKBeQCHWRwAAAQIRUIiRMAkQqBdQiPURAECAQAQUYiRMAgTqBRRifQQAECAQAYUYCZMAgXoBhVgfAQAECERAIUbCJECgXkAh1kcAAAECEVCIkTAJEKgXUIj1EQBAgEAEFGIkTAIE6gUUYn0EABAgEAGFGAmTAIF6AYVYHwEABAhEwJ0qkTAJEKgVcKdK7dHbOAECewF3quxFvCZAoFbAnSoHH/2sd0fMuq7wz76+s6xzVsdZ17U/17z2pUokTAIE6gUUYn0EABAgEAGFGAmTAIF6AYVYHwEABAhEQCFGwiRAoF5AIdZHAAABAhFQiJEwCRCoF1CI9REAQIBABBRiJEwCBOoFFGJ9BAAQIBABhRgJkwCBegGFWB8BAAQIREAhRsIkQKBeQCHWRwAAAQIRUIiRMAkQqBdQiPURAECAQAQUYiRMAgTqBV7Xdf2sVwBAgEC1wLIs2/7/BQCDKftRRXgWAAAAAElFTkSuQmCC;" parent="28t_TmLzIudg9PH67Oan-595" vertex="1">
          <mxGeometry width="160" height="80" as="geometry" />
        </mxCell>
        <mxCell id="28t_TmLzIudg9PH67Oan-597" value="&lt;font color=&quot;#000000&quot;&gt;&lt;span style=&quot;font-size: 19px&quot;&gt;SSTORE&lt;/span&gt;&lt;/font&gt;" style="rounded=0;whiteSpace=wrap;html=1;fontFamily=Source Code Pro;fontSource=https%3A%2F%2Ffonts.googleapis.com%2Fcss%3Ffamily%3DSource%2BCode%2BPro;fontColor=#66FF66;strokeColor=#030303;fillColor=none;strokeWidth=1;" parent="28t_TmLzIudg9PH67Oan-595" vertex="1">
          <mxGeometry width="160" height="80" as="geometry" />
        </mxCell>
        <mxCell id="28t_TmLzIudg9PH67Oan-646" value="PC=7" style="text;html=1;strokeColor=none;fillColor=none;align=left;verticalAlign=middle;whiteSpace=wrap;rounded=0;fontFamily=Source Code Pro;fontSource=https%3A%2F%2Ffonts.googleapis.com%2Fcss%3Ffamily%3DSource%2BCode%2BPro;fontSize=12;fontColor=#000000;fontStyle=4" parent="28t_TmLzIudg9PH67Oan-595" vertex="1">
          <mxGeometry x="10" y="50" width="60" height="30" as="geometry" />
        </mxCell>
        <mxCell id="28t_TmLzIudg9PH67Oan-598" value="" style="group" parent="1" vertex="1" connectable="0">
          <mxGeometry x="230" y="690" width="160" height="80" as="geometry" />
        </mxCell>
        <mxCell id="28t_TmLzIudg9PH67Oan-599" value="" style="shape=image;verticalLabelPosition=bottom;labelBackgroundColor=default;verticalAlign=top;aspect=fixed;imageAspect=0;image=data:image/png,iVBORw0KGgoAAAANSUhEUgAAAUQAAACiCAYAAAA5gLTtAAABR2lDQ1BJQ0MgUHJvZmlsZQAAKJFjYGASSSwoyGFhYGDIzSspCnJ3UoiIjFJgf8bAzMDPwM0gysCdmFxc4BgQ4ANUwgCjUcG3awyMIPqyLsis13ZWV3aHfPFeJa2yMfrPkgWY6lEAV0pqcTKQ/gPEackFRSUMDIwpQLZyeUkBiN0BZIsUAR0FZM8BsdMh7A0gdhKEfQSsJiTIGci+AWQLJGckAs1gfAFk6yQhiacjsaH2ggCPj7tCaE5JUaKChwsB55IOSlIrSkC0c35BZVFmekaJgiMwlFIVPPOS9XQUjAyMjBgYQGEOUf35BjgsGcU4EGLFBgwMVr1AwQKEWKwIA8OWDAYGvmSEmNokBgZBbgaGw1EFiUWJcAcwfmMpTjM2grC5tzMwsE77//9zOAMDuyYDw9/r////3v7//99lDAzMtxgYDnwDAJ6JX6+ZbAqNAAAAlmVYSWZNTQAqAAAACAAFARIAAwAAAAEAAQAAARoABQAAAAEAAABKARsABQAAAAEAAABSASgAAwAAAAEAAgAAh2kABAAAAAEAAABaAAAAAAAAAJAAAAABAAAAkAAAAAEAA5KGAAcAAAASAAAAhKACAAQAAAABAAABRKADAAQAAAABAAAAogAAAABBU0NJSQAAAFNjcmVlbnNob3R2zH25AAAACXBIWXMAABYlAAAWJQFJUiTwAAAC22lUWHRYTUw6Y29tLmFkb2JlLnhtcAAAAAAAPHg6eG1wbWV0YSB4bWxuczp4PSJhZG9iZTpuczptZXRhLyIgeDp4bXB0az0iWE1QIENvcmUgNi4wLjAiPgogICA8cmRmOlJERiB4bWxuczpyZGY9Imh0dHA6Ly93d3cudzMub3JnLzE5OTkvMDIvMjItcmRmLXN5bnRheC1ucyMiPgogICAgICA8cmRmOkRlc2NyaXB0aW9uIHJkZjphYm91dD0iIgogICAgICAgICAgICB4bWxuczpleGlmPSJodHRwOi8vbnMuYWRvYmUuY29tL2V4aWYvMS4wLyIKICAgICAgICAgICAgeG1sbnM6dGlmZj0iaHR0cDovL25zLmFkb2JlLmNvbS90aWZmLzEuMC8iPgogICAgICAgICA8ZXhpZjpVc2VyQ29tbWVudD5TY3JlZW5zaG90PC9leGlmOlVzZXJDb21tZW50PgogICAgICAgICA8ZXhpZjpQaXhlbFhEaW1lbnNpb24+MzI0PC9leGlmOlBpeGVsWERpbWVuc2lvbj4KICAgICAgICAgPGV4aWY6UGl4ZWxZRGltZW5zaW9uPjE2MjwvZXhpZjpQaXhlbFlEaW1lbnNpb24+CiAgICAgICAgIDx0aWZmOlJlc29sdXRpb25Vbml0PjI8L3RpZmY6UmVzb2x1dGlvblVuaXQ+CiAgICAgICAgIDx0aWZmOlhSZXNvbHV0aW9uPjE0NC8xPC90aWZmOlhSZXNvbHV0aW9uPgogICAgICAgICA8dGlmZjpZUmVzb2x1dGlvbj4xNDQvMTwvdGlmZjpZUmVzb2x1dGlvbj4KICAgICAgICAgPHRpZmY6T3JpZW50YXRpb24+MTwvdGlmZjpPcmllbnRhdGlvbj4KICAgICAgPC9yZGY6RGVzY3JpcHRpb24+CiAgIDwvcmRmOlJERj4KPC94OnhtcG1ldGE+Clsqt0gAAAa1SURBVHgB7d0xbuNIFARQe7CRAt5GgWJdm76AfR+lXphAdUCvE5kLNKfeJJ+SAaH7daEwMwLcr+/v75/X6/XliD+Px2P7mMvlcsTHvcz+eV+b/Pj4eOH3/HHze95O/n5n919+r+u6fv7+Y30CAQIEziuwLMu2+H/OuwUrJ0CAwDEC+VfeKMT7/X7MJ/9Pn/L29rZ98qzrnHV9s64rMZl9fWdZ56yOs65rf655/ScPJgECBNoFFGJ7AuyfAIEhoBAHhQcCBNoFFGJ7AuyfAIEhoBAHhQcCBNoFFGJ7AuyfAIEhoBAHhQcCBNoFFGJ7AuyfAIEhoBAHhQcCBNoFFGJ7AuyfAIEhoBAHhQcCBNoFFGJ7AuyfAIEhoBAHhQcCBNoFFGJ7AuyfAIEhoBAHhQcCBNoFFGJ7AuyfAIEhMH5B7HjHAwECBMoEcn+TO1XKDt52CRD4LnC73bY3/Q3xu413CBAoE8hNoaMQZ72rJOdylrsZZnPklgT9bnJ8zu8sbtmdL1UiYRIgUC+gEOsjAIAAgQgoxEiYBAjUCyjE+ggAIEAgAgoxEiYBAvUCCrE+AgAIEIiAQoyESYBAvYBCrI8AAAIEIqAQI2ESIFAvoBDrIwCAAIEIKMRImAQI1AsoxPoIACBAIAIKMRImAQL1AgqxPgIACBCIgEKMhEmAQL2AQqyPAAACBCIwfkFs3jAJECDQJuBOlbYTt18CBH4UcKfKjzR+QIBAm4A7VQ4+8Vnvjph1XeGffX1nWeesjrOua3+uee1LlUiYBAjUCyjE+ggAIEAgAgoxEiYBAvUCCrE+AgAIEIiAQoyESYBAvYBCrI8AAAIEIqAQI2ESIFAvoBDrIwCAAIEIKMRImAQI1AsoxPoIACBAIAIKMRImAQL1AgqxPgIACBCIgEKMhEmAQL2AQqyPAAACBCKgECNhEiBQL6AQ6yMAgACBCLhTJRImAQK1Au5UqT16GydAYC/gTpW9iNcECNQKuFPl4KOf9e6IWdcV/tnXd5Z1zuo467r255rXvlSJhEmAQL2AQqyPAAACBCKgECNhEiBQL6AQ6yMAgACBCCjESJgECNQLKMT6CAAgQCACCjESJgEC9QIKsT4CAAgQiIBCjIRJgEC9gEKsjwAAAgQioBAjYRIgUC+gEOsjAIAAgQgoxEiYBAjUCyjE+ggAIEAgAgoxEiYBAvUCCrE+AgAIEIiAQoyESYBAvcDruq6f9QoACBCoFliWZdu/W/eqY2DzBAh8CVyv1w1iFOL9fp9a5ix3M8zmyO2YWHN8zvEsbtmd/0OMhEmAQL2AQqyPAAACBCKgECNhEiBQL6AQ6yMAgACBCCjESJgECNQLKMT6CAAgQCACCjESJgEC9QIKsT4CAAgQiIBCjIRJgEC9gEKsjwAAAgQioBAjYRIgUC+gEOsjAIAAgQgoxEiYBAjUCyjE+ggAIEAgAgoxEiYBAvUCCrE+AgAIEIjA+AWxecMkQIBAm8Dj8di27E6VtpO3XwIEvgncbrftPX9D/EbjDQIE2gQul8u25VGIs90Fsj+Qs9zNMJsjt32SnnvN8e92y+58qRIJkwCBegGFWB8BAAQIREAhRsIkQKBeQCHWRwAAAQIRUIiRMAkQqBdQiPURAECAQAQUYiRMAgTqBRRifQQAECAQAYUYCZMAgXoBhVgfAQAECERAIUbCJECgXkAh1kcAAAECEVCIkTAJEKgXUIj1EQBAgEAEFGIkTAIE6gUUYn0EABAgEIHxC2LzhkmAAIE2AXeqtJ24/RIg8KOAO1V+pPEDAgTaBNypcvCJz3rnxqzrCv/s6zvLOmd1nHVd+3PNa1+qRMIkQKBeQCHWRwAAAQIRUIiRMAkQqBdQiPURAECAQAQUYiRMAgTqBRRifQQAECAQAYUYCZMAgXoBhVgfAQAECERAIUbCJECgXkAh1kcAAAECEVCIkTAJEKgXUIj1EQBAgEAEFGIkTAIE6gUUYn0EABAgEAGFGAmTAIF6AYVYHwEABAhEwJ0qkTAJEKgVcKdK7dHbOAECewF3quxFvCZAoFbAnSoHH/2sd0fMuq7wz76+s6xzVsdZ17U/17z2pUokTAIE6gUUYn0EABAgEAGFGAmTAIF6AYVYHwEABAhEQCFGwiRAoF5AIdZHAAABAhFQiJEwCRCoF1CI9REAQIBABBRiJEwCBOoFFGJ9BAAQIBABhRgJkwCBegGFWB8BAAQIREAhRsIkQKBeQCHWRwAAAQIRUIiRMAkQqBdQiPURAECAQAQUYiRMAgTqBV7Xdf2sVwBAgEC1wLIs2/7/BQCDKftRRXgWAAAAAElFTkSuQmCC;" parent="28t_TmLzIudg9PH67Oan-598" vertex="1">
          <mxGeometry width="160" height="80" as="geometry" />
        </mxCell>
        <mxCell id="28t_TmLzIudg9PH67Oan-600" value="&lt;span style=&quot;color: rgb(0 , 0 , 0) ; font-size: 19px&quot;&gt;STOP&lt;/span&gt;" style="rounded=0;whiteSpace=wrap;html=1;fontFamily=Source Code Pro;fontSource=https%3A%2F%2Ffonts.googleapis.com%2Fcss%3Ffamily%3DSource%2BCode%2BPro;fontColor=#66FF66;strokeColor=#030303;fillColor=none;strokeWidth=1;" parent="28t_TmLzIudg9PH67Oan-598" vertex="1">
          <mxGeometry width="160" height="80" as="geometry" />
        </mxCell>
        <mxCell id="28t_TmLzIudg9PH67Oan-693" value="PC=7" style="text;html=1;strokeColor=none;fillColor=none;align=left;verticalAlign=middle;whiteSpace=wrap;rounded=0;fontFamily=Source Code Pro;fontSource=https%3A%2F%2Ffonts.googleapis.com%2Fcss%3Ffamily%3DSource%2BCode%2BPro;fontSize=12;fontColor=#000000;fontStyle=0" parent="28t_TmLzIudg9PH67Oan-598" vertex="1">
          <mxGeometry x="10" y="50" width="60" height="30" as="geometry" />
        </mxCell>
        <mxCell id="28t_TmLzIudg9PH67Oan-601" value="" style="group;fontStyle=0" parent="1" vertex="1" connectable="0">
          <mxGeometry x="230" y="770" width="160" height="80" as="geometry" />
        </mxCell>
        <mxCell id="28t_TmLzIudg9PH67Oan-602" value="" style="shape=image;verticalLabelPosition=bottom;labelBackgroundColor=default;verticalAlign=top;aspect=fixed;imageAspect=0;image=data:image/png,iVBORw0KGgoAAAANSUhEUgAAAUQAAACiCAYAAAA5gLTtAAABR2lDQ1BJQ0MgUHJvZmlsZQAAKJFjYGASSSwoyGFhYGDIzSspCnJ3UoiIjFJgf8bAzMDPwM0gysCdmFxc4BgQ4ANUwgCjUcG3awyMIPqyLsis13ZWV3aHfPFeJa2yMfrPkgWY6lEAV0pqcTKQ/gPEackFRSUMDIwpQLZyeUkBiN0BZIsUAR0FZM8BsdMh7A0gdhKEfQSsJiTIGci+AWQLJGckAs1gfAFk6yQhiacjsaH2ggCPj7tCaE5JUaKChwsB55IOSlIrSkC0c35BZVFmekaJgiMwlFIVPPOS9XQUjAyMjBgYQGEOUf35BjgsGcU4EGLFBgwMVr1AwQKEWKwIA8OWDAYGvmSEmNokBgZBbgaGw1EFiUWJcAcwfmMpTjM2grC5tzMwsE77//9zOAMDuyYDw9/r////3v7//99lDAzMtxgYDnwDAJ6JX6+ZbAqNAAAAlmVYSWZNTQAqAAAACAAFARIAAwAAAAEAAQAAARoABQAAAAEAAABKARsABQAAAAEAAABSASgAAwAAAAEAAgAAh2kABAAAAAEAAABaAAAAAAAAAJAAAAABAAAAkAAAAAEAA5KGAAcAAAASAAAAhKACAAQAAAABAAABRKADAAQAAAABAAAAogAAAABBU0NJSQAAAFNjcmVlbnNob3R2zH25AAAACXBIWXMAABYlAAAWJQFJUiTwAAAC22lUWHRYTUw6Y29tLmFkb2JlLnhtcAAAAAAAPHg6eG1wbWV0YSB4bWxuczp4PSJhZG9iZTpuczptZXRhLyIgeDp4bXB0az0iWE1QIENvcmUgNi4wLjAiPgogICA8cmRmOlJERiB4bWxuczpyZGY9Imh0dHA6Ly93d3cudzMub3JnLzE5OTkvMDIvMjItcmRmLXN5bnRheC1ucyMiPgogICAgICA8cmRmOkRlc2NyaXB0aW9uIHJkZjphYm91dD0iIgogICAgICAgICAgICB4bWxuczpleGlmPSJodHRwOi8vbnMuYWRvYmUuY29tL2V4aWYvMS4wLyIKICAgICAgICAgICAgeG1sbnM6dGlmZj0iaHR0cDovL25zLmFkb2JlLmNvbS90aWZmLzEuMC8iPgogICAgICAgICA8ZXhpZjpVc2VyQ29tbWVudD5TY3JlZW5zaG90PC9leGlmOlVzZXJDb21tZW50PgogICAgICAgICA8ZXhpZjpQaXhlbFhEaW1lbnNpb24+MzI0PC9leGlmOlBpeGVsWERpbWVuc2lvbj4KICAgICAgICAgPGV4aWY6UGl4ZWxZRGltZW5zaW9uPjE2MjwvZXhpZjpQaXhlbFlEaW1lbnNpb24+CiAgICAgICAgIDx0aWZmOlJlc29sdXRpb25Vbml0PjI8L3RpZmY6UmVzb2x1dGlvblVuaXQ+CiAgICAgICAgIDx0aWZmOlhSZXNvbHV0aW9uPjE0NC8xPC90aWZmOlhSZXNvbHV0aW9uPgogICAgICAgICA8dGlmZjpZUmVzb2x1dGlvbj4xNDQvMTwvdGlmZjpZUmVzb2x1dGlvbj4KICAgICAgICAgPHRpZmY6T3JpZW50YXRpb24+MTwvdGlmZjpPcmllbnRhdGlvbj4KICAgICAgPC9yZGY6RGVzY3JpcHRpb24+CiAgIDwvcmRmOlJERj4KPC94OnhtcG1ldGE+Clsqt0gAAAa1SURBVHgB7d0xbuNIFARQe7CRAt5GgWJdm76AfR+lXphAdUCvE5kLNKfeJJ+SAaH7daEwMwLcr+/v75/X6/XliD+Px2P7mMvlcsTHvcz+eV+b/Pj4eOH3/HHze95O/n5n919+r+u6fv7+Y30CAQIEziuwLMu2+H/OuwUrJ0CAwDEC+VfeKMT7/X7MJ/9Pn/L29rZ98qzrnHV9s64rMZl9fWdZ56yOs65rf655/ScPJgECBNoFFGJ7AuyfAIEhoBAHhQcCBNoFFGJ7AuyfAIEhoBAHhQcCBNoFFGJ7AuyfAIEhoBAHhQcCBNoFFGJ7AuyfAIEhoBAHhQcCBNoFFGJ7AuyfAIEhoBAHhQcCBNoFFGJ7AuyfAIEhoBAHhQcCBNoFFGJ7AuyfAIEhoBAHhQcCBNoFFGJ7AuyfAIEhMH5B7HjHAwECBMoEcn+TO1XKDt52CRD4LnC73bY3/Q3xu413CBAoE8hNoaMQZ72rJOdylrsZZnPklgT9bnJ8zu8sbtmdL1UiYRIgUC+gEOsjAIAAgQgoxEiYBAjUCyjE+ggAIEAgAgoxEiYBAvUCCrE+AgAIEIiAQoyESYBAvYBCrI8AAAIEIqAQI2ESIFAvoBDrIwCAAIEIKMRImAQI1AsoxPoIACBAIAIKMRImAQL1AgqxPgIACBCIgEKMhEmAQL2AQqyPAAACBCIwfkFs3jAJECDQJuBOlbYTt18CBH4UcKfKjzR+QIBAm4A7VQ4+8Vnvjph1XeGffX1nWeesjrOua3+uee1LlUiYBAjUCyjE+ggAIEAgAgoxEiYBAvUCCrE+AgAIEIiAQoyESYBAvYBCrI8AAAIEIqAQI2ESIFAvoBDrIwCAAIEIKMRImAQI1AsoxPoIACBAIAIKMRImAQL1AgqxPgIACBCIgEKMhEmAQL2AQqyPAAACBCKgECNhEiBQL6AQ6yMAgACBCLhTJRImAQK1Au5UqT16GydAYC/gTpW9iNcECNQKuFPl4KOf9e6IWdcV/tnXd5Z1zuo467r255rXvlSJhEmAQL2AQqyPAAACBCKgECNhEiBQL6AQ6yMAgACBCCjESJgECNQLKMT6CAAgQCACCjESJgEC9QIKsT4CAAgQiIBCjIRJgEC9gEKsjwAAAgQioBAjYRIgUC+gEOsjAIAAgQgoxEiYBAjUCyjE+ggAIEAgAgoxEiYBAvUCCrE+AgAIEIiAQoyESYBAvcDruq6f9QoACBCoFliWZdu/W/eqY2DzBAh8CVyv1w1iFOL9fp9a5ix3M8zmyO2YWHN8zvEsbtmd/0OMhEmAQL2AQqyPAAACBCKgECNhEiBQL6AQ6yMAgACBCCjESJgECNQLKMT6CAAgQCACCjESJgEC9QIKsT4CAAgQiIBCjIRJgEC9gEKsjwAAAgQioBAjYRIgUC+gEOsjAIAAgQgoxEiYBAjUCyjE+ggAIEAgAgoxEiYBAvUCCrE+AgAIEIjA+AWxecMkQIBAm8Dj8di27E6VtpO3XwIEvgncbrftPX9D/EbjDQIE2gQul8u25VGIs90Fsj+Qs9zNMJsjt32SnnvN8e92y+58qRIJkwCBegGFWB8BAAQIREAhRsIkQKBeQCHWRwAAAQIRUIiRMAkQqBdQiPURAECAQAQUYiRMAgTqBRRifQQAECAQAYUYCZMAgXoBhVgfAQAECERAIUbCJECgXkAh1kcAAAECEVCIkTAJEKgXUIj1EQBAgEAEFGIkTAIE6gUUYn0EABAgEIHxC2LzhkmAAIE2AXeqtJ24/RIg8KOAO1V+pPEDAgTaBNypcvCJz3rnxqzrCv/s6zvLOmd1nHVd+3PNa1+qRMIkQKBeQCHWRwAAAQIRUIiRMAkQqBdQiPURAECAQAQUYiRMAgTqBRRifQQAECAQAYUYCZMAgXoBhVgfAQAECERAIUbCJECgXkAh1kcAAAECEVCIkTAJEKgXUIj1EQBAgEAEFGIkTAIE6gUUYn0EABAgEAGFGAmTAIF6AYVYHwEABAhEwJ0qkTAJEKgVcKdK7dHbOAECewF3quxFvCZAoFbAnSoHH/2sd0fMuq7wz76+s6xzVsdZ17U/17z2pUokTAIE6gUUYn0EABAgEAGFGAmTAIF6AYVYHwEABAhEQCFGwiRAoF5AIdZHAAABAhFQiJEwCRCoF1CI9REAQIBABBRiJEwCBOoFFGJ9BAAQIBABhRgJkwCBegGFWB8BAAQIREAhRsIkQKBeQCHWRwAAAQIRUIiRMAkQqBdQiPURAECAQAQUYiRMAgTqBV7Xdf2sVwBAgEC1wLIs2/7/BQCDKftRRXgWAAAAAElFTkSuQmCC;" parent="28t_TmLzIudg9PH67Oan-601" vertex="1">
          <mxGeometry width="160" height="80" as="geometry" />
        </mxCell>
        <mxCell id="28t_TmLzIudg9PH67Oan-603" value="&lt;font color=&quot;#000000&quot;&gt;&lt;span style=&quot;font-size: 19px&quot;&gt;ENDTX&lt;/span&gt;&lt;/font&gt;" style="rounded=0;whiteSpace=wrap;html=1;fontFamily=Source Code Pro;fontSource=https%3A%2F%2Ffonts.googleapis.com%2Fcss%3Ffamily%3DSource%2BCode%2BPro;fontColor=#66FF66;strokeColor=#030303;fillColor=none;strokeWidth=1;" parent="28t_TmLzIudg9PH67Oan-601" vertex="1">
          <mxGeometry width="160" height="80" as="geometry" />
        </mxCell>
        <mxCell id="28t_TmLzIudg9PH67Oan-694" value="PC=7" style="text;html=1;strokeColor=none;fillColor=none;align=left;verticalAlign=middle;whiteSpace=wrap;rounded=0;fontFamily=Source Code Pro;fontSource=https%3A%2F%2Ffonts.googleapis.com%2Fcss%3Ffamily%3DSource%2BCode%2BPro;fontSize=12;fontColor=#000000;fontStyle=0" parent="28t_TmLzIudg9PH67Oan-601" vertex="1">
          <mxGeometry x="10" y="50" width="60" height="30" as="geometry" />
        </mxCell>
        <mxCell id="28t_TmLzIudg9PH67Oan-604" value="" style="group" parent="1" vertex="1" connectable="0">
          <mxGeometry x="230" y="850" width="160" height="80" as="geometry" />
        </mxCell>
        <mxCell id="28t_TmLzIudg9PH67Oan-605" value="" style="shape=image;verticalLabelPosition=bottom;labelBackgroundColor=default;verticalAlign=top;aspect=fixed;imageAspect=0;image=data:image/png,iVBORw0KGgoAAAANSUhEUgAAAUQAAACiCAYAAAA5gLTtAAABR2lDQ1BJQ0MgUHJvZmlsZQAAKJFjYGASSSwoyGFhYGDIzSspCnJ3UoiIjFJgf8bAzMDPwM0gysCdmFxc4BgQ4ANUwgCjUcG3awyMIPqyLsis13ZWV3aHfPFeJa2yMfrPkgWY6lEAV0pqcTKQ/gPEackFRSUMDIwpQLZyeUkBiN0BZIsUAR0FZM8BsdMh7A0gdhKEfQSsJiTIGci+AWQLJGckAs1gfAFk6yQhiacjsaH2ggCPj7tCaE5JUaKChwsB55IOSlIrSkC0c35BZVFmekaJgiMwlFIVPPOS9XQUjAyMjBgYQGEOUf35BjgsGcU4EGLFBgwMVr1AwQKEWKwIA8OWDAYGvmSEmNokBgZBbgaGw1EFiUWJcAcwfmMpTjM2grC5tzMwsE77//9zOAMDuyYDw9/r////3v7//99lDAzMtxgYDnwDAJ6JX6+ZbAqNAAAAlmVYSWZNTQAqAAAACAAFARIAAwAAAAEAAQAAARoABQAAAAEAAABKARsABQAAAAEAAABSASgAAwAAAAEAAgAAh2kABAAAAAEAAABaAAAAAAAAAJAAAAABAAAAkAAAAAEAA5KGAAcAAAASAAAAhKACAAQAAAABAAABRKADAAQAAAABAAAAogAAAABBU0NJSQAAAFNjcmVlbnNob3R2zH25AAAACXBIWXMAABYlAAAWJQFJUiTwAAAC22lUWHRYTUw6Y29tLmFkb2JlLnhtcAAAAAAAPHg6eG1wbWV0YSB4bWxuczp4PSJhZG9iZTpuczptZXRhLyIgeDp4bXB0az0iWE1QIENvcmUgNi4wLjAiPgogICA8cmRmOlJERiB4bWxuczpyZGY9Imh0dHA6Ly93d3cudzMub3JnLzE5OTkvMDIvMjItcmRmLXN5bnRheC1ucyMiPgogICAgICA8cmRmOkRlc2NyaXB0aW9uIHJkZjphYm91dD0iIgogICAgICAgICAgICB4bWxuczpleGlmPSJodHRwOi8vbnMuYWRvYmUuY29tL2V4aWYvMS4wLyIKICAgICAgICAgICAgeG1sbnM6dGlmZj0iaHR0cDovL25zLmFkb2JlLmNvbS90aWZmLzEuMC8iPgogICAgICAgICA8ZXhpZjpVc2VyQ29tbWVudD5TY3JlZW5zaG90PC9leGlmOlVzZXJDb21tZW50PgogICAgICAgICA8ZXhpZjpQaXhlbFhEaW1lbnNpb24+MzI0PC9leGlmOlBpeGVsWERpbWVuc2lvbj4KICAgICAgICAgPGV4aWY6UGl4ZWxZRGltZW5zaW9uPjE2MjwvZXhpZjpQaXhlbFlEaW1lbnNpb24+CiAgICAgICAgIDx0aWZmOlJlc29sdXRpb25Vbml0PjI8L3RpZmY6UmVzb2x1dGlvblVuaXQ+CiAgICAgICAgIDx0aWZmOlhSZXNvbHV0aW9uPjE0NC8xPC90aWZmOlhSZXNvbHV0aW9uPgogICAgICAgICA8dGlmZjpZUmVzb2x1dGlvbj4xNDQvMTwvdGlmZjpZUmVzb2x1dGlvbj4KICAgICAgICAgPHRpZmY6T3JpZW50YXRpb24+MTwvdGlmZjpPcmllbnRhdGlvbj4KICAgICAgPC9yZGY6RGVzY3JpcHRpb24+CiAgIDwvcmRmOlJERj4KPC94OnhtcG1ldGE+Clsqt0gAAAa1SURBVHgB7d0xbuNIFARQe7CRAt5GgWJdm76AfR+lXphAdUCvE5kLNKfeJJ+SAaH7daEwMwLcr+/v75/X6/XliD+Px2P7mMvlcsTHvcz+eV+b/Pj4eOH3/HHze95O/n5n919+r+u6fv7+Y30CAQIEziuwLMu2+H/OuwUrJ0CAwDEC+VfeKMT7/X7MJ/9Pn/L29rZ98qzrnHV9s64rMZl9fWdZ56yOs65rf655/ScPJgECBNoFFGJ7AuyfAIEhoBAHhQcCBNoFFGJ7AuyfAIEhoBAHhQcCBNoFFGJ7AuyfAIEhoBAHhQcCBNoFFGJ7AuyfAIEhoBAHhQcCBNoFFGJ7AuyfAIEhoBAHhQcCBNoFFGJ7AuyfAIEhoBAHhQcCBNoFFGJ7AuyfAIEhoBAHhQcCBNoFFGJ7AuyfAIEhMH5B7HjHAwECBMoEcn+TO1XKDt52CRD4LnC73bY3/Q3xu413CBAoE8hNoaMQZ72rJOdylrsZZnPklgT9bnJ8zu8sbtmdL1UiYRIgUC+gEOsjAIAAgQgoxEiYBAjUCyjE+ggAIEAgAgoxEiYBAvUCCrE+AgAIEIiAQoyESYBAvYBCrI8AAAIEIqAQI2ESIFAvoBDrIwCAAIEIKMRImAQI1AsoxPoIACBAIAIKMRImAQL1AgqxPgIACBCIgEKMhEmAQL2AQqyPAAACBCIwfkFs3jAJECDQJuBOlbYTt18CBH4UcKfKjzR+QIBAm4A7VQ4+8Vnvjph1XeGffX1nWeesjrOua3+uee1LlUiYBAjUCyjE+ggAIEAgAgoxEiYBAvUCCrE+AgAIEIiAQoyESYBAvYBCrI8AAAIEIqAQI2ESIFAvoBDrIwCAAIEIKMRImAQI1AsoxPoIACBAIAIKMRImAQL1AgqxPgIACBCIgEKMhEmAQL2AQqyPAAACBCKgECNhEiBQL6AQ6yMAgACBCLhTJRImAQK1Au5UqT16GydAYC/gTpW9iNcECNQKuFPl4KOf9e6IWdcV/tnXd5Z1zuo467r255rXvlSJhEmAQL2AQqyPAAACBCKgECNhEiBQL6AQ6yMAgACBCCjESJgECNQLKMT6CAAgQCACCjESJgEC9QIKsT4CAAgQiIBCjIRJgEC9gEKsjwAAAgQioBAjYRIgUC+gEOsjAIAAgQgoxEiYBAjUCyjE+ggAIEAgAgoxEiYBAvUCCrE+AgAIEIiAQoyESYBAvcDruq6f9QoACBCoFliWZdu/W/eqY2DzBAh8CVyv1w1iFOL9fp9a5ix3M8zmyO2YWHN8zvEsbtmd/0OMhEmAQL2AQqyPAAACBCKgECNhEiBQL6AQ6yMAgACBCCjESJgECNQLKMT6CAAgQCACCjESJgEC9QIKsT4CAAgQiIBCjIRJgEC9gEKsjwAAAgQioBAjYRIgUC+gEOsjAIAAgQgoxEiYBAjUCyjE+ggAIEAgAgoxEiYBAvUCCrE+AgAIEIjA+AWxecMkQIBAm8Dj8di27E6VtpO3XwIEvgncbrftPX9D/EbjDQIE2gQul8u25VGIs90Fsj+Qs9zNMJsjt32SnnvN8e92y+58qRIJkwCBegGFWB8BAAQIREAhRsIkQKBeQCHWRwAAAQIRUIiRMAkQqBdQiPURAECAQAQUYiRMAgTqBRRifQQAECAQAYUYCZMAgXoBhVgfAQAECERAIUbCJECgXkAh1kcAAAECEVCIkTAJEKgXUIj1EQBAgEAEFGIkTAIE6gUUYn0EABAgEIHxC2LzhkmAAIE2AXeqtJ24/RIg8KOAO1V+pPEDAgTaBNypcvCJz3rnxqzrCv/s6zvLOmd1nHVd+3PNa1+qRMIkQKBeQCHWRwAAAQIRUIiRMAkQqBdQiPURAECAQAQUYiRMAgTqBRRifQQAECAQAYUYCZMAgXoBhVgfAQAECERAIUbCJECgXkAh1kcAAAECEVCIkTAJEKgXUIj1EQBAgEAEFGIkTAIE6gUUYn0EABAgEAGFGAmTAIF6AYVYHwEABAhEwJ0qkTAJEKgVcKdK7dHbOAECewF3quxFvCZAoFbAnSoHH/2sd0fMuq7wz76+s6xzVsdZ17U/17z2pUokTAIE6gUUYn0EABAgEAGFGAmTAIF6AYVYHwEABAhEQCFGwiRAoF5AIdZHAAABAhFQiJEwCRCoF1CI9REAQIBABBRiJEwCBOoFFGJ9BAAQIBABhRgJkwCBegGFWB8BAAQIREAhRsIkQKBeQCHWRwAAAQIRUIiRMAkQqBdQiPURAECAQAQUYiRMAgTqBV7Xdf2sVwBAgEC1wLIs2/7/BQCDKftRRXgWAAAAAElFTkSuQmCC;" parent="28t_TmLzIudg9PH67Oan-604" vertex="1">
          <mxGeometry width="160" height="80" as="geometry" />
        </mxCell>
        <mxCell id="28t_TmLzIudg9PH67Oan-606" value="&lt;span style=&quot;color: rgb(0 , 0 , 0) ; font-size: 19px&quot;&gt;ENDBLOCK&lt;/span&gt;" style="rounded=0;whiteSpace=wrap;html=1;fontFamily=Source Code Pro;fontSource=https%3A%2F%2Ffonts.googleapis.com%2Fcss%3Ffamily%3DSource%2BCode%2BPro;fontColor=#66FF66;strokeColor=#030303;fillColor=none;strokeWidth=1;" parent="28t_TmLzIudg9PH67Oan-604" vertex="1">
          <mxGeometry width="160" height="80" as="geometry" />
        </mxCell>
        <mxCell id="28t_TmLzIudg9PH67Oan-621" value="EVM Circuit" style="text;html=1;strokeColor=none;fillColor=none;align=left;verticalAlign=middle;whiteSpace=wrap;rounded=0;fontFamily=Source Code Pro;fontSource=https%3A%2F%2Ffonts.googleapis.com%2Fcss%3Ffamily%3DSource%2BCode%2BPro;fontSize=15;fontStyle=1" parent="1" vertex="1">
          <mxGeometry x="230" y="180" width="130" height="40" as="geometry" />
        </mxCell>
        <mxCell id="28t_TmLzIudg9PH67Oan-625" value="" style="endArrow=classic;html=1;rounded=0;fontFamily=Source Code Pro;fontSource=https%3A%2F%2Ffonts.googleapis.com%2Fcss%3Ffamily%3DSource%2BCode%2BPro;fontSize=19;fontColor=#000000;strokeColor=#000000;dashed=1;exitX=1;exitY=0.5;exitDx=0;exitDy=0;entryX=0;entryY=0.5;entryDx=0;entryDy=0;strokeWidth=3;" parent="1" source="28t_TmLzIudg9PH67Oan-591" target="28t_TmLzIudg9PH67Oan-182" edge="1">
          <mxGeometry width="50" height="50" relative="1" as="geometry">
            <mxPoint x="620" y="600" as="sourcePoint" />
            <mxPoint x="670" y="550" as="targetPoint" />
          </mxGeometry>
        </mxCell>
        <mxCell id="28t_TmLzIudg9PH67Oan-626" value="" style="endArrow=classic;html=1;rounded=0;fontFamily=Source Code Pro;fontSource=https%3A%2F%2Ffonts.googleapis.com%2Fcss%3Ffamily%3DSource%2BCode%2BPro;fontSize=19;fontColor=#000000;strokeColor=#000000;dashed=1;exitX=1;exitY=0.5;exitDx=0;exitDy=0;entryX=0;entryY=0.5;entryDx=0;entryDy=0;strokeWidth=3;" parent="1" source="28t_TmLzIudg9PH67Oan-591" target="28t_TmLzIudg9PH67Oan-206" edge="1">
          <mxGeometry width="50" height="50" relative="1" as="geometry">
            <mxPoint x="430" y="500" as="sourcePoint" />
            <mxPoint x="520" y="490" as="targetPoint" />
          </mxGeometry>
        </mxCell>
        <mxCell id="28t_TmLzIudg9PH67Oan-627" value="" style="endArrow=classic;html=1;rounded=0;fontFamily=Source Code Pro;fontSource=https%3A%2F%2Ffonts.googleapis.com%2Fcss%3Ffamily%3DSource%2BCode%2BPro;fontSize=19;fontColor=#000000;strokeColor=#000000;dashed=1;entryX=0;entryY=0.5;entryDx=0;entryDy=0;strokeWidth=3;exitX=1;exitY=0.5;exitDx=0;exitDy=0;" parent="1" source="28t_TmLzIudg9PH67Oan-591" target="28t_TmLzIudg9PH67Oan-212" edge="1">
          <mxGeometry width="50" height="50" relative="1" as="geometry">
            <mxPoint x="420" y="490" as="sourcePoint" />
            <mxPoint x="520" y="570" as="targetPoint" />
          </mxGeometry>
        </mxCell>
        <mxCell id="28t_TmLzIudg9PH67Oan-630" value="GETH&lt;br&gt;TRACE" style="strokeWidth=2;html=1;shape=mxgraph.flowchart.loop_limit;whiteSpace=wrap;fontFamily=Source Code Pro;fontSource=https%3A%2F%2Ffonts.googleapis.com%2Fcss%3Ffamily%3DSource%2BCode%2BPro;fontSize=8;fontColor=#000000;fillColor=none;" parent="1" vertex="1">
          <mxGeometry x="299" y="50" width="50" height="30" as="geometry" />
        </mxCell>
        <mxCell id="28t_TmLzIudg9PH67Oan-633" value="&lt;br&gt;ACCOUNTS&lt;br&gt;STATE" style="strokeWidth=2;html=1;shape=mxgraph.flowchart.database;whiteSpace=wrap;fontFamily=Source Code Pro;fontSource=https%3A%2F%2Ffonts.googleapis.com%2Fcss%3Ffamily%3DSource%2BCode%2BPro;fontSize=8;fontColor=#000000;fillColor=none;" parent="1" vertex="1">
          <mxGeometry x="150" y="80" width="42.5" height="40" as="geometry" />
        </mxCell>
        <mxCell id="28t_TmLzIudg9PH67Oan-636" value="TX" style="rounded=1;whiteSpace=wrap;html=1;fontFamily=Source Code Pro;fontSource=https%3A%2F%2Ffonts.googleapis.com%2Fcss%3Ffamily%3DSource%2BCode%2BPro;fontSize=8;fontColor=#000000;strokeColor=#030303;strokeWidth=3;fillColor=none;" parent="1" vertex="1">
          <mxGeometry x="150" y="50" width="45" height="20" as="geometry" />
        </mxCell>
        <mxCell id="28t_TmLzIudg9PH67Oan-638" value="GETH" style="ellipse;shape=doubleEllipse;html=1;dashed=0;whitespace=wrap;aspect=fixed;fontFamily=Source Code Pro;fontSource=https%3A%2F%2Ffonts.googleapis.com%2Fcss%3Ffamily%3DSource%2BCode%2BPro;fontSize=8;fontColor=#000000;strokeColor=#030303;strokeWidth=3;fillColor=none;" parent="1" vertex="1">
          <mxGeometry x="225" y="40" width="50" height="50" as="geometry" />
        </mxCell>
        <mxCell id="28t_TmLzIudg9PH67Oan-639" value="" style="endArrow=classic;html=1;rounded=0;fontFamily=Source Code Pro;fontSource=https%3A%2F%2Ffonts.googleapis.com%2Fcss%3Ffamily%3DSource%2BCode%2BPro;fontSize=8;fontColor=#000000;strokeColor=#000000;exitX=1;exitY=0.5;exitDx=0;exitDy=0;entryX=0;entryY=0.5;entryDx=0;entryDy=0;" parent="1" source="28t_TmLzIudg9PH67Oan-636" target="28t_TmLzIudg9PH67Oan-638" edge="1">
          <mxGeometry width="50" height="50" relative="1" as="geometry">
            <mxPoint x="355" y="430" as="sourcePoint" />
            <mxPoint x="405" y="380" as="targetPoint" />
          </mxGeometry>
        </mxCell>
        <mxCell id="28t_TmLzIudg9PH67Oan-640" value="" style="endArrow=classic;html=1;rounded=0;fontFamily=Source Code Pro;fontSource=https%3A%2F%2Ffonts.googleapis.com%2Fcss%3Ffamily%3DSource%2BCode%2BPro;fontSize=8;fontColor=#000000;strokeColor=#000000;exitX=1;exitY=0.5;exitDx=0;exitDy=0;entryX=0.017;entryY=0.708;entryDx=0;entryDy=0;exitPerimeter=0;entryPerimeter=0;" parent="1" source="28t_TmLzIudg9PH67Oan-633" target="28t_TmLzIudg9PH67Oan-638" edge="1">
          <mxGeometry width="50" height="50" relative="1" as="geometry">
            <mxPoint x="230" y="110" as="sourcePoint" />
            <mxPoint x="279" y="130" as="targetPoint" />
          </mxGeometry>
        </mxCell>
        <mxCell id="28t_TmLzIudg9PH67Oan-641" value="BLOCK" style="rounded=1;whiteSpace=wrap;html=1;fontFamily=Source Code Pro;fontSource=https%3A%2F%2Ffonts.googleapis.com%2Fcss%3Ffamily%3DSource%2BCode%2BPro;fontSize=8;fontColor=#000000;strokeColor=#030303;strokeWidth=3;fillColor=none;" parent="1" vertex="1">
          <mxGeometry x="150" y="20" width="45" height="20" as="geometry" />
        </mxCell>
        <mxCell id="28t_TmLzIudg9PH67Oan-642" value="" style="endArrow=classic;html=1;rounded=0;fontFamily=Source Code Pro;fontSource=https%3A%2F%2Ffonts.googleapis.com%2Fcss%3Ffamily%3DSource%2BCode%2BPro;fontSize=8;fontColor=#000000;strokeColor=#000000;exitX=0.5;exitY=1;exitDx=0;exitDy=0;entryX=0.5;entryY=0;entryDx=0;entryDy=0;" parent="1" source="28t_TmLzIudg9PH67Oan-641" target="28t_TmLzIudg9PH67Oan-636" edge="1">
          <mxGeometry width="50" height="50" relative="1" as="geometry">
            <mxPoint x="230" y="110" as="sourcePoint" />
            <mxPoint x="279" y="130" as="targetPoint" />
          </mxGeometry>
        </mxCell>
        <mxCell id="28t_TmLzIudg9PH67Oan-643" value="" style="endArrow=classic;html=1;rounded=0;fontFamily=Source Code Pro;fontSource=https%3A%2F%2Ffonts.googleapis.com%2Fcss%3Ffamily%3DSource%2BCode%2BPro;fontSize=8;fontColor=#000000;strokeColor=#000000;exitX=1;exitY=0.5;exitDx=0;exitDy=0;entryX=0;entryY=0;entryDx=0;entryDy=0;" parent="1" source="28t_TmLzIudg9PH67Oan-641" target="28t_TmLzIudg9PH67Oan-638" edge="1">
          <mxGeometry width="50" height="50" relative="1" as="geometry">
            <mxPoint x="195" y="70" as="sourcePoint" />
            <mxPoint x="195" y="90" as="targetPoint" />
          </mxGeometry>
        </mxCell>
        <mxCell id="28t_TmLzIudg9PH67Oan-645" value="" style="endArrow=classic;html=1;rounded=0;fontFamily=Source Code Pro;fontSource=https%3A%2F%2Ffonts.googleapis.com%2Fcss%3Ffamily%3DSource%2BCode%2BPro;fontSize=8;fontColor=#000000;strokeColor=#000000;exitX=1;exitY=0.5;exitDx=0;exitDy=0;entryX=0;entryY=0.5;entryDx=0;entryDy=0;entryPerimeter=0;" parent="1" source="28t_TmLzIudg9PH67Oan-638" target="28t_TmLzIudg9PH67Oan-630" edge="1">
          <mxGeometry width="50" height="50" relative="1" as="geometry">
            <mxPoint x="225" y="190" as="sourcePoint" />
            <mxPoint x="280.02" y="142.48000000000002" as="targetPoint" />
          </mxGeometry>
        </mxCell>
        <mxCell id="28t_TmLzIudg9PH67Oan-647" value="" style="endArrow=classic;html=1;rounded=0;fontFamily=Source Code Pro;fontSource=https%3A%2F%2Ffonts.googleapis.com%2Fcss%3Ffamily%3DSource%2BCode%2BPro;fontSize=19;fontColor=#000000;strokeColor=#000000;dashed=1;exitX=0;exitY=0.75;exitDx=0;exitDy=0;entryX=1;entryY=0.5;entryDx=0;entryDy=0;strokeWidth=3;" parent="1" source="28t_TmLzIudg9PH67Oan-597" target="28t_TmLzIudg9PH67Oan-34" edge="1">
          <mxGeometry width="50" height="50" relative="1" as="geometry">
            <mxPoint x="430" y="500" as="sourcePoint" />
            <mxPoint x="520" y="490" as="targetPoint" />
          </mxGeometry>
        </mxCell>
        <mxCell id="28t_TmLzIudg9PH67Oan-650" value="sort by&lt;br&gt;tag, index, rw_counter" style="shape=flexArrow;endArrow=classic;html=1;rounded=0;fontFamily=Source Code Pro;fontSource=https%3A%2F%2Ffonts.googleapis.com%2Fcss%3Ffamily%3DSource%2BCode%2BPro;fontSize=12;fontColor=#000000;strokeColor=#000000;endWidth=39;endSize=9.84;width=50;" parent="1" edge="1">
          <mxGeometry width="50" height="50" relative="1" as="geometry">
            <mxPoint x="635" y="260" as="sourcePoint" />
            <mxPoint x="635" y="330" as="targetPoint" />
          </mxGeometry>
        </mxCell>
        <mxCell id="28t_TmLzIudg9PH67Oan-656" value="" style="endArrow=none;dashed=1;html=1;dashPattern=1 3;strokeWidth=2;rounded=0;fontFamily=Source Code Pro;fontSource=https%3A%2F%2Ffonts.googleapis.com%2Fcss%3Ffamily%3DSource%2BCode%2BPro;fontSize=3;fontColor=#000000;entryX=0;entryY=0.25;entryDx=0;entryDy=0;exitX=1;exitY=0.5;exitDx=0;exitDy=0;" parent="1" source="28t_TmLzIudg9PH67Oan-658" target="28t_TmLzIudg9PH67Oan-580" edge="1">
          <mxGeometry width="50" height="50" relative="1" as="geometry">
            <mxPoint x="200" y="870" as="sourcePoint" />
            <mxPoint x="280" y="870" as="targetPoint" />
          </mxGeometry>
        </mxCell>
        <mxCell id="28t_TmLzIudg9PH67Oan-658" value="&lt;div style=&quot;text-align: left&quot;&gt;&lt;br&gt;&lt;/div&gt;&lt;div style=&quot;text-align: left&quot;&gt;&lt;span&gt;Each EVM opcode is written in a cell, that is a fixed number of cols and rows in HALO2.&lt;/span&gt;&lt;/div&gt;&lt;br&gt;&lt;div style=&quot;text-align: left&quot;&gt;&lt;span&gt;Constraints are always set in the first row of each group of cells, the rest of cells contains only advices&lt;/span&gt;&lt;/div&gt;" style="text;html=1;strokeColor=none;fillColor=none;align=center;verticalAlign=middle;whiteSpace=wrap;rounded=0;fontFamily=Source Code Pro;fontSource=https%3A%2F%2Ffonts.googleapis.com%2Fcss%3Ffamily%3DSource%2BCode%2BPro;fontSize=10;fontColor=#000000;" parent="1" vertex="1">
          <mxGeometry x="30" y="190" width="140" height="60" as="geometry" />
        </mxCell>
        <mxCell id="28t_TmLzIudg9PH67Oan-662" value="Contains constrains to previous cells like&lt;br style=&quot;font-size: 10px;&quot;&gt;&lt;br style=&quot;font-size: 10px;&quot;&gt;[this_row_no].pc = [this_row_no-STEP_HEIGHT].pc + 1&amp;nbsp;&lt;br style=&quot;font-size: 10px;&quot;&gt;[this_row_no].sp = [this_row_no-STEP_HEIGHT].sp + 1&amp;nbsp;" style="text;html=1;strokeColor=none;fillColor=none;align=left;verticalAlign=middle;whiteSpace=wrap;rounded=0;fontFamily=Source Code Pro;fontSource=https%3A%2F%2Ffonts.googleapis.com%2Fcss%3Ffamily%3DSource%2BCode%2BPro;fontSize=10;fontColor=#000000;" parent="1" vertex="1">
          <mxGeometry x="420" y="620" width="330" height="120" as="geometry" />
        </mxCell>
        <mxCell id="28t_TmLzIudg9PH67Oan-661" value="" style="curved=1;endArrow=classic;html=1;rounded=0;fontFamily=Source Code Pro;fontSource=https%3A%2F%2Ffonts.googleapis.com%2Fcss%3Ffamily%3DSource%2BCode%2BPro;fontSize=7;fontColor=#000000;strokeColor=#000000;exitX=1;exitY=0.75;exitDx=0;exitDy=0;entryX=1;entryY=0.5;entryDx=0;entryDy=0;" parent="1" source="28t_TmLzIudg9PH67Oan-597" target="28t_TmLzIudg9PH67Oan-594" edge="1">
          <mxGeometry width="50" height="50" relative="1" as="geometry">
            <mxPoint x="360" y="650" as="sourcePoint" />
            <mxPoint x="410" y="600" as="targetPoint" />
            <Array as="points">
              <mxPoint x="470" y="630" />
            </Array>
          </mxGeometry>
        </mxCell>
        <mxCell id="28t_TmLzIudg9PH67Oan-667" value="" style="shape=flexArrow;endArrow=classic;html=1;rounded=0;fontFamily=Source Code Pro;fontSource=https%3A%2F%2Ffonts.googleapis.com%2Fcss%3Ffamily%3DSource%2BCode%2BPro;fontSize=7;fontColor=#000000;strokeColor=#000000;strokeWidth=1;exitX=1;exitY=0.5;exitDx=0;exitDy=0;exitPerimeter=0;" parent="1" source="28t_TmLzIudg9PH67Oan-630" edge="1">
          <mxGeometry width="50" height="50" relative="1" as="geometry">
            <mxPoint x="320" y="200" as="sourcePoint" />
            <mxPoint x="430" y="65" as="targetPoint" />
          </mxGeometry>
        </mxCell>
        <mxCell id="28t_TmLzIudg9PH67Oan-668" value="" style="shape=flexArrow;endArrow=classic;html=1;rounded=0;fontFamily=Source Code Pro;fontSource=https%3A%2F%2Ffonts.googleapis.com%2Fcss%3Ffamily%3DSource%2BCode%2BPro;fontSize=7;fontColor=#000000;strokeColor=#000000;strokeWidth=1;exitX=0.5;exitY=1;exitDx=0;exitDy=0;exitPerimeter=0;" parent="1" source="28t_TmLzIudg9PH67Oan-630" edge="1">
          <mxGeometry width="50" height="50" relative="1" as="geometry">
            <mxPoint x="359" y="75" as="sourcePoint" />
            <mxPoint x="324" y="150" as="targetPoint" />
          </mxGeometry>
        </mxCell>
        <mxCell id="28t_TmLzIudg9PH67Oan-669" value="fn gen_associated_ops(...)" style="text;html=1;strokeColor=none;fillColor=none;align=center;verticalAlign=middle;whiteSpace=wrap;rounded=0;fontFamily=Source Code Pro;fontSource=https%3A%2F%2Ffonts.googleapis.com%2Fcss%3Ffamily%3DSource%2BCode%2BPro;fontSize=7;fontColor=#000000;" parent="1" vertex="1">
          <mxGeometry x="340" y="20" width="91" height="30" as="geometry" />
        </mxCell>
        <mxCell id="28t_TmLzIudg9PH67Oan-672" value="ExecutionGaget::assign_exec_step(...)" style="text;html=1;strokeColor=none;fillColor=none;align=center;verticalAlign=middle;whiteSpace=wrap;rounded=0;fontFamily=Source Code Pro;fontSource=https%3A%2F%2Ffonts.googleapis.com%2Fcss%3Ffamily%3DSource%2BCode%2BPro;fontSize=7;fontColor=#000000;" parent="1" vertex="1">
          <mxGeometry x="249.5" y="145" width="149" height="30" as="geometry" />
        </mxCell>
        <mxCell id="28t_TmLzIudg9PH67Oan-673" value="bla bla bla&lt;br&gt;" style="text;html=1;strokeColor=none;fillColor=none;align=center;verticalAlign=middle;whiteSpace=wrap;rounded=0;fontFamily=Source Code Pro;fontSource=https%3A%2F%2Ffonts.googleapis.com%2Fcss%3Ffamily%3DSource%2BCode%2BPro;fontSize=10;fontColor=#000000;" parent="1" vertex="1">
          <mxGeometry x="460" y="770" width="140" height="160" as="geometry" />
        </mxCell>
        <mxCell id="28t_TmLzIudg9PH67Oan-674" value="" style="endArrow=none;dashed=1;html=1;dashPattern=1 3;strokeWidth=2;rounded=0;fontFamily=Source Code Pro;fontSource=https%3A%2F%2Ffonts.googleapis.com%2Fcss%3Ffamily%3DSource%2BCode%2BPro;fontSize=3;fontColor=#000000;entryX=1;entryY=0.5;entryDx=0;entryDy=0;exitX=0;exitY=0.25;exitDx=0;exitDy=0;" parent="1" source="28t_TmLzIudg9PH67Oan-673" target="28t_TmLzIudg9PH67Oan-603" edge="1">
          <mxGeometry width="50" height="50" relative="1" as="geometry">
            <mxPoint x="180" y="229.9999999999999" as="sourcePoint" />
            <mxPoint x="240" y="239.9999999999999" as="targetPoint" />
          </mxGeometry>
        </mxCell>
        <mxCell id="28t_TmLzIudg9PH67Oan-675" value="Text" style="text;html=1;strokeColor=none;fillColor=none;align=center;verticalAlign=middle;whiteSpace=wrap;rounded=0;fontFamily=Source Code Pro;fontSource=https%3A%2F%2Ffonts.googleapis.com%2Fcss%3Ffamily%3DSource%2BCode%2BPro;fontSize=7;fontColor=#000000;" parent="1" vertex="1">
          <mxGeometry x="310" y="510" width="60" height="30" as="geometry" />
        </mxCell>
        <mxCell id="28t_TmLzIudg9PH67Oan-676" value="tags can be: TxAccessListAccount, TxAccessListAccountStorage, TxRefund, Account, AccountStorage, AccountDestructed,&lt;br&gt;CallContext, Stack, Memory" style="text;html=1;strokeColor=none;fillColor=none;align=left;verticalAlign=middle;whiteSpace=wrap;rounded=0;fontFamily=Source Code Pro;fontSource=https%3A%2F%2Ffonts.googleapis.com%2Fcss%3Ffamily%3DSource%2BCode%2BPro;fontSize=7;fontColor=#000000;" parent="1" vertex="1">
          <mxGeometry x="460" y="540" width="290" height="30" as="geometry" />
        </mxCell>
        <mxCell id="28t_TmLzIudg9PH67Oan-677" value="" style="shape=flexArrow;endArrow=classic;html=1;rounded=0;fontFamily=Source Code Pro;fontSource=https%3A%2F%2Ffonts.googleapis.com%2Fcss%3Ffamily%3DSource%2BCode%2BPro;fontSize=7;fontColor=#000000;strokeColor=#000000;strokeWidth=1;exitX=1;exitY=0.5;exitDx=0;exitDy=0;exitPerimeter=0;" parent="1" edge="1">
          <mxGeometry width="50" height="50" relative="1" as="geometry">
            <mxPoint x="40" y="1020" as="sourcePoint" />
            <mxPoint x="120" y="1020" as="targetPoint" />
          </mxGeometry>
        </mxCell>
        <mxCell id="28t_TmLzIudg9PH67Oan-678" value="&lt;font style=&quot;font-size: 12px&quot;&gt;generates&lt;/font&gt;" style="text;html=1;strokeColor=none;fillColor=none;align=left;verticalAlign=middle;whiteSpace=wrap;rounded=0;fontFamily=Source Code Pro;fontSource=https%3A%2F%2Ffonts.googleapis.com%2Fcss%3Ffamily%3DSource%2BCode%2BPro;fontSize=15;fontColor=#000000;" parent="1" vertex="1">
          <mxGeometry x="40" y="980" width="120" height="30" as="geometry" />
        </mxCell>
        <mxCell id="28t_TmLzIudg9PH67Oan-679" value="" style="endArrow=classic;html=1;rounded=0;fontFamily=Source Code Pro;fontSource=https%3A%2F%2Ffonts.googleapis.com%2Fcss%3Ffamily%3DSource%2BCode%2BPro;fontSize=19;fontColor=#000000;strokeColor=#000000;dashed=1;strokeWidth=3;" parent="1" edge="1">
          <mxGeometry width="50" height="50" relative="1" as="geometry">
            <mxPoint x="40" y="1060" as="sourcePoint" />
            <mxPoint x="120" y="1060" as="targetPoint" />
          </mxGeometry>
        </mxCell>
        <mxCell id="28t_TmLzIudg9PH67Oan-680" value="&lt;font style=&quot;font-size: 12px&quot;&gt;lookup&lt;/font&gt;" style="text;html=1;strokeColor=none;fillColor=none;align=left;verticalAlign=middle;whiteSpace=wrap;rounded=0;fontFamily=Source Code Pro;fontSource=https%3A%2F%2Ffonts.googleapis.com%2Fcss%3Ffamily%3DSource%2BCode%2BPro;fontSize=15;fontColor=#000000;" parent="1" vertex="1">
          <mxGeometry x="40" y="1030" width="80" height="30" as="geometry" />
        </mxCell>
        <mxCell id="28t_TmLzIudg9PH67Oan-681" value="" style="curved=1;endArrow=classic;html=1;rounded=0;fontFamily=Source Code Pro;fontSource=https%3A%2F%2Ffonts.googleapis.com%2Fcss%3Ffamily%3DSource%2BCode%2BPro;fontSize=7;fontColor=#000000;strokeColor=#000000;exitX=0;exitY=1;exitDx=0;exitDy=0;entryX=0.889;entryY=1.025;entryDx=0;entryDy=0;entryPerimeter=0;" parent="1" source="28t_TmLzIudg9PH67Oan-682" target="28t_TmLzIudg9PH67Oan-682" edge="1">
          <mxGeometry width="50" height="50" relative="1" as="geometry">
            <mxPoint x="30" y="1090" as="sourcePoint" />
            <mxPoint x="110" y="1090" as="targetPoint" />
            <Array as="points" />
          </mxGeometry>
        </mxCell>
        <mxCell id="28t_TmLzIudg9PH67Oan-682" value="&lt;font style=&quot;font-size: 12px&quot;&gt;constraint&lt;/font&gt;" style="text;html=1;strokeColor=none;fillColor=none;align=left;verticalAlign=middle;whiteSpace=wrap;rounded=0;fontFamily=Source Code Pro;fontSource=https%3A%2F%2Ffonts.googleapis.com%2Fcss%3Ffamily%3DSource%2BCode%2BPro;fontSize=15;fontColor=#000000;" parent="1" vertex="1">
          <mxGeometry x="40" y="1070" width="95" height="30" as="geometry" />
        </mxCell>
        <mxCell id="28t_TmLzIudg9PH67Oan-683" value="" style="endArrow=none;dashed=1;html=1;dashPattern=1 3;strokeWidth=2;rounded=0;fontFamily=Source Code Pro;fontSource=https%3A%2F%2Ffonts.googleapis.com%2Fcss%3Ffamily%3DSource%2BCode%2BPro;fontSize=3;fontColor=#000000;entryX=1;entryY=0.5;entryDx=0;entryDy=0;" parent="1" edge="1">
          <mxGeometry width="50" height="50" relative="1" as="geometry">
            <mxPoint x="120" y="1140" as="sourcePoint" />
            <mxPoint x="37.5" y="1140" as="targetPoint" />
          </mxGeometry>
        </mxCell>
        <mxCell id="28t_TmLzIudg9PH67Oan-684" value="&lt;font style=&quot;font-size: 12px&quot;&gt;link to comment&lt;/font&gt;" style="text;html=1;strokeColor=none;fillColor=none;align=left;verticalAlign=middle;whiteSpace=wrap;rounded=0;fontFamily=Source Code Pro;fontSource=https%3A%2F%2Ffonts.googleapis.com%2Fcss%3Ffamily%3DSource%2BCode%2BPro;fontSize=15;fontColor=#000000;" parent="1" vertex="1">
          <mxGeometry x="40" y="1110" width="130" height="30" as="geometry" />
        </mxCell>
        <mxCell id="28t_TmLzIudg9PH67Oan-685" value="&lt;font style=&quot;font-size: 15px&quot;&gt;Block circuit&lt;/font&gt;" style="text;html=1;strokeColor=none;fillColor=none;align=left;verticalAlign=middle;whiteSpace=wrap;rounded=0;fontFamily=Source Code Pro;fontSource=https%3A%2F%2Ffonts.googleapis.com%2Fcss%3Ffamily%3DSource%2BCode%2BPro;fontStyle=1" parent="1" vertex="1">
          <mxGeometry x="20" y="750" width="160" height="40" as="geometry" />
        </mxCell>
        <mxCell id="28t_TmLzIudg9PH67Oan-686" value="&lt;font style=&quot;font-size: 15px&quot;&gt;Tx circuit&lt;/font&gt;" style="text;html=1;strokeColor=none;fillColor=none;align=left;verticalAlign=middle;whiteSpace=wrap;rounded=0;fontFamily=Source Code Pro;fontSource=https%3A%2F%2Ffonts.googleapis.com%2Fcss%3Ffamily%3DSource%2BCode%2BPro;fontStyle=1" parent="1" vertex="1">
          <mxGeometry x="20" y="780" width="160" height="40" as="geometry" />
        </mxCell>
        <mxCell id="e5BQEvE-RsF8OUDXN7FO-1" value="" style="rounded=1;whiteSpace=wrap;html=1;fillColor=none;dashed=1;dashPattern=1 1;shadow=0;sketch=1;" vertex="1" parent="1">
          <mxGeometry x="20" y="980" width="160" height="170" as="geometry" />
        </mxCell>
      </root>
    </mxGraphModel>
  </diagram>
</mxfile>
